{
.appVersion = "1313";
copyright = "Copyright © 2019 by Noir Blanc Rouge. All rights reserved.";
customParameters = (
{
name = sampleText;
value = "Il réussit car il le devait\012De l'argent comme s'il en pleuvait\012Parle d'amour comme s'il en rêvait\012Vit sa vie comme s'il en crevait";
},
{
name = license;
value = "SIL OPEN FONT LICENSE ";
},
{
name = panose;
value = (
0,
0,
5,
0,
0,
0,
0,
0,
0,
0
);
},
{
name = unicodeRanges;
value = (
0,
1
);
},
{
name = codePageRanges;
value = (
1252
);
},
{
name = blueScale;
value = 0.037;
},
{
name = glyphOrder;
value = (
.notdef,
space,
lslash,
Scaron,
scaron,
Yacute,
yacute,
Zcaron,
zcaron,
Lslash,
quotesingle,
comma,
hyphen,
period,
A,
B,
C,
D,
E,
F,
G,
H,
I,
J,
K,
L,
M,
N,
O,
P,
Q,
R,
S,
T,
U,
V,
W,
X,
Y,
Z,
a,
b,
c,
d,
e,
f,
g,
h,
i,
j,
k,
l,
m,
n,
o,
p,
q,
r,
s,
t,
u,
v,
w,
x,
y,
z,
Adieresis,
Aring,
Ccedilla,
Eacute,
Ntilde,
Odieresis,
Udieresis,
aacute,
agrave,
acircumflex,
adieresis,
atilde,
aring,
ccedilla,
eacute,
egrave,
ecircumflex,
edieresis,
iacute,
igrave,
icircumflex,
idieresis,
ntilde,
oacute,
ograve,
ocircumflex,
odieresis,
otilde,
uacute,
ugrave,
ucircumflex,
udieresis,
Agrave,
Atilde,
Otilde,
ydieresis,
Ydieresis,
Acircumflex,
Ecircumflex,
Aacute,
Edieresis,
Egrave,
Iacute,
Icircumflex,
Idieresis,
Igrave,
Oacute,
Ocircumflex,
Ograve,
Uacute,
Ucircumflex,
Ugrave,
AE,
Eth,
Oslash,
OE,
Thorn,
ae,
eth,
dotlessi,
oslash,
oe,
thorn,
germandbls,
fi,
fl,
Delta,
Omega,
mu,
pi,
ordfeminine,
ordmasculine,
zero,
one,
two,
three,
four,
five,
six,
seven,
eight,
nine,
fraction,
onehalf,
onequarter,
threequarters,
onesuperior,
twosuperior,
threesuperior,
foursuperior,
asterisk,
backslash,
bullet,
colon,
ellipsis,
exclam,
exclamdown,
numbersign,
periodcentered,
question,
questiondown,
quotedbl,
semicolon,
slash,
underscore,
braceleft,
braceright,
bracketleft,
bracketright,
parenleft,
parenright,
emdash,
endash,
softhyphen,
guillemotleft,
guillemotright,
guilsinglleft,
guilsinglright,
quotedblbase,
quotedblleft,

glyphs = (
{
glyphname = .notdef;
layers = (
{
hints = (
{
horizontal = 1;
place = "{0, 50}";
type = Stem;
},
{
horizontal = 1;
place = "{650, 50}";
type = Stem;
},
{
place = "{0, 50}";
type = Stem;
},
{
place = "{450, 50}";
type = Stem;
}
);
layerId = "3B5F2A21-9AC0-43BD-916B-7DC2040966BF";
paths = (
{
closed = 1;
nodes = (
"500 700 LINE",
"0 700 LINE",
"0 0 LINE",
"500 0 LINE"
);
},
{
closed = 1;
nodes = (
"80 650 LINE",
"420 650 LINE",
"250 395 LINE"
);
},
{
closed = 1;
nodes = (
"220 350 LINE",
"50 95 LINE",
"50 605 LINE"
);
},
{
closed = 1;
nodes = (
"450 605 LINE",
"450 95 LINE",
"280 350 LINE"
);
},
{
closed = 1;
nodes = (
"250 305 LINE",
"420 50 LINE",
"80 50 LINE"
);
}
);
width = 500;
}
);
note = .notdef;
},
{
glyphname = lslash;
layers = (
{
hints = (
{
horizontal = 1;
place = "{0, 700}";
type = Stem;
},
{
place = "{112, 138}";
type = Stem;
}
);
layerId = "3B5F2A21-9AC0-43BD-916B-7DC2040966BF";
paths = (
{
closed = 1;
nodes = (
"112 0 LINE",
"250 0 LINE",
"250 359 LINE",
"350 405 LINE",
"304 501 LINE",
"250 476 LINE",
"250 700 LINE",
"112 700 LINE",
"112 412 LINE",
"19 369 LINE",
"65 273 LINE",
"112 295 LINE"
);
}
);
width = 355;
}
);
note = lslash;
unicode = 0142;
},
{
glyphname = Scaron;
layers = (
{
hints = (
{
horizontal = 1;
place = "{-2, 133}";
type = Stem;
},
{
horizontal = 1;
place = "{573, 132}";
type = Stem;
},
{
place = "{47, 143}";
type = Stem;
},
{
place = "{350, 142}";
type = Stem;
}
);
layerId = "3B5F2A21-9AC0-43BD-916B-7DC2040966BF";
paths = (
{
closed = 1;
nodes = (
"72 910 LINE",
"46 825 LINE",
"243 726 LINE",
"440 825 LINE",
"414 910 LINE",
"243 851 LINE"
);
},
{
closed = 1;
nodes = (
"470 595 LINE",
"428 653 OFFCURVE",
"365 705 OFFCURVE",
"253 705 CURVE SMOOTH",
"145 705 OFFCURVE",
"47 625 OFFCURVE",
"47 513 CURVE SMOOTH",
"47 393 OFFCURVE",
"155 344 OFFCURVE",
"227 315 CURVE SMOOTH",
"306 282 OFFCURVE",
"350 264 OFFCURVE",
"350 204 CURVE SMOOTH",
"350 156 OFFCURVE",
"313 131 OFFCURVE",
"247 131 CURVE SMOOTH",
"177 131 OFFCURVE",
"137 171 OFFCURVE",
"110 213 CURVE",
"6 128 LINE",
"11 96 OFFCURVE",
"112 -2 OFFCURVE",
"247 -2 CURVE SMOOTH",
"367 -2 OFFCURVE",
"493 65 OFFCURVE",
"492 204 CURVE",
"492 353 OFFCURVE",
"379 397 OFFCURVE",
"281 437 CURVE SMOOTH",
"215 464 OFFCURVE",
"190 479 OFFCURVE",
"190 513 CURVE SMOOTH",
"190 549 OFFCURVE",
"217 573 OFFCURVE",
"253 573 CURVE SMOOTH",
"315 573 OFFCURVE",
"340 542 OFFCURVE",
"372 505 CURVE"
);
}
);
width = 521;
}
);
leftKerningGroup = Scaron;
note = Scaron;
rightKerningGroup = Scaron;
unicode = 0160;
},
{
glyphname = scaron;
layers = (
{
hints = (
{
horizontal = 1;
place = "{-4, 123}";
type = Stem;
},
{
horizontal = 1;
place = "{392, 116}";
type = Stem;
},
{
place = "{42, 137}";
type = Stem;
},
{
place = "{277, 127}";
type = Stem;
}
);
layerId = "3B5F2A21-9AC0-43BD-916B-7DC2040966BF";
paths = (
{
closed = 1;
nodes = (
"49 719 LINE",
"23 633 LINE",
"220 534 LINE",
"417 633 LINE",
"391 719 LINE",
"220 660 LINE"
);
},
{
closed = 1;
nodes = (
"373 428 LINE",
"333 473 OFFCURVE",
"281 504 OFFCURVE",
"216 508 CURVE SMOOTH",
"119 513 OFFCURVE",
"38 442 OFFCURVE",
"42 354 CURVE SMOOTH",
"47 255 OFFCURVE",
"141 229 OFFCURVE",
"212 203 CURVE",
"246 193 OFFCURVE",
"277 183 OFFCURVE",
"277 157 CURVE SMOOTH",
"277 134 OFFCURVE",
"252 119 OFFCURVE",
"215 119 CURVE SMOOTH",
"167 119 OFFCURVE",
"141 140 OFFCURVE",
"108 185 CURVE",
"13 96 LINE",
"52 53 OFFCURVE",
"110 -4 OFFCURVE",
"215 -4 CURVE SMOOTH",
"302 -4 OFFCURVE",
"404 44 OFFCURVE",
"404 157 CURVE SMOOTH",
"404 289 OFFCURVE",
"274 317 OFFCURVE",
"238 330 CURVE SMOOTH",
"185 348 OFFCURVE",
"179 354 OFFCURVE",
"179 368 CURVE SMOOTH",
"179 380 OFFCURVE",
"189 392 OFFCURVE",
"209 392 CURVE",
"237 390 OFFCURVE",
"258 372 OFFCURVE",
"279 343 CURVE"
);
}
);
width = 431;
}
);
leftKerningGroup = scaron;
note = scaron;
rightKerningGroup = scaron;
unicode = 0161;
},
{
glyphname = Yacute;
layers = (
{
hints = (
{
horizontal = 1;
place = "{0, 924}";
type = Stem;
},
{
place = "{298, 142}";
type = Stem;
}
);
layerId = "3B5F2A21-9AC0-43BD-916B-7DC2040966BF";
paths = (
{
closed = 1;
nodes = (
"492 810 LINE",
"458 924 LINE",
"261 815 LINE",
"287 730 LINE"
);
},
{
closed = 1;
nodes = (
"553 700 LINE",
"369 463 LINE",
"185 700 LINE",
"9 700 LINE",
"298 328 LINE",
"298 0 LINE",
"440 0 LINE",
"440 328 LINE",
"729 700 LINE"
);
}
);
width = 738;
}
);
leftKerningGroup = Yacute;
note = Yacute;
rightKerningGroup = Yacute;
unicode = 00DD;
},
{
glyphname = yacute;
layers = (
{
hints = (
{
horizontal = 1;
place = "{-186, 910}";
type = Stem;
},
{
place = "{9, 638}";
type = Stem;
}
);
layerId = "3B5F2A21-9AC0-43BD-916B-7DC2040966BF";
paths = (
{
closed = 1;
nodes = (
"450 610 LINE",
"417 724 LINE",
"219 615 LINE",
"245 530 LINE"
);
},
{
closed = 1;
nodes = (
"252 86 LINE",
"93 -186 LINE",
"249 -186 LINE",
"647 506 LINE",
"492 506 LINE",
"330 219 LINE",
"166 506 LINE",
"9 506 LINE"
);
}
);
width = 653;
}
);
leftKerningGroup = yacute;
note = yacute;
rightKerningGroup = yacute;
unicode = 00FD;
},
{
glyphname = Zcaron;
layers = (
{
hints = (
{
horizontal = 1;
place = "{0, 132}";
type = Stem;
},
{
horizontal = 1;
place = "{568, 132}";
type = Stem;
},
{
place = "{6, 679}";
type = Stem;
}
);
layerId = "3B5F2A21-9AC0-43BD-916B-7DC2040966BF";
paths = (
{
closed = 1;
nodes = (
"175 924 LINE",
"149 838 LINE",
"346 739 LINE",
"543 838 LINE",
"517 924 LINE",
"346 865 LINE"
);
},
{
closed = 1;
nodes = (
"643 0 LINE",
"643 132 LINE",
"274 132 LINE",
"685 700 LINE",
"97 700 LINE",
"97 568 LINE",
"418 568 LINE",
"6 0 LINE"
);
}
);
width = 696;
}
);
leftKerningGroup = scaron;
note = Zcaron;
rightKerningGroup = Zcaron;
unicode = 017D;
},
{
glyphname = zcaron;
layers = (
{
hints = (
{
horizontal = 1;
place = "{0, 127}";
type = Stem;
},
{
horizontal = 1;
place = "{373, 133}";
type = Stem;
},
{
place = "{53, 436}";
type = Stem;
}
);
layerId = "3B5F2A21-9AC0-43BD-916B-7DC2040966BF";
paths = (
{
closed = 1;
nodes = (
"112 719 LINE",
"86 633 LINE",
"283 534 LINE",
"480 633 LINE",
"454 719 LINE",
"283 660 LINE"
);
},
{
closed = 1;
nodes = (
"488 127 LINE",
"253 127 LINE",
"480 402 LINE",
"489 412 LINE",
"489 506 LINE",
"57 506 LINE",
"57 373 LINE",
"286 373 LINE",
"53 93 LINE",
"53 0 LINE",
"488 0 LINE"
);
}
);
width = 539;
}
);
leftKerningGroup = scaron;
note = zcaron;
rightKerningGroup = zcaron;
unicode = 017E;
},
{
glyphname = Lslash;
layers = (
{
hints = (
{
horizontal = 1;
place = "{0, 132}";
type = Stem;
},
{
place = "{114, 143}";
type = Stem;
}
);
layerId = "3B5F2A21-9AC0-43BD-916B-7DC2040966BF";
paths = (
{
closed = 1;
nodes = (
"114 0 LINE",
"504 0 LINE",
"504 132 LINE",
"257 132 LINE",
"257 353 LINE",
"382 409 LINE",
"384 555 LINE",
"257 499 LINE",
"257 700 LINE",
"114 700 LINE",
"114 436 LINE",
"12 391 LINE",
"12 245 LINE",
"114 291 LINE"
);
}
);
width = 486;
}
);
leftKerningGroup = scaron;
note = Lslash;
rightKerningGroup = Lslash;
unicode = 0141;
},
{
glyphname = quotesingle;
layers = (
{
hints = (
{
horizontal = 1;
place = "{549, 218}";
type = Stem;
},
{
place = "{18.5, 116}";
type = Stem;
}
);
layerId = "3B5F2A21-9AC0-43BD-916B-7DC2040966BF";
paths = (
{
closed = 1;
nodes = (
"142 767 LINE",
"11 767 LINE",
"26 549 LINE",
"127 549 LINE"
);
}
);
width = 202;
}
);
leftKerningGroup = scaron;
note = quotesingle;
rightKerningGroup = quotesingle;
unicode = 0027;
},
{
glyphname = comma;
layers = (
{
hints = (
{
horizontal = 1;
place = "{-165, 281}";
type = Stem;
},
{
place = "{90, 123}";
type = Stem;
}
);
layerId = "3B5F2A21-9AC0-43BD-916B-7DC2040966BF";
paths = (
{
closed = 1;
nodes = (
"86 116 LINE",
"94 12 LINE",
"36 -119 LINE",
"138 -165 LINE",
"213 -17 LINE",
"213 116 LINE"
);
}
);
width = 265;
}
);
leftKerningGroup = scaron;
note = comma;
rightKerningGroup = quotesingle;
unicode = 002C;
},
{
glyphname = hyphen;
layers = (
{
hints = (
{
horizontal = 1;
place = "{220, 130}";
type = Stem;
},
{
place = "{68, 364}";
type = Stem;
}
);
layerId = "3B5F2A21-9AC0-43BD-916B-7DC2040966BF";
paths = (
{
closed = 1;
nodes = (
"68 350 LINE",
"68 220 LINE",
"432 220 LINE",
"432 350 LINE"
);
}
);
width = 499;
}
);
leftKerningGroup = scaron;
note = hyphen;
rightKerningGroup = quotesingle;
unicode = 002D;
},
{
glyphname = period;
layers = (
{
hints = (
{
horizontal = 1;
place = "{-31, 187}";
type = Stem;
},
{
place = "{90, 193}";
type = Stem;
}
);
layerId = "3B5F2A21-9AC0-43BD-916B-7DC2040966BF";
paths = (
{
closed = 1;
nodes = (
"240 -31 OFFCURVE",
"283 11 OFFCURVE",
"283 63 CURVE SMOOTH",
"283 114 OFFCURVE",
"240 156 OFFCURVE",
"187 156 CURVE SMOOTH",
"133 156 OFFCURVE",
"90 114 OFFCURVE",
"90 63 CURVE SMOOTH",
"90 11 OFFCURVE",
"133 -31 OFFCURVE",
"187 -31 CURVE SMOOTH"
);
}
);
width = 379;
}
);
leftKerningGroup = scaron;
note = period;
rightKerningGroup = quotesingle;
unicode = 002E;
},
{
glyphname = A;
layers = (
{
hints = (
{
horizontal = 1;
place = "{199, 132}";
type = Stem;
},
{
place = "{17, 677}";
type = Stem;
}
);
layerId = "3B5F2A21-9AC0-43BD-916B-7DC2040966BF";
paths = (
{
closed = 1;
nodes = (
"169 0 LINE",
"247 199 LINE",
"464 199 LINE",
"542 0 LINE",
"694 0 LINE",
"420 700 LINE",
"291 700 LINE",
"17 0 LINE"
);
},
{
closed = 1;
nodes = (
"299 331 LINE",
"356 477 LINE",
"413 331 LINE"
);
}
);
width = 703;
}
);
leftKerningGroup = scaron;
note = A;
rightKerningGroup = A;
unicode = 0041;
},
{
glyphname = B;
layers = (
{
hints = (
{
horizontal = 1;
place = "{0, 132}";
type = Stem;
},
{
horizontal = 1;
place = "{332, 133}";
type = Stem;
},
{
horizontal = 1;
place = "{568, 132}";
type = Stem;
},
{
place = "{71, 143}";
type = Stem;
},
{
place = "{437, 143}";
type = Stem;
},
{
place = "{359, 143}";
type = Stem;
}
);
layerId = "3B5F2A21-9AC0-43BD-916B-7DC2040966BF";
paths = (
{
closed = 1;
nodes = (
"71 700 LINE",
"71 0 LINE",
"340 0 LINE SMOOTH",
"477 0 OFFCURVE",
"580 105 OFFCURVE",
"580 232 CURVE SMOOTH",
"580 311 OFFCURVE",
"539 381 OFFCURVE",
"477 424 CURVE",
"493 451 OFFCURVE",
"502 483 OFFCURVE",
"502 516 CURVE SMOOTH",
"502 617 OFFCURVE",
"419 700 OFFCURVE",
"316 700 CURVE SMOOTH"
);
},
{
closed = 1;
nodes = (
"214 465 LINE",
"214 568 LINE",
"316 568 LINE SMOOTH",
"338 568 OFFCURVE",
"359 547 OFFCURVE",
"359 516 CURVE SMOOTH",
"359 486 OFFCURVE",
"339 465 OFFCURVE",
"317 465 CURVE SMOOTH"
);
},
{
closed = 1;
nodes = (
"214 132 LINE",
"214 332 LINE",
"342 332 LINE SMOOTH",
"394 332 OFFCURVE",
"437 289 OFFCURVE",
"437 232 CURVE SMOOTH",
"437 164 OFFCURVE",
"389 134 OFFCURVE",
"311 132 CURVE SMOOTH"
);
}
);
width = 592;
}
);
leftKerningGroup = B;
note = B;
rightKerningGroup = B;
unicode = 0042;
},
{
glyphname = C;
layers = (
{
hints = (
{
horizontal = 1;
place = "{-2, 132}";
type = Stem;
},
{
horizontal = 1;
place = "{569, 132}";
type = Stem;
},
{
place = "{38, 143}";
type = Stem;
}
);
layerId = "3B5F2A21-9AC0-43BD-916B-7DC2040966BF";
paths = (
{
closed = 1;
nodes = (
"549 248 LINE",
"505 170 OFFCURVE",
"448 130 OFFCURVE",
"375 130 CURVE SMOOTH",
"272 130 OFFCURVE",
"181 226 OFFCURVE",
"181 350 CURVE SMOOTH",
"181 464 OFFCURVE",
"263 569 OFFCURVE",
"375 569 CURVE SMOOTH",
"444 569 OFFCURVE",
"498 534 OFFCURVE",
"543 463 CURVE",
"654 546 LINE",
"601 634 OFFCURVE",
"490 701 OFFCURVE",
"375 701 CURVE SMOOTH",
"169 701 OFFCURVE",
"38 525 OFFCURVE",
"38 350 CURVE SMOOTH",
"38 157 OFFCURVE",
"188 -2 OFFCURVE",
"375 -2 CURVE SMOOTH",
"498 -2 OFFCURVE",
"613 74 OFFCURVE",
"665 172 CURVE"
);
}
);
width = 695;
}
);
leftKerningGroup = C;
note = C;
rightKerningGroup = C;
unicode = 0043;
},
{
glyphname = D;
layers = (
{
hints = (
{
horizontal = 1;
place = "{0, 132}";
type = Stem;
},
{
horizontal = 1;
place = "{568, 132}";
type = Stem;
},
{
place = "{102, 143}";
type = Stem;
},
{
place = "{480, 143}";
type = Stem;
}
);
layerId = "3B5F2A21-9AC0-43BD-916B-7DC2040966BF";
paths = (
{
closed = 1;
nodes = (
"102 700 LINE",
"102 0 LINE",
"269 0 LINE SMOOTH",
"506 0 OFFCURVE",
"623 153 OFFCURVE",
"623 350 CURVE SMOOTH",
"623 548 OFFCURVE",
"514 700 OFFCURVE",
"264 700 CURVE SMOOTH"
);
},
{
closed = 1;
nodes = (
"245 132 LINE",
"245 568 LINE",
"264 568 LINE SMOOTH",
"420 568 OFFCURVE",
"480 490 OFFCURVE",
"480 350 CURVE SMOOTH",
"480 213 OFFCURVE",
"415 132 OFFCURVE",
"269 132 CURVE SMOOTH"
);
}
);
width = 677;
}
);
leftKerningGroup = B;
note = D;
rightKerningGroup = D;
unicode = 0044;
},
{
glyphname = E;
layers = (
{
hints = (
{
horizontal = 1;
place = "{0, 132}";
type = Stem;
},
{
horizontal = 1;
place = "{287, 132}";
type = Stem;
},
{
horizontal = 1;
place = "{568, 132}";
type = Stem;
},
{
place = "{70, 143}";
type = Stem;
}
);
layerId = "3B5F2A21-9AC0-43BD-916B-7DC2040966BF";
paths = (
{
closed = 1;
nodes = (
"70 0 LINE",
"555 0 LINE",
"555 132 LINE",
"213 132 LINE",
"213 287 LINE",
"488 287 LINE",
"488 419 LINE",
"213 419 LINE",
"213 568 LINE",
"554 568 LINE",
"554 700 LINE",
"70 700 LINE"
);
}
);
width = 600;
}
);
leftKerningGroup = B;
note = E;
rightKerningGroup = E;
unicode = 0045;
},
{
glyphname = F;
layers = (
{
hints = (
{
horizontal = 1;
place = "{288, 132}";
type = Stem;
},
{
horizontal = 1;
place = "{569, 132}";
type = Stem;
},
{
place = "{68, 143}";
type = Stem;
}
);
layerId = "3B5F2A21-9AC0-43BD-916B-7DC2040966BF";
paths = (
{
closed = 1;
nodes = (
"468 420 LINE",
"211 420 LINE",
"211 569 LINE",
"535 569 LINE",
"535 701 LINE",
"68 701 LINE",
"68 0 LINE",
"211 0 LINE",
"211 288 LINE",
"468 288 LINE"
);
}
);
width = 563;
}
);
leftKerningGroup = B;
note = F;
rightKerningGroup = F;
unicode = 0046;
},
{
glyphname = G;
layers = (
{
hints = (
{
horizontal = 1;
place = "{-2, 132}";
type = Stem;
},
{
horizontal = 1;
place = "{256, 132}";
type = Stem;
},
{
horizontal = 1;
place = "{569, 132}";
type = Stem;
},
{
place = "{28, 143}";
type = Stem;
},
{
place = "{500, 142}";
type = Stem;
}
);
layerId = "3B5F2A21-9AC0-43BD-916B-7DC2040966BF";
paths = (
{
closed = 1;
nodes = (
"642 388 LINE",
"331 388 LINE",
"331 256 LINE",
"500 256 LINE",
"500 192 LINE",
"460 148 OFFCURVE",
"415 130 OFFCURVE",
"365 130 CURVE SMOOTH",
"262 130 OFFCURVE",
"171 226 OFFCURVE",
"171 350 CURVE SMOOTH",
"171 474 OFFCURVE",
"262 569 OFFCURVE",
"365 569 CURVE SMOOTH",
"425 569 OFFCURVE",
"474 542 OFFCURVE",
"520 485 CURVE",
"620 579 LINE",
"566 649 OFFCURVE",
"466 701 OFFCURVE",
"365 701 CURVE SMOOTH",
"178 701 OFFCURVE",
"28 543 OFFCURVE",
"28 350 CURVE SMOOTH",
"28 157 OFFCURVE",
"178 -2 OFFCURVE",
"365 -2 CURVE SMOOTH",
"466 -2 OFFCURVE",
"578 51 OFFCURVE",
"642 150 CURVE"
);
}
);
width = 700;
}
);
leftKerningGroup = C;
note = G;
rightKerningGroup = G;
unicode = 0047;
},
{
glyphname = H;
layers = (
{
hints = (
{
horizontal = 1;
place = "{287, 132}";
type = Stem;
},
{
place = "{75, 143}";
type = Stem;
},
{
place = "{503, 143}";
type = Stem;
}
);
layerId = "3B5F2A21-9AC0-43BD-916B-7DC2040966BF";
paths = (
{
closed = 1;
nodes = (
"503 0 LINE",
"646 0 LINE",
"646 700 LINE",
"503 700 LINE",
"503 419 LINE",
"218 419 LINE",
"218 700 LINE",
"75 700 LINE",
"75 0 LINE",
"218 0 LINE",
"218 287 LINE",
"503 287 LINE"
);
}
);
width = 721;
}
);
leftKerningGroup = B;
note = H;
rightKerningGroup = quotesingle;
unicode = 0048;
},
{
glyphname = I;
layers = (
{
hints = (
{
horizontal = 1;
place = "{0, 700}";
type = Stem;
},
{
place = "{79, 143}";
type = Stem;
}
);
layerId = "3B5F2A21-9AC0-43BD-916B-7DC2040966BF";
paths = (
{
closed = 1;
nodes = (
"79 0 LINE",
"222 0 LINE",
"222 700 LINE",
"79 700 LINE"
);
}
);
width = 301;
}
);
leftKerningGroup = I;
note = I;
rightKerningGroup = I;
unicode = 0049;
},
{
glyphname = J;
layers = (
{
hints = (
{
horizontal = 1;
place = "{-2, 132}";
type = Stem;
},
{
place = "{42.48, 142.31}";
type = Stem;
},
{
place = "{301, 144}";
type = Stem;
}
);
layerId = "3B5F2A21-9AC0-43BD-916B-7DC2040966BF";
paths = (
{
closed = 1;
nodes = (
"445 701 LINE",
"301 701 LINE",
"301 208 LINE SMOOTH",
"302 149 OFFCURVE",
"274 130 OFFCURVE",
"244 130 CURVE SMOOTH",
"204 130 OFFCURVE",
"168 178 OFFCURVE",
"193 235 CURVE",
"46 235 LINE",
"22 109 OFFCURVE",
"119 -2 OFFCURVE",
"244 -2 CURVE SMOOTH",
"356 -2 OFFCURVE",
"446 88 OFFCURVE",
"445 197 CURVE"
);
}
);
width = 523;
}
);
leftKerningGroup = scaron;
note = J;
rightKerningGroup = J;
unicode = 004A;
},
{
glyphname = K;
layers = (
{
hints = (
{
horizontal = 1;
place = "{0, 702}";
type = Stem;
},
{
place = "{76, 143}";
type = Stem;
}
);
layerId = "3B5F2A21-9AC0-43BD-916B-7DC2040966BF";
paths = (
{
closed = 1;
nodes = (
"219 0 LINE",
"219 286 LINE",
"261 325 LINE",
"511 0 LINE",
"688 0 LINE",
"363 420 LINE",
"662 700 LINE",
"461 700 LINE",
"219 473 LINE",
"219 702 LINE",
"76 702 LINE",
"76 0 LINE"
);
}
);
width = 670;
}
);
leftKerningGroup = B;
note = K;
rightKerningGroup = K;
unicode = 004B;
},
{
glyphname = L;
layers = (
{
hints = (
{
horizontal = 1;
place = "{0, 132}";
type = Stem;
},
{
place = "{83, 143}";
type = Stem;
}
);
layerId = "3B5F2A21-9AC0-43BD-916B-7DC2040966BF";
paths = (
{
closed = 1;
nodes = (
"83 700 LINE",
"83 0 LINE",
"473 0 LINE",
"473 132 LINE",
"226 132 LINE",
"226 700 LINE"
);
}
);
width = 505;
}
);
leftKerningGroup = B;
note = L;
rightKerningGroup = Lslash;
unicode = 004C;
},
{
glyphname = M;
layers = (
{
hints = (
{
horizontal = 1;
place = "{-4, 704}";
type = Stem;
},
{
place = "{83, 143}";
type = Stem;
},
{
place = "{635, 143}";
type = Stem;
}
);
layerId = "3B5F2A21-9AC0-43BD-916B-7DC2040966BF";
paths = (
{
closed = 1;
nodes = (
"778 700 LINE",
"646 700 LINE",
"430 295 LINE",
"215 700 LINE",
"83 700 LINE",
"83 0 LINE",
"226 0 LINE",
"226 381 LINE",
"430 -4 LINE",
"635 380 LINE",
"635 0 LINE",
"778 0 LINE"
);
}
);
width = 861;
}
);
leftKerningGroup = B;
note = M;
rightKerningGroup = quotesingle;
unicode = 004D;
},
{
glyphname = N;
layers = (
{
hints = (
{
horizontal = 1;
place = "{0, 700}";
type = Stem;
},
{
place = "{75, 143}";
type = Stem;
},
{
place = "{506, 143}";
type = Stem;
}
);
layerId = "3B5F2A21-9AC0-43BD-916B-7DC2040966BF";
paths = (
{
closed = 1;
nodes = (
"218 437 LINE",
"519 0 LINE",
"649 0 LINE",
"649 700 LINE",
"506 700 LINE",
"506 265 LINE",
"207 700 LINE",
"75 700 LINE",
"75 0 LINE",
"218 0 LINE"
);
}
);
width = 725;
}
);
leftKerningGroup = B;
note = N;
rightKerningGroup = quotesingle;
unicode = 004E;
},
{
glyphname = O;
layers = (
{
hints = (
{
horizontal = 1;
place = "{0, 132}";
type = Stem;
},
{
horizontal = 1;
place = "{570, 132}";
type = Stem;
},
{
place = "{45, 143}";
type = Stem;
},
{
place = "{610, 143}";
type = Stem;
}
);
layerId = "3B5F2A21-9AC0-43BD-916B-7DC2040966BF";
paths = (
{
closed = 1;
nodes = (
"199 702 OFFCURVE",
"45 542 OFFCURVE",
"45 351 CURVE SMOOTH",
"45 158 OFFCURVE",
"203 0 OFFCURVE",
"399 0 CURVE SMOOTH",
"569 0 OFFCURVE",
"753 130 OFFCURVE",
"753 351 CURVE SMOOTH",
"753 545 OFFCURVE",
"595 702 OFFCURVE",
"399 702 CURVE SMOOTH"
);
},
{
closed = 1;
nodes = (
"513 570 OFFCURVE",
"610 474 OFFCURVE",
"610 351 CURVE SMOOTH",
"610 214 OFFCURVE",
"501 132 OFFCURVE",
"399 132 CURVE SMOOTH",
"284 132 OFFCURVE",
"188 229 OFFCURVE",
"188 351 CURVE SMOOTH",
"188 472 OFFCURVE",
"283 570 OFFCURVE",
"399 570 CURVE SMOOTH"
);
}
);
width = 798;
}
);
leftKerningGroup = C;
note = O;
rightKerningGroup = O;
unicode = 004F;
},
{
glyphname = P;
layers = (
{
hints = (
{
horizontal = 1;
place = "{288, 132}";
type = Stem;
},
{
horizontal = 1;
place = "{574, 132}";
type = Stem;
},
{
place = "{75, 143}";
type = Stem;
},
{
place = "{414, 143}";
type = Stem;
}
);
layerId = "3B5F2A21-9AC0-43BD-916B-7DC2040966BF";
paths = (
{
closed = 1;
nodes = (
"75 706 LINE",
"75 0 LINE",
"218 0 LINE",
"218 288 LINE",
"344 288 LINE SMOOTH",
"462 288 OFFCURVE",
"557 383 OFFCURVE",
"557 497 CURVE SMOOTH",
"557 551 OFFCURVE",
"532 608 OFFCURVE",
"495 645 CURVE SMOOTH",
"460 680 OFFCURVE",
"401 706 OFFCURVE",
"344 706 CURVE SMOOTH"
);
},
{
closed = 1;
nodes = (
"218 420 LINE",
"218 574 LINE",
"344 574 LINE SMOOTH",
"364 574 OFFCURVE",
"376 569 OFFCURVE",
"394 552 CURVE",
"405 540 OFFCURVE",
"414 520 OFFCURVE",
"414 497 CURVE SMOOTH",
"414 452 OFFCURVE",
"382 420 OFFCURVE",
"344 420 CURVE SMOOTH"
);
}
);
width = 585;
}
);
leftKerningGroup = B;
note = P;
rightKerningGroup = P;
unicode = 0050;
},
{
glyphname = Q;
layers = (
{
hints = (
{
horizontal = 1;
place = "{0, 292}";
type = Stem;
},
{
horizontal = 1;
place = "{568, 132}";
type = Stem;
},
{
place = "{44, 143}";
type = Stem;
},
{
place = "{609, 143}";
type = Stem;
},
{
horizontal = 1;
place = "{-2, 132}";
type = Stem;
}
);
layerId = "3B5F2A21-9AC0-43BD-916B-7DC2040966BF";
paths = (
{
closed = 1;
nodes = (
"609 0 LINE",
"812 0 LINE",
"674 127 LINE",
"721 184 OFFCURVE",
"752 259 OFFCURVE",
"752 349 CURVE SMOOTH",
"752 542 OFFCURVE",
"594 700 OFFCURVE",
"398 700 CURVE SMOOTH",
"198 700 OFFCURVE",
"44 539 OFFCURVE",
"44 349 CURVE SMOOTH",
"44 156 OFFCURVE",
"202 -2 OFFCURVE",
"398 -2 CURVE SMOOTH",
"455 -2 OFFCURVE",
"513 12 OFFCURVE",
"566 40 CURVE"
);
},
{
closed = 1;
nodes = (
"496 292 LINE",
"294 292 LINE",
"459 139 LINE",
"439 133 OFFCURVE",
"418 130 OFFCURVE",
"398 130 CURVE SMOOTH",
"283 130 OFFCURVE",
"187 227 OFFCURVE",
"187 349 CURVE SMOOTH",
"187 470 OFFCURVE",
"282 568 OFFCURVE",
"398 568 CURVE SMOOTH",
"512 568 OFFCURVE",
"609 471 OFFCURVE",
"609 349 CURVE SMOOTH",
"609 299 OFFCURVE",
"594 256 OFFCURVE",
"571 222 CURVE"
);
}
);
width = 805;
}
);
leftKerningGroup = C;
note = Q;
rightKerningGroup = Q;
unicode = 0051;
},
{
glyphname = R;
layers = (
{
hints = (
{
horizontal = 1;
place = "{324, 133}";
type = Stem;
},
{
horizontal = 1;
place = "{574, 132}";
type = Stem;
},
{
place = "{77, 143}";
type = Stem;
},
{
place = "{436, 140}";
type = Stem;
}
);
layerId = "3B5F2A21-9AC0-43BD-916B-7DC2040966BF";
paths = (
{
closed = 1;
nodes = (
"303 324 LINE",
"506 0 LINE",
"672 0 LINE",
"459 340 LINE",
"528 370 OFFCURVE",
"576 438 OFFCURVE",
"576 515 CURVE SMOOTH",
"576 619 OFFCURVE",
"496 706 OFFCURVE",
"369 706 CURVE SMOOTH",
"77 706 LINE",
"77 0 LINE",
"220 0 LINE",
"220 324 LINE"
);
},
{
closed = 1;
nodes = (
"220 457 LINE",
"220 574 LINE",
"372 574 LINE SMOOTH",
"406 574 OFFCURVE",
"436 553 OFFCURVE",
"436 516 CURVE SMOOTH",
"436 478 OFFCURVE",
"416 457 OFFCURVE",
"374 457 CURVE SMOOTH"
);
}
);
width = 689;
}
);
leftKerningGroup = B;
note = R;
rightKerningGroup = R;
unicode = 0052;
},
{
glyphname = S;
layers = (
{
hints = (
{
horizontal = 1;
place = "{-2, 133}";
type = Stem;
},
{
horizontal = 1;
place = "{573, 132}";
type = Stem;
},
{
place = "{47, 143}";
type = Stem;
},
{
place = "{350, 142}";
type = Stem;
}
);
layerId = "3B5F2A21-9AC0-43BD-916B-7DC2040966BF";
paths = (
{
closed = 1;
nodes = (
"470 595 LINE",
"428 653 OFFCURVE",
"365 705 OFFCURVE",
"253 705 CURVE SMOOTH",
"145 705 OFFCURVE",
"47 625 OFFCURVE",
"47 513 CURVE SMOOTH",
"47 393 OFFCURVE",
"155 344 OFFCURVE",
"227 315 CURVE SMOOTH",
"306 282 OFFCURVE",
"350 264 OFFCURVE",
"350 204 CURVE SMOOTH",
"350 156 OFFCURVE",
"313 131 OFFCURVE",
"247 131 CURVE SMOOTH",
"177 131 OFFCURVE",
"137 171 OFFCURVE",
"110 213 CURVE",
"6 128 LINE",
"11 96 OFFCURVE",
"112 -2 OFFCURVE",
"247 -2 CURVE SMOOTH",
"367 -2 OFFCURVE",
"493 65 OFFCURVE",
"492 204 CURVE",
"492 353 OFFCURVE",
"379 397 OFFCURVE",
"281 437 CURVE SMOOTH",
"215 464 OFFCURVE",
"190 479 OFFCURVE",
"190 513 CURVE SMOOTH",
"190 549 OFFCURVE",
"217 573 OFFCURVE",
"253 573 CURVE SMOOTH",
"315 573 OFFCURVE",
"340 542 OFFCURVE",
"372 505 CURVE"
);
}
);
width = 521;
}
);
leftKerningGroup = Scaron;
note = S;
rightKerningGroup = Scaron;
unicode = 0053;
},
{
glyphname = T;
layers = (
{
hints = (
{
horizontal = 1;
place = "{568, 132}";
type = Stem;
},
{
place = "{207, 143}";
type = Stem;
}
);
layerId = "3B5F2A21-9AC0-43BD-916B-7DC2040966BF";
paths = (
{
closed = 1;
nodes = (
"350 0 LINE",
"350 568 LINE",
"543 568 LINE",
"543 700 LINE",
"13 700 LINE",
"13 568 LINE",
"207 568 LINE",
"207 0 LINE"
);
}
);
width = 556;
}
);
leftKerningGroup = T;
note = T;
rightKerningGroup = T;
unicode = 0054;
},
{
glyphname = U;
layers = (
{
hints = (
{
horizontal = 1;
place = "{-9, 132}";
type = Stem;
},
{
place = "{67, 143}";
type = Stem;
},
{
place = "{476, 143}";
type = Stem;
}
);
layerId = "3B5F2A21-9AC0-43BD-916B-7DC2040966BF";
paths = (
{
closed = 1;
nodes = (
"210 699 LINE",
"67 699 LINE",
"67 278 LINE",
"67 279 OFFCURVE",
"56 1 OFFCURVE",
"333 -9 CURVE",
"353 -9 LINE",
"629 1 OFFCURVE",
"619 279 OFFCURVE",
"619 279 CURVE",
"619 699 LINE",
"476 699 LINE",
"476 260 LINE",
"472 219 OFFCURVE",
"455 128 OFFCURVE",
"350 123 CURVE",
"336 123 LINE",
"215 129 OFFCURVE",
"210 249 OFFCURVE",
"210 274 CURVE SMOOTH"
);
}
);
width = 671;
}
);
leftKerningGroup = U;
note = U;
rightKerningGroup = U;
unicode = 0055;
},
{
glyphname = V;
layers = (
{
hints = (
{
horizontal = 1;
place = "{0, 700}";
type = Stem;
},
{
place = "{10, 665}";
type = Stem;
}
);
layerId = "3B5F2A21-9AC0-43BD-916B-7DC2040966BF";
paths = (
{
closed = 1;
nodes = (
"281 0 LINE",
"404 0 LINE",
"675 700 LINE",
"524 700 LINE",
"343 233 LINE",
"162 700 LINE",
"10 700 LINE"
);
}
);
width = 685;
}
);
leftKerningGroup = V;
note = V;
rightKerningGroup = V;
unicode = 0056;
},
{
glyphname = W;
layers = (
{
hints = (
{
horizontal = 1;
place = "{0, 700}";
type = Stem;
},
{
place = "{11, 920}";
type = Stem;
}
);
layerId = "3B5F2A21-9AC0-43BD-916B-7DC2040966BF";
paths = (
{
closed = 1;
nodes = (
"931 700 LINE",
"784 700 LINE",
"681 284 LINE",
"533 700 LINE",
"409 700 LINE",
"261 284 LINE",
"158 700 LINE",
"11 700 LINE",
"185 0 LINE",
"310 0 LINE",
"471 452 LINE",
"631 0 LINE",
"757 0 LINE"
);
}
);
width = 942;
}
);
leftKerningGroup = W;
note = W;
rightKerningGroup = W;
unicode = 0057;
},
{
glyphname = X;
layers = (
{
hints = (
{
horizontal = 1;
place = "{0, 700}";
type = Stem;
},
{
place = "{7, 823}";
type = Stem;
}
);
layerId = "3B5F2A21-9AC0-43BD-916B-7DC2040966BF";
paths = (
{
closed = 1;
nodes = (
"185 0 LINE",
"417 289 LINE",
"652 0 LINE",
"830 0 LINE",
"510 395 LINE",
"758 700 LINE",
"579 700 LINE",
"420 504 LINE",
"261 700 LINE",
"82 700 LINE",
"328 398 LINE",
"7 0 LINE"
);
}
);
width = 837;
}
);
leftKerningGroup = scaron;
note = X;
rightKerningGroup = X;
unicode = 0058;
},
{
glyphname = Y;
layers = (
{
hints = (
{
horizontal = 1;
place = "{0, 700}";
type = Stem;
},
{
place = "{298, 142}";
type = Stem;
}
);
layerId = "3B5F2A21-9AC0-43BD-916B-7DC2040966BF";
paths = (
{
closed = 1;
nodes = (
"553 700 LINE",
"369 463 LINE",
"185 700 LINE",
"9 700 LINE",
"298 328 LINE",
"298 0 LINE",
"440 0 LINE",
"440 328 LINE",
"729 700 LINE"
);
}
);
width = 738;
}
);
leftKerningGroup = Yacute;
note = Y;
rightKerningGroup = Yacute;
unicode = 0059;
},
{
glyphname = Z;
layers = (
{
hints = (
{
horizontal = 1;
place = "{0, 132}";
type = Stem;
},
{
horizontal = 1;
place = "{568, 132}";
type = Stem;
},
{
place = "{6, 679}";
type = Stem;
}
);
layerId = "3B5F2A21-9AC0-43BD-916B-7DC2040966BF";
paths = (
{
closed = 1;
nodes = (
"643 0 LINE",
"643 132 LINE",
"274 132 LINE",
"685 700 LINE",
"97 700 LINE",
"97 568 LINE",
"418 568 LINE",
"6 0 LINE"
);
}
);
width = 696;
}
);
leftKerningGroup = scaron;
note = Z;
rightKerningGroup = Zcaron;
unicode = 005A;
},
{
glyphname = a;
layers = (
{
hints = (
{
horizontal = 1;
place = "{-5, 126}";
type = Stem;
},
{
horizontal = 1;
place = "{220, 99}";
type = Stem;
},
{
horizontal = 1;
place = "{392, 117}";
type = Stem;
},
{
place = "{37, 127}";
type = Stem;
},
{
place = "{324, 137}";
type = Stem;
}
);
layerId = "3B5F2A21-9AC0-43BD-916B-7DC2040966BF";
paths = (
{
closed = 1;
nodes = (
"159 323 LINE",
"188 365 OFFCURVE",
"217 392 OFFCURVE",
"262 392 CURVE SMOOTH",
"301 392 OFFCURVE",
"324 361 OFFCURVE",
"324 319 CURVE SMOOTH",
"324 308 LINE",
"302 314 OFFCURVE",
"270 319 OFFCURVE",
"239 319 CURVE SMOOTH",
"133 319 OFFCURVE",
"37 279 OFFCURVE",
"37 153 CURVE SMOOTH",
"37 82 OFFCURVE",
"91 -5 OFFCURVE",
"213 -5 CURVE SMOOTH",
"272 -5 OFFCURVE",
"306 15 OFFCURVE",
"324 36 CURVE",
"324 0 LINE",
"461 0 LINE",
"461 319 LINE SMOOTH",
"461 434 OFFCURVE",
"371 509 OFFCURVE",
"262 509 CURVE SMOOTH",
"165 509 OFFCURVE",
"103 459 OFFCURVE",
"66 407 CURVE"
);
},
{
closed = 1;
nodes = (
"282 220 OFFCURVE",
"306 217 OFFCURVE",
"324 212 CURVE",
"320 158 OFFCURVE",
"281 121 OFFCURVE",
"217 121 CURVE SMOOTH",
"180 121 OFFCURVE",
"164 141 OFFCURVE",
"164 161 CURVE SMOOTH",
"164 204 OFFCURVE",
"201 220 OFFCURVE",
"263 220 CURVE SMOOTH"
);
}
);
width = 506;
}
);
leftKerningGroup = a;
note = a;
rightKerningGroup = a;
unicode = 0061;
},
{
glyphname = b;
layers = (
{
hints = (
{
horizontal = 1;
place = "{-7, 128}";
type = Stem;
},
{
horizontal = 1;
place = "{382, 127}";
type = Stem;
},
{
place = "{72, 137}";
type = Stem;
},
{
place = "{425, 137}";
type = Stem;
}
);
layerId = "3B5F2A21-9AC0-43BD-916B-7DC2040966BF";
paths = (
{
closed = 1;
nodes = (
"209 700 LINE",
"72 700 LINE",
"72 0 LINE",
"209 0 LINE",
"209 20 LINE",
"236 3 OFFCURVE",
"269 -7 OFFCURVE",
"310 -7 CURVE SMOOTH",
"453 -7 OFFCURVE",
"562 110 OFFCURVE",
"562 253 CURVE SMOOTH",
"562 397 OFFCURVE",
"448 509 OFFCURVE",
"304 509 CURVE SMOOTH",
"263 509 OFFCURVE",
"232 499 OFFCURVE",
"209 483 CURVE"
);
},
{
closed = 1;
nodes = (
"209 333 LINE",
"222 360 OFFCURVE",
"252 382 OFFCURVE",
"304 382 CURVE SMOOTH",
"368 382 OFFCURVE",
"425 330 OFFCURVE",
"425 253 CURVE SMOOTH",
"425 176 OFFCURVE",
"373 121 OFFCURVE",
"310 121 CURVE SMOOTH",
"263 121 OFFCURVE",
"229 139 OFFCURVE",
"209 163 CURVE"
);
}
);
width = 587;
}
);
leftKerningGroup = b;
note = b;
rightKerningGroup = b;
unicode = 0062;
},
{
glyphname = c;
layers = (
{
hints = (
{
horizontal = 1;
place = "{-9, 126}";
type = Stem;
},
{
horizontal = 1;
place = "{388, 127}";
type = Stem;
},
{
place = "{32, 137}";
type = Stem;
}
);
layerId = "3B5F2A21-9AC0-43BD-916B-7DC2040966BF";
paths = (
{
closed = 1;
nodes = (
"413 191 LINE",
"388 140 OFFCURVE",
"344 117 OFFCURVE",
"296 117 CURVE SMOOTH",
"228 117 OFFCURVE",
"169 176 OFFCURVE",
"169 253 CURVE SMOOTH",
"169 326 OFFCURVE",
"227 388 OFFCURVE",
"296 388 CURVE SMOOTH",
"340 388 OFFCURVE",
"383 368 OFFCURVE",
"408 322 CURVE",
"504 413 LINE",
"464 470 OFFCURVE",
"380 515 OFFCURVE",
"296 515 CURVE SMOOTH",
"145 515 OFFCURVE",
"32 391 OFFCURVE",
"32 253 CURVE SMOOTH",
"32 108 OFFCURVE",
"150 -9 OFFCURVE",
"296 -9 CURVE SMOOTH",
"386 -9 OFFCURVE",
"475 42 OFFCURVE",
"515 108 CURVE"
);
}
);
width = 514;
}
);
leftKerningGroup = c;
note = c;
rightKerningGroup = c;
unicode = 0063;
},
{
glyphname = d;
layers = (
{
hints = (
{
horizontal = 1;
place = "{-7, 128}";
type = Stem;
},
{
horizontal = 1;
place = "{382, 127}";
type = Stem;
},
{
place = "{32, 137}";
type = Stem;
},
{
place = "{385, 137}";
type = Stem;
}
);
layerId = "3B5F2A21-9AC0-43BD-916B-7DC2040966BF";
paths = (
{
closed = 1;
nodes = (
"385 0 LINE",
"522 0 LINE",
"522 700 LINE",
"385 700 LINE",
"385 483 LINE",
"362 499 OFFCURVE",
"331 509 OFFCURVE",
"290 509 CURVE SMOOTH",
"146 509 OFFCURVE",
"32 397 OFFCURVE",
"32 253 CURVE SMOOTH",
"32 110 OFFCURVE",
"141 -7 OFFCURVE",
"284 -7 CURVE SMOOTH",
"325 -7 OFFCURVE",
"358 3 OFFCURVE",
"385 20 CURVE"
);
},
{
closed = 1;
nodes = (
"385 163 LINE",
"365 139 OFFCURVE",
"331 121 OFFCURVE",
"284 121 CURVE SMOOTH",
"221 121 OFFCURVE",
"169 176 OFFCURVE",
"169 253 CURVE SMOOTH",
"169 330 OFFCURVE",
"226 382 OFFCURVE",
"290 382 CURVE SMOOTH",
"342 382 OFFCURVE",
"372 360 OFFCURVE",
"385 333 CURVE"
);
}
);
width = 580;
}
);
leftKerningGroup = c;
note = d;
rightKerningGroup = a;
unicode = 0064;
},
{
glyphname = e;
layers = (
{
hints = (
{
horizontal = 1;
place = "{-11, 123}";
type = Stem;
},
{
horizontal = 1;
place = "{219, 108}";
type = Stem;
},
{
horizontal = 1;
place = "{402, 111}";
type = Stem;
},
{
place = "{35, 137}";
type = Stem;
},
{
place = "{377, 129.53}";
type = Stem;
}
);
layerId = "3B5F2A21-9AC0-43BD-916B-7DC2040966BF";
paths = (
{
closed = 1;
nodes = (
"402 191 LINE",
"389 147 OFFCURVE",
"349 112 OFFCURVE",
"290 112 CURVE SMOOTH",
"221 112 OFFCURVE",
"172 147 OFFCURVE",
"172 219 CURVE",
"501 219 LINE",
"517 329 OFFCURVE",
"497 390 OFFCURVE",
"459 437 CURVE SMOOTH",
"421 483 OFFCURVE",
"363 513 OFFCURVE",
"289 513 CURVE SMOOTH",
"120 513 OFFCURVE",
"35 379 OFFCURVE",
"35 251 CURVE SMOOTH",
"35 123 OFFCURVE",
"118 -11 OFFCURVE",
"290 -11 CURVE SMOOTH",
"395 -11 OFFCURVE",
"466 40 OFFCURVE",
"506 107 CURVE"
);
},
{
closed = 1;
nodes = (
"184 327 LINE",
"196 369 OFFCURVE",
"233 402 OFFCURVE",
"289 402 CURVE SMOOTH",
"341 402 OFFCURVE",
"380 359 OFFCURVE",
"377 327 CURVE"
);
}
);
width = 555;
}
);
leftKerningGroup = c;
note = e;
rightKerningGroup = e;
unicode = 0065;
},
{
glyphname = f;
layers = (
{
hints = (
{
horizontal = 1;
place = "{380, 127}";
type = Stem;
},
{
horizontal = 1;
place = "{591, 120}";
type = Stem;
},
{
place = "{96, 137}";
type = Stem;
}
);
layerId = "3B5F2A21-9AC0-43BD-916B-7DC2040966BF";
paths = (
{
closed = 1;
nodes = (
"355 380 LINE",
"355 507 LINE",
"233 507 LINE",
"233 542 LINE SMOOTH",
"233 579 OFFCURVE",
"249 591 OFFCURVE",
"265 591 CURVE SMOOTH",
"293 591 OFFCURVE",
"310 571 OFFCURVE",
"323 551 CURVE",
"390 658 LINE",
"331 704 OFFCURVE",
"276 711 OFFCURVE",
"248 711 CURVE SMOOTH",
"120 711 OFFCURVE",
"96 602 OFFCURVE",
"96 542 CURVE SMOOTH",
"96 507 LINE",
"15 507 LINE",
"15 380 LINE",
"96 380 LINE",
"96 0 LINE",
"233 0 LINE",
"233 380 LINE"
);
}
);
width = 394;
}
);
leftKerningGroup = f;
note = f;
rightKerningGroup = f;
unicode = 0066;
},
{
glyphname = g;
layers = (
{
hints = (
{
horizontal = 1;
place = "{-301, 111}";
type = Stem;
},
{
horizontal = 1;
place = "{-51, 120}";
type = Stem;
},
{
horizontal = 1;
place = "{126, 126}";
type = Stem;
},
{
horizontal = 1;
place = "{382, 127}";
type = Stem;
},
{
place = "{77, 137}";
type = Stem;
},
{
place = "{409, 129}";
type = Stem;
},
{
place = "{20, 102}";
type = Stem;
},
{
place = "{21, 121}";
type = Stem;
},
{
place = "{331, 137}";
type = Stem;
}
);
layerId = "3B5F2A21-9AC0-43BD-916B-7DC2040966BF";
paths = (
{
closed = 1;
nodes = (
"533 379 LINE",
"539 504 LINE",
"353 491 LINE",
"328 503 OFFCURVE",
"301 509 OFFCURVE",
"272 509 CURVE SMOOTH",
"164 509 OFFCURVE",
"77 423 OFFCURVE",
"77 317 CURVE SMOOTH",
"77 276 OFFCURVE",
"90 238 OFFCURVE",
"112 207 CURVE",
"64 192 OFFCURVE",
"27 155 OFFCURVE",
"20 108 CURVE SMOOTH",
"11 51 OFFCURVE",
"39 0 OFFCURVE",
"89 -22 CURVE",
"79 -27 OFFCURVE",
"27 -55 OFFCURVE",
"21 -125 CURVE SMOOTH",
"10 -243 OFFCURVE",
"112 -301 OFFCURVE",
"249 -301 CURVE SMOOTH",
"435 -301 OFFCURVE",
"538 -236 OFFCURVE",
"538 -92 CURVE SMOOTH",
"538 72 OFFCURVE",
"368 69 OFFCURVE",
"282 69 CURVE SMOOTH",
"255 69 OFFCURVE",
"230 68 OFFCURVE",
"210 68 CURVE SMOOTH",
"124 68 OFFCURVE",
"119 98 OFFCURVE",
"122 118 CURVE SMOOTH",
"124 134 OFFCURVE",
"149 157 OFFCURVE",
"193 142 CURVE",
"217 131 OFFCURVE",
"243 126 OFFCURVE",
"272 126 CURVE SMOOTH",
"380 126 OFFCURVE",
"468 212 OFFCURVE",
"468 317 CURVE SMOOTH",
"468 343 OFFCURVE",
"462 367 OFFCURVE",
"453 390 CURVE"
);
},
{
closed = 1;
nodes = (
"303 382 OFFCURVE",
"331 354 OFFCURVE",
"331 317 CURVE SMOOTH",
"331 280 OFFCURVE",
"303 252 OFFCURVE",
"272 252 CURVE SMOOTH",
"242 252 OFFCURVE",
"214 280 OFFCURVE",
"214 317 CURVE SMOOTH",
"214 354 OFFCURVE",
"242 382 OFFCURVE",
"272 382 CURVE SMOOTH"
);
},
{
closed = 1;
nodes = (
"164 -190 OFFCURVE",
"134 -151 OFFCURVE",
"142 -115 CURVE SMOOTH",
"148 -84 OFFCURVE",
"181 -49 OFFCURVE",
"192 -49 CURVE SMOOTH",
"205 -49 OFFCURVE",
"253 -51 OFFCURVE",
"319 -51 CURVE SMOOTH",
"365 -51 OFFCURVE",
"405 -65 OFFCURVE",
"409 -100 CURVE SMOOTH",
"419 -175 OFFCURVE",
"331 -190 OFFCURVE",
"251 -190 CURVE SMOOTH"
);
}
);
width = 567;
}
);
leftKerningGroup = c;
note = g;
rightKerningGroup = a;
unicode = 0067;
},
{
glyphname = h;
layers = (
{
hints = (
{
horizontal = 1;
place = "{385, 126}";
type = Stem;
},
{
place = "{67, 137}";
type = Stem;
},
{
place = "{384, 137}";
type = Stem;
}
);
layerId = "3B5F2A21-9AC0-43BD-916B-7DC2040966BF";
paths = (
{
closed = 1;
nodes = (
"204 700 LINE",
"67 700 LINE",
"67 0 LINE",
"204 0 LINE",
"204 325 LINE",
"227 370 OFFCURVE",
"268 385 OFFCURVE",
"299 385 CURVE SMOOTH",
"351 385 OFFCURVE",
"384 352 OFFCURVE",
"384 297 CURVE SMOOTH",
"384 0 LINE",
"521 0 LINE",
"521 297 LINE SMOOTH",
"521 418 OFFCURVE",
"434 511 OFFCURVE",
"304 511 CURVE SMOOTH",
"265 511 OFFCURVE",
"232 500 OFFCURVE",
"204 481 CURVE"
);
}
);
width = 561;
}
);
leftKerningGroup = b;
note = h;
rightKerningGroup = h;
unicode = 0068;
},
{
glyphname = i;
layers = (
{
hints = (
{
horizontal = 1;
place = "{537, 138}";
type = Stem;
},
{
place = "{64, 137}";
type = Stem;
}
);
layerId = "3B5F2A21-9AC0-43BD-916B-7DC2040966BF";
paths = (
{
closed = 1;
nodes = (
"58 570 OFFCURVE",
"91 537 OFFCURVE",
"130 537 CURVE SMOOTH",
"169 537 OFFCURVE",
"201 570 OFFCURVE",
"201 606 CURVE SMOOTH",
"201 643 OFFCURVE",
"169 675 OFFCURVE",
"130 675 CURVE SMOOTH",
"91 675 OFFCURVE",
"58 643 OFFCURVE",
"58 606 CURVE SMOOTH"
);
},
{
closed = 1;
nodes = (
"64 0 LINE",
"201 0 LINE",
"201 506 LINE",
"64 506 LINE"
);
}
);
width = 264;
}
);
leftKerningGroup = i;
note = i;
rightKerningGroup = i;
unicode = 0069;
},
{
glyphname = j;
layers = (
{
hints = (
{
horizontal = 1;
place = "{-180.92, 126.71}";
type = Stem;
},
{
horizontal = 1;
place = "{537, 138}";
type = Stem;
},
{
place = "{47, 143}";
type = Stem;
},
{
place = "{54, 137}";
type = Stem;
}
);
layerId = "3B5F2A21-9AC0-43BD-916B-7DC2040966BF";
paths = (
{
closed = 1;
nodes = (
"47 570 OFFCURVE",
"79 537 OFFCURVE",
"118 537 CURVE SMOOTH",
"157 537 OFFCURVE",
"190 570 OFFCURVE",
"190 606 CURVE SMOOTH",
"190 643 OFFCURVE",
"157 675 OFFCURVE",
"118 675 CURVE SMOOTH",
"79 675 OFFCURVE",
"47 643 OFFCURVE",
"47 606 CURVE SMOOTH"
);
},
{
closed = 1;
nodes = (
"191 506 LINE",
"54 506 LINE",
"54 22 LINE SMOOTH",
"54 -43 OFFCURVE",
"-1 -66 OFFCURVE",
"-63 -49 CURVE",
"-63 -178 LINE",
"60 -197 OFFCURVE",
"191 -126 OFFCURVE",
"191 22 CURVE SMOOTH"
);
}
);
width = 244;
}
);
leftKerningGroup = j;
note = j;
rightKerningGroup = j;
unicode = 006A;
},
{
glyphname = k;
layers = (
{
hints = (
{
horizontal = 1;
place = "{0, 700}";
type = Stem;
},
{
place = "{71, 137}";
type = Stem;
}
);
layerId = "3B5F2A21-9AC0-43BD-916B-7DC2040966BF";
paths = (
{
closed = 1;
nodes = (
"208 0 LINE",
"208 235 LINE",
"233 255 LINE",
"393 0 LINE",
"551 0 LINE",
"339 339 LINE",
"549 506 LINE",
"342 506 LINE",
"208 401 LINE",
"208 700 LINE",
"71 700 LINE",
"71 0 LINE"
);
}
);
width = 568;
}
);
leftKerningGroup = b;
note = k;
rightKerningGroup = k;
unicode = 006B;
},
{
glyphname = l;
layers = (
{
hints = (
{
horizontal = 1;
place = "{0, 700}";
type = Stem;
},
{
place = "{52, 137}";
type = Stem;
}
);
layerId = "3B5F2A21-9AC0-43BD-916B-7DC2040966BF";
paths = (
{
closed = 1;
nodes = (
"189 700 LINE",
"52 700 LINE",
"52 0 LINE",
"189 0 LINE"
);
}
);
width = 253;
}
);
leftKerningGroup = l;
note = l;
rightKerningGroup = a;
unicode = 006C;
},
{
glyphname = m;
layers = (
{
hints = (
{
horizontal = 1;
place = "{385, 120}";
type = Stem;
},
{
place = "{78, 137}";
type = Stem;
},
{
place = "{393, 137}";
type = Stem;
},
{
place = "{713, 137}";
type = Stem;
},
{
horizontal = 1;
place = "{385, 125}";
type = Stem;
}
);
layerId = "3B5F2A21-9AC0-43BD-916B-7DC2040966BF";
paths = (
{
closed = 1;
nodes = (
"215 505 LINE",
"78 505 LINE",
"78 0 LINE",
"215 0 LINE",
"215 308 LINE",
"230 355 OFFCURVE",
"270 385 OFFCURVE",
"312 385 CURVE SMOOTH",
"365 385 OFFCURVE",
"393 348 OFFCURVE",
"393 293 CURVE SMOOTH",
"393 0 LINE",
"530 0 LINE",
"530 293 LINE SMOOTH",
"530 301 OFFCURVE",
"530 309 OFFCURVE",
"529 317 CURVE",
"549 363 OFFCURVE",
"588 385 OFFCURVE",
"627 385 CURVE SMOOTH",
"680 385 OFFCURVE",
"713 352 OFFCURVE",
"713 296 CURVE SMOOTH",
"713 0 LINE",
"850 0 LINE",
"850 296 LINE SMOOTH",
"850 418 OFFCURVE",
"762 510 OFFCURVE",
"632 510 CURVE SMOOTH",
"558 510 OFFCURVE",
"507 483 OFFCURVE",
"473 446 CURVE",
"436 486 OFFCURVE",
"383 511 OFFCURVE",
"317 511 CURVE SMOOTH",
"276 511 OFFCURVE",
"242 497 OFFCURVE",
"215 476 CURVE"
);
}
);
width = 899;
}
);
leftKerningGroup = b;
note = m;
rightKerningGroup = h;
unicode = 006D;
},
{
glyphname = n;
layers = (
{
hints = (
{
horizontal = 1;
place = "{385, 126}";
type = Stem;
},
{
place = "{57, 137}";
type = Stem;
},
{
place = "{374, 137}";
type = Stem;
}
);
layerId = "3B5F2A21-9AC0-43BD-916B-7DC2040966BF";
paths = (
{
closed = 1;
nodes = (
"194 505 LINE",
"57 505 LINE",
"57 0 LINE",
"194 0 LINE",
"194 324 LINE",
"214 365 OFFCURVE",
"252 385 OFFCURVE",
"289 385 CURVE SMOOTH",
"341 385 OFFCURVE",
"374 352 OFFCURVE",
"374 297 CURVE SMOOTH",
"374 0 LINE",
"511 0 LINE",
"511 297 LINE SMOOTH",
"511 418 OFFCURVE",
"424 511 OFFCURVE",
"294 511 CURVE SMOOTH",
"254 511 OFFCURVE",
"221 500 OFFCURVE",
"194 481 CURVE"
);
}
);
width = 561;
}
);
leftKerningGroup = b;
note = n;
rightKerningGroup = h;
unicode = 006E;
},
{
glyphname = o;
layers = (
{
hints = (
{
horizontal = 1;
place = "{-8, 128}";
type = Stem;
},
{
horizontal = 1;
place = "{382, 128}";
type = Stem;
},
{
place = "{35, 137}";
type = Stem;
},
{
place = "{418, 137}";
type = Stem;
}
);
layerId = "3B5F2A21-9AC0-43BD-916B-7DC2040966BF";
paths = (
{
closed = 1;
nodes = (
"555 393 OFFCURVE",
"439 510 OFFCURVE",
"295 510 CURVE SMOOTH",
"152 510 OFFCURVE",
"35 394 OFFCURVE",
"35 251 CURVE SMOOTH",
"35 109 OFFCURVE",
"150 -8 OFFCURVE",
"295 -8 CURVE SMOOTH",
"440 -8 OFFCURVE",
"555 110 OFFCURVE",
"555 251 CURVE SMOOTH"
);
},
{
closed = 1;
nodes = (
"418 178 OFFCURVE",
"361 120 OFFCURVE",
"295 120 CURVE SMOOTH",
"229 120 OFFCURVE",
"172 177 OFFCURVE",
"172 251 CURVE SMOOTH",
"172 325 OFFCURVE",
"230 382 OFFCURVE",
"295 382 CURVE SMOOTH",
"361 382 OFFCURVE",
"418 325 OFFCURVE",
"418 251 CURVE SMOOTH"
);
}
);
width = 591;
}
);
leftKerningGroup = c;
note = o;
rightKerningGroup = b;
unicode = 006F;
},
{
glyphname = p;
layers = (
{
hints = (
{
horizontal = 1;
place = "{-10, 127}";
type = Stem;
},
{
horizontal = 1;
place = "{384, 127}";
type = Stem;
},
{
place = "{69, 138}";
type = Stem;
},
{
place = "{423, 137}";
type = Stem;
}
);
layerId = "3B5F2A21-9AC0-43BD-916B-7DC2040966BF";
paths = (
{
closed = 1;
nodes = (
"207 507 LINE",
"69 507 LINE",
"69 -181 LINE",
"207 -181 LINE",
"207 17 LINE",
"234 0 OFFCURVE",
"268 -10 OFFCURVE",
"308 -10 CURVE SMOOTH",
"452 -10 OFFCURVE",
"560 106 OFFCURVE",
"560 249 CURVE SMOOTH",
"560 393 OFFCURVE",
"446 511 OFFCURVE",
"303 511 CURVE SMOOTH",
"264 511 OFFCURVE",
"228 499 OFFCURVE",
"207 481 CURVE"
);
},
{
closed = 1;
nodes = (
"207 329 LINE",
"219 358 OFFCURVE",
"250 384 OFFCURVE",
"303 384 CURVE SMOOTH",
"366 384 OFFCURVE",
"423 326 OFFCURVE",
"423 249 CURVE SMOOTH",
"423 172 OFFCURVE",
"371 117 OFFCURVE",
"308 117 CURVE SMOOTH",
"256 117 OFFCURVE",
"221 146 OFFCURVE",
"207 176 CURVE"
);
}
);
width = 596;
}
);
leftKerningGroup = b;
note = p;
rightKerningGroup = b;
unicode = 0070;
},
{
glyphname = q;
layers = (
{
hints = (
{
horizontal = 1;
place = "{-10, 127}";
type = Stem;
},
{
horizontal = 1;
place = "{384, 127}";
type = Stem;
},
{
place = "{45, 137}";
type = Stem;
},
{
place = "{398, 137}";
type = Stem;
}
);
layerId = "3B5F2A21-9AC0-43BD-916B-7DC2040966BF";
paths = (
{
closed = 1;
nodes = (
"535 -181 LINE",
"535 508 LINE",
"398 508 LINE",
"398 481 LINE",
"377 499 OFFCURVE",
"340 511 OFFCURVE",
"302 511 CURVE SMOOTH",
"159 511 OFFCURVE",
"45 393 OFFCURVE",
"45 249 CURVE SMOOTH",
"45 106 OFFCURVE",
"153 -10 OFFCURVE",
"297 -10 CURVE SMOOTH",
"337 -10 OFFCURVE",
"371 0 OFFCURVE",
"398 17 CURVE",
"398 -181 LINE"
);
},
{
closed = 1;
nodes = (
"398 176 LINE",
"384 146 OFFCURVE",
"349 117 OFFCURVE",
"297 117 CURVE SMOOTH",
"234 117 OFFCURVE",
"182 172 OFFCURVE",
"182 249 CURVE SMOOTH",
"182 326 OFFCURVE",
"239 384 OFFCURVE",
"302 384 CURVE SMOOTH",
"355 384 OFFCURVE",
"386 358 OFFCURVE",
"398 329 CURVE"
);
}
);
width = 600;
}
);
leftKerningGroup = c;
note = q;
rightKerningGroup = a;
unicode = 0071;
},
{
glyphname = r;
layers = (
{
hints = (
{
horizontal = 1;
place = "{389, 119}";
type = Stem;
},
{
place = "{76, 137}";
type = Stem;
}
);
layerId = "3B5F2A21-9AC0-43BD-916B-7DC2040966BF";
paths = (
{
closed = 1;
nodes = (
"213 506 LINE",
"76 506 LINE",
"76 0 LINE",
"213 0 LINE",
"213 297 LINE",
"219 364 OFFCURVE",
"258 391 OFFCURVE",
"293 389 CURVE SMOOTH",
"322 388 OFFCURVE",
"339 369 OFFCURVE",
"352 349 CURVE",
"419 456 LINE",
"373 502 OFFCURVE",
"329 508 OFFCURVE",
"301 508 CURVE SMOOTH",
"264 508 OFFCURVE",
"235 490 OFFCURVE",
"213 463 CURVE"
);
}
);
width = 424;
}
);
leftKerningGroup = b;
note = r;
rightKerningGroup = r;
unicode = 0072;
},
{
glyphname = s;
layers = (
{
hints = (
{
horizontal = 1;
place = "{-4, 123}";
type = Stem;
},
{
horizontal = 1;
place = "{392, 116}";
type = Stem;
},
{
place = "{42, 137}";
type = Stem;
},
{
place = "{277, 127}";
type = Stem;
}
);
layerId = "3B5F2A21-9AC0-43BD-916B-7DC2040966BF";
paths = (
{
closed = 1;
nodes = (
"373 428 LINE",
"333 473 OFFCURVE",
"281 504 OFFCURVE",
"216 508 CURVE SMOOTH",
"119 513 OFFCURVE",
"38 442 OFFCURVE",
"42 354 CURVE SMOOTH",
"47 255 OFFCURVE",
"141 229 OFFCURVE",
"212 203 CURVE",
"246 193 OFFCURVE",
"277 183 OFFCURVE",
"277 157 CURVE SMOOTH",
"277 134 OFFCURVE",
"252 119 OFFCURVE",
"215 119 CURVE SMOOTH",
"167 119 OFFCURVE",
"141 140 OFFCURVE",
"108 185 CURVE",
"13 96 LINE",
"52 53 OFFCURVE",
"110 -4 OFFCURVE",
"215 -4 CURVE SMOOTH",
"302 -4 OFFCURVE",
"404 44 OFFCURVE",
"404 157 CURVE SMOOTH",
"404 289 OFFCURVE",
"274 317 OFFCURVE",
"238 330 CURVE SMOOTH",
"185 348 OFFCURVE",
"179 354 OFFCURVE",
"179 368 CURVE SMOOTH",
"179 380 OFFCURVE",
"189 392 OFFCURVE",
"209 392 CURVE",
"237 390 OFFCURVE",
"258 372 OFFCURVE",
"279 343 CURVE"
);
}
);
width = 431;
}
);
leftKerningGroup = scaron;
note = s;
rightKerningGroup = scaron;
unicode = 0073;
},
{
glyphname = t;
layers = (
{
hints = (
{
horizontal = 1;
place = "{-5, 114}";
type = Stem;
},
{
horizontal = 1;
place = "{394, 112}";
type = Stem;
},
{
place = "{63, 137}";
type = Stem;
}
);
layerId = "3B5F2A21-9AC0-43BD-916B-7DC2040966BF";
paths = (
{
closed = 1;
nodes = (
"289 126 LINE",
"276 115 OFFCURVE",
"261 109 OFFCURVE",
"237 109 CURVE SMOOTH",
"201 109 OFFCURVE",
"200 135 OFFCURVE",
"200 164 CURVE SMOOTH",
"200 394 LINE",
"329 394 LINE",
"329 506 LINE",
"200 506 LINE",
"200 700 LINE",
"63 700 LINE",
"63 506 LINE",
"-1 506 LINE",
"-1 394 LINE",
"63 394 LINE",
"63 125 LINE SMOOTH",
"63 68 OFFCURVE",
"92 -5 OFFCURVE",
"207 -5 CURVE SMOOTH",
"284 -5 OFFCURVE",
"321 25 OFFCURVE",
"335 38 CURVE"
);
}
);
width = 338;
}
);
leftKerningGroup = scaron;
note = t;
rightKerningGroup = t;
unicode = 0074;
},
{
glyphname = u;
layers = (
{
hints = (
{
horizontal = 1;
place = "{-5, 126}";
type = Stem;
},
{
place = "{63, 137}";
type = Stem;
},
{
place = "{368, 137}";
type = Stem;
}
);
layerId = "3B5F2A21-9AC0-43BD-916B-7DC2040966BF";
paths = (
{
closed = 1;
nodes = (
"368 0 LINE",
"505 0 LINE",
"505 506 LINE",
"368 506 LINE",
"368 197 LINE",
"360 159 OFFCURVE",
"325 121 OFFCURVE",
"279 121 CURVE SMOOTH",
"226 121 OFFCURVE",
"200 153 OFFCURVE",
"200 228 CURVE SMOOTH",
"200 506 LINE",
"63 506 LINE",
"63 228 LINE SMOOTH",
"63 86 OFFCURVE",
"147 -5 OFFCURVE",
"276 -5 CURVE SMOOTH",
"311 -5 OFFCURVE",
"342 5 OFFCURVE",
"368 22 CURVE"
);
}
);
width = 569;
}
);
leftKerningGroup = u;
note = u;
rightKerningGroup = a;
unicode = 0075;
},
{
glyphname = v;
layers = (
{
hints = (
{
horizontal = 1;
place = "{0, 506}";
type = Stem;
},
{
place = "{-15, 498}";
type = Stem;
}
);
layerId = "3B5F2A21-9AC0-43BD-916B-7DC2040966BF";
paths = (
{
closed = 1;
nodes = (
"-15 506 LINE",
"195 0 LINE",
"274 0 LINE",
"483 506 LINE",
"336 506 LINE",
"234 248 LINE",
"133 506 LINE"
);
}
);
width = 469;
}
);
leftKerningGroup = v;
note = v;
rightKerningGroup = v;
unicode = 0076;
},
{
glyphname = w;
layers = (
{
hints = (
{
horizontal = 1;
place = "{0, 506}";
type = Stem;
},
{
place = "{9, 662}";
type = Stem;
}
);
layerId = "3B5F2A21-9AC0-43BD-916B-7DC2040966BF";
paths = (
{
closed = 1;
nodes = (
"9 506 LINE",
"151 0 LINE",
"252 0 LINE",
"340 250 LINE",
"428 0 LINE",
"529 0 LINE",
"671 506 LINE",
"528 506 LINE",
"468 260 LINE",
"389 506 LINE",
"291 506 LINE",
"212 260 LINE",
"152 506 LINE"
);
}
);
width = 680;
}
);
leftKerningGroup = w;
note = w;
rightKerningGroup = w;
unicode = 0077;
},
{
glyphname = x;
layers = (
{
hints = (
{
horizontal = 1;
place = "{0, 506}";
type = Stem;
},
{
place = "{2, 605}";
type = Stem;
}
);
layerId = "3B5F2A21-9AC0-43BD-916B-7DC2040966BF";
paths = (
{
closed = 1;
nodes = (
"182 506 LINE",
"8 506 LINE",
"217 253 LINE",
"2 0 LINE",
"177 0 LINE",
"304 150 LINE",
"432 0 LINE",
"606 0 LINE",
"395 248 LINE",
"607 506 LINE",
"433 506 LINE",
"308 351 LINE"
);
}
);
width = 609;
}
);
leftKerningGroup = scaron;
note = x;
rightKerningGroup = x;
unicode = 0078;
},
{
glyphname = y;
layers = (
{
hints = (
{
horizontal = 1;
place = "{-186, 692}";
type = Stem;
},
{
place = "{9, 638}";
type = Stem;
}
);
layerId = "3B5F2A21-9AC0-43BD-916B-7DC2040966BF";
paths = (
{
closed = 1;
nodes = (
"252 86 LINE",
"93 -186 LINE",
"249 -186 LINE",
"647 506 LINE",
"492 506 LINE",
"330 219 LINE",
"166 506 LINE",
"9 506 LINE"
);
}
);
width = 653;
}
);
leftKerningGroup = yacute;
note = y;
rightKerningGroup = yacute;
unicode = 0079;
},
{
glyphname = z;
layers = (
{
hints = (
{
horizontal = 1;
place = "{0, 127}";
type = Stem;
},
{
horizontal = 1;
place = "{373, 133}";
type = Stem;
},
{
place = "{53, 436}";
type = Stem;
}
);
layerId = "3B5F2A21-9AC0-43BD-916B-7DC2040966BF";
paths = (
{
closed = 1;
nodes = (
"488 127 LINE",
"253 127 LINE",
"480 402 LINE",
"489 412 LINE",
"489 506 LINE",
"57 506 LINE",
"57 373 LINE",
"286 373 LINE",
"53 93 LINE",
"53 0 LINE",
"488 0 LINE"
);
}
);
width = 539;
}
);
leftKerningGroup = scaron;
note = z;
rightKerningGroup = zcaron;
unicode = 007A;
},
{
glyphname = Adieresis;
layers = (
{
hints = (
{
horizontal = 1;
place = "{199, 132}";
type = Stem;
},
{
horizontal = 1;
place = "{732, 138}";
type = Stem;
},
{
place = "{109, 143}";
type = Stem;
},
{
place = "{479, 143}";
type = Stem;
}
);
layerId = "3B5F2A21-9AC0-43BD-916B-7DC2040966BF";
paths = (
{
closed = 1;
nodes = (
"109 765 OFFCURVE",
"141 732 OFFCURVE",
"180 732 CURVE SMOOTH",
"219 732 OFFCURVE",
"252 765 OFFCURVE",
"252 801 CURVE SMOOTH",
"252 838 OFFCURVE",
"219 870 OFFCURVE",
"180 870 CURVE SMOOTH",
"141 870 OFFCURVE",
"109 838 OFFCURVE",
"109 801 CURVE SMOOTH"
);
},
{
closed = 1;
nodes = (
"479 765 OFFCURVE",
"512 732 OFFCURVE",
"551 732 CURVE SMOOTH",
"590 732 OFFCURVE",
"622 765 OFFCURVE",
"622 801 CURVE SMOOTH",
"622 838 OFFCURVE",
"590 870 OFFCURVE",
"551 870 CURVE SMOOTH",
"512 870 OFFCURVE",
"479 838 OFFCURVE",
"479 801 CURVE SMOOTH"
);
},
{
closed = 1;
nodes = (
"17 0 LINE",
"169 0 LINE",
"247 199 LINE",
"464 199 LINE",
"542 0 LINE",
"694 0 LINE",
"420 700 LINE",
"291 700 LINE"
);
},
{
closed = 1;
nodes = (
"413 331 LINE",
"299 331 LINE",
"356 477 LINE"
);
}
);
width = 703;
}
);
leftKerningGroup = scaron;
note = Adieresis;
rightKerningGroup = A;
unicode = 00C4;
},
{
glyphname = Aring;
layers = (
{
hints = (
{
horizontal = 1;
place = "{199, 132}";
type = Stem;
},
{
horizontal = 1;
place = "{857, 82}";
type = Stem;
},
{
place = "{221, 88}";
type = Stem;
},
{
place = "{403, 88}";
type = Stem;
}
);
layerId = "3B5F2A21-9AC0-43BD-916B-7DC2040966BF";
paths = (
{
closed = 1;
nodes = (
"464 199 LINE",
"542 0 LINE",
"694 0 LINE",
"424 691 LINE",
"464 714 OFFCURVE",
"491 757 OFFCURVE",
"491 806 CURVE SMOOTH",
"491 879 OFFCURVE",
"431 939 OFFCURVE",
"356 939 CURVE SMOOTH",
"281 939 OFFCURVE",
"221 879 OFFCURVE",
"221 806 CURVE SMOOTH",
"221 757 OFFCURVE",
"248 714 OFFCURVE",
"288 691 CURVE",
"17 0 LINE",
"169 0 LINE",
"247 199 LINE"
);
},
{
closed = 1;
nodes = (
"381 857 OFFCURVE",
"403 835 OFFCURVE",
"403 806 CURVE SMOOTH",
"403 777 OFFCURVE",
"381 756 OFFCURVE",
"356 756 CURVE SMOOTH",
"331 756 OFFCURVE",
"309 777 OFFCURVE",
"309 806 CURVE SMOOTH",
"309 835 OFFCURVE",
"331 857 OFFCURVE",
"356 857 CURVE SMOOTH"
);
},
{
closed = 1;
nodes = (
"299 331 LINE",
"356 477 LINE",
"413 331 LINE"
);
}
);
width = 703;
}
);
leftKerningGroup = scaron;
note = Aring;
rightKerningGroup = A;
unicode = 00C5;
},
{
glyphname = Ccedilla;
layers = (
{
hints = (
{
horizontal = 1;
place = "{-2, 132}";
type = Stem;
},
{
horizontal = 1;
place = "{569, 132}";
type = Stem;
},
{
place = "{38, 143}";
type = Stem;
}
);
layerId = "3B5F2A21-9AC0-43BD-916B-7DC2040966BF";
paths = (
{
closed = 1;
nodes = (
"549 248 LINE",
"505 170 OFFCURVE",
"448 130 OFFCURVE",
"375 130 CURVE SMOOTH",
"272 130 OFFCURVE",
"181 226 OFFCURVE",
"181 350 CURVE SMOOTH",
"181 464 OFFCURVE",
"263 569 OFFCURVE",
"375 569 CURVE SMOOTH",
"444 569 OFFCURVE",
"498 534 OFFCURVE",
"543 463 CURVE",
"654 546 LINE",
"601 634 OFFCURVE",
"490 701 OFFCURVE",
"375 701 CURVE SMOOTH",
"169 701 OFFCURVE",
"38 525 OFFCURVE",
"38 350 CURVE SMOOTH",
"38 157 OFFCURVE",
"188 -2 OFFCURVE",
"375 -2 CURVE SMOOTH",
"498 -2 OFFCURVE",
"613 74 OFFCURVE",
"665 172 CURVE"
);
},
{
closed = 1;
nodes = (
"425 -67 LINE",
"336 -6 LINE",
"237 -151 LINE",
"327 -212 LINE"
);
}
);
width = 695;
}
);
leftKerningGroup = C;
note = Ccedilla;
rightKerningGroup = quotesingle;
unicode = 00C7;
},
{
glyphname = Eacute;
layers = (
{
hints = (
{
horizontal = 1;
place = "{0, 132}";
type = Stem;
},
{
horizontal = 1;
place = "{287, 132}";
type = Stem;
},
{
horizontal = 1;
place = "{568, 132}";
type = Stem;
},
{
place = "{70, 143}";
type = Stem;
}
);
layerId = "3B5F2A21-9AC0-43BD-916B-7DC2040966BF";
paths = (
{
closed = 1;
nodes = (
"438 810 LINE",
"404 924 LINE",
"207 815 LINE",
"233 730 LINE"
);
},
{
closed = 1;
nodes = (
"70 700 LINE",
"70 0 LINE",
"555 0 LINE",
"555 132 LINE",
"213 132 LINE",
"213 287 LINE",
"488 287 LINE",
"488 419 LINE",
"213 419 LINE",
"213 568 LINE",
"554 568 LINE",
"554 700 LINE"
);
}
);
width = 600;
}
);
leftKerningGroup = B;
note = Eacute;
rightKerningGroup = E;
unicode = 00C9;
},
{
glyphname = Ntilde;
layers = (
{
hints = (
{
horizontal = 1;
place = "{756, 85.36}";
type = Stem;
},
{
place = "{201.81, 85.19}";
type = Stem;
},
{
place = "{421.5, 90.32}";
type = Stem;
},
{
place = "{75, 143}";
type = Stem;
},
{
place = "{506, 143}";
type = Stem;
}
);
layerId = "3B5F2A21-9AC0-43BD-916B-7DC2040966BF";
paths = (
{
closed = 1;
nodes = (
"413 893 LINE",
"419 879 OFFCURVE",
"429 856 OFFCURVE",
"415 845 CURVE SMOOTH",
"389 826 OFFCURVE",
"343 887 OFFCURVE",
"286 887 CURVE SMOOTH",
"217 887 OFFCURVE",
"194 820 OFFCURVE",
"204 774 CURVE",
"287 750 LINE",
"283 766 OFFCURVE",
"287 789 OFFCURVE",
"300 794 CURVE",
"329 804 OFFCURVE",
"355 756 OFFCURVE",
"418 756 CURVE SMOOTH",
"472 756 OFFCURVE",
"534 806 OFFCURVE",
"504 893 CURVE"
);
},
{
closed = 1;
nodes = (
"218 0 LINE",
"218 437 LINE",
"519 0 LINE",
"649 0 LINE",
"649 700 LINE",
"506 700 LINE",
"506 265 LINE",
"207 700 LINE",
"75 700 LINE",
"75 0 LINE"
);
}
);
width = 725;
}
);
leftKerningGroup = B;
note = Ntilde;
rightKerningGroup = quotesingle;
unicode = 00D1;
},
{
glyphname = Odieresis;
layers = (
{
hints = (
{
horizontal = 1;
place = "{0, 132}";
type = Stem;
},
{
horizontal = 1;
place = "{570, 132}";
type = Stem;
},
{
horizontal = 1;
place = "{722, 138}";
type = Stem;
},
{
place = "{48, 143}";
type = Stem;
},
{
place = "{600, 143}";
type = Stem;
},
{
place = "{45, 143}";
type = Stem;
},
{
place = "{610, 143}";
type = Stem;
}
);
layerId = "3B5F2A21-9AC0-43BD-916B-7DC2040966BF";
paths = (
{
closed = 1;
nodes = (
"48 755 OFFCURVE",
"80 722 OFFCURVE",
"119 722 CURVE SMOOTH",
"158 722 OFFCURVE",
"191 755 OFFCURVE",
"191 791 CURVE SMOOTH",
"191 827 OFFCURVE",
"158 860 OFFCURVE",
"119 860 CURVE SMOOTH",
"80 860 OFFCURVE",
"48 827 OFFCURVE",
"48 791 CURVE SMOOTH"
);
},
{
closed = 1;
nodes = (
"600 755 OFFCURVE",
"633 722 OFFCURVE",
"671 722 CURVE SMOOTH",
"710 722 OFFCURVE",
"743 755 OFFCURVE",
"743 791 CURVE SMOOTH",
"743 827 OFFCURVE",
"710 860 OFFCURVE",
"671 860 CURVE SMOOTH",
"633 860 OFFCURVE",
"600 827 OFFCURVE",
"600 791 CURVE SMOOTH"
);
},
{
closed = 1;
nodes = (
"199 702 OFFCURVE",
"45 542 OFFCURVE",
"45 351 CURVE SMOOTH",
"45 158 OFFCURVE",
"203 0 OFFCURVE",
"399 0 CURVE SMOOTH",
"569 0 OFFCURVE",
"753 130 OFFCURVE",
"753 351 CURVE SMOOTH",
"753 545 OFFCURVE",
"595 702 OFFCURVE",
"399 702 CURVE SMOOTH"
);
},
{
closed = 1;
nodes = (
"513 570 OFFCURVE",
"610 474 OFFCURVE",
"610 351 CURVE SMOOTH",
"610 214 OFFCURVE",
"501 132 OFFCURVE",
"399 132 CURVE SMOOTH",
"284 132 OFFCURVE",
"188 229 OFFCURVE",
"188 351 CURVE SMOOTH",
"188 472 OFFCURVE",
"283 570 OFFCURVE",
"399 570 CURVE SMOOTH"
);
}
);
width = 798;
}
);
leftKerningGroup = C;
note = Odieresis;
rightKerningGroup = O;
unicode = 00D6;
},
{
glyphname = Udieresis;
layers = (
{
hints = (
{
horizontal = 1;
place = "{-9, 132}";
type = Stem;
},
{
horizontal = 1;
place = "{732, 138}";
type = Stem;
},
{
place = "{67, 143}";
type = Stem;
},
{
place = "{476, 143}";
type = Stem;
},
{
place = "{94, 143}";
type = Stem;
},
{
place = "{464, 143}";
type = Stem;
}
);
layerId = "3B5F2A21-9AC0-43BD-916B-7DC2040966BF";
paths = (
{
closed = 1;
nodes = (
"94 765 OFFCURVE",
"127 732 OFFCURVE",
"165 732 CURVE SMOOTH",
"204 732 OFFCURVE",
"237 765 OFFCURVE",
"237 801 CURVE SMOOTH",
"237 838 OFFCURVE",
"204 870 OFFCURVE",
"165 870 CURVE SMOOTH",
"127 870 OFFCURVE",
"94 838 OFFCURVE",
"94 801 CURVE SMOOTH"
);
},
{
closed = 1;
nodes = (
"464 765 OFFCURVE",
"497 732 OFFCURVE",
"536 732 CURVE SMOOTH",
"575 732 OFFCURVE",
"607 765 OFFCURVE",
"607 801 CURVE SMOOTH",
"607 838 OFFCURVE",
"575 870 OFFCURVE",
"536 870 CURVE SMOOTH",
"497 870 OFFCURVE",
"464 838 OFFCURVE",
"464 801 CURVE SMOOTH"
);
},
{
closed = 1;
nodes = (
"210 699 LINE",
"67 699 LINE",
"67 278 LINE",
"67 279 OFFCURVE",
"56 1 OFFCURVE",
"333 -9 CURVE",
"353 -9 LINE",
"629 1 OFFCURVE",
"619 279 OFFCURVE",
"619 279 CURVE",
"619 699 LINE",
"476 699 LINE",
"476 260 LINE",
"472 219 OFFCURVE",
"455 128 OFFCURVE",
"350 123 CURVE",
"336 123 LINE",
"215 129 OFFCURVE",
"210 249 OFFCURVE",
"210 274 CURVE SMOOTH"
);
}
);
width = 671;
}
);
leftKerningGroup = U;
note = Udieresis;
rightKerningGroup = U;
unicode = 00DC;
},
{
glyphname = aacute;
layers = (
{
hints = (
{
horizontal = 1;
place = "{-5, 126}";
type = Stem;
},
{
horizontal = 1;
place = "{220, 99}";
type = Stem;
},
{
horizontal = 1;
place = "{392, 117}";
type = Stem;
},
{
place = "{37, 127}";
type = Stem;
},
{
place = "{324, 137}";
type = Stem;
}
);
layerId = "3B5F2A21-9AC0-43BD-916B-7DC2040966BF";
paths = (
{
closed = 1;
nodes = (
"375 618 LINE",
"342 732 LINE",
"144 623 LINE",
"170 538 LINE"
);
},
{
closed = 1;
nodes = (
"159 323 LINE",
"188 365 OFFCURVE",
"217 392 OFFCURVE",
"262 392 CURVE SMOOTH",
"301 392 OFFCURVE",
"324 361 OFFCURVE",
"324 319 CURVE SMOOTH",
"324 308 LINE",
"302 314 OFFCURVE",
"270 319 OFFCURVE",
"239 319 CURVE SMOOTH",
"133 319 OFFCURVE",
"37 279 OFFCURVE",
"37 153 CURVE SMOOTH",
"37 82 OFFCURVE",
"91 -5 OFFCURVE",
"213 -5 CURVE SMOOTH",
"272 -5 OFFCURVE",
"306 15 OFFCURVE",
"324 36 CURVE",
"324 0 LINE",
"461 0 LINE",
"461 319 LINE SMOOTH",
"461 434 OFFCURVE",
"371 509 OFFCURVE",
"262 509 CURVE SMOOTH",
"165 509 OFFCURVE",
"103 459 OFFCURVE",
"66 407 CURVE"
);
},
{
closed = 1;
nodes = (
"282 220 OFFCURVE",
"306 217 OFFCURVE",
"324 212 CURVE",
"320 158 OFFCURVE",
"281 121 OFFCURVE",
"217 121 CURVE SMOOTH",
"180 121 OFFCURVE",
"164 141 OFFCURVE",
"164 161 CURVE SMOOTH",
"164 204 OFFCURVE",
"201 220 OFFCURVE",
"263 220 CURVE SMOOTH"
);
}
);
width = 506;
}
);
leftKerningGroup = a;
note = aacute;
rightKerningGroup = a;
unicode = 00E1;
},
{
glyphname = agrave;
layers = (
{
hints = (
{
horizontal = 1;
place = "{-5, 126}";
type = Stem;
},
{
horizontal = 1;
place = "{220, 99}";
type = Stem;
},
{
horizontal = 1;
place = "{392, 117}";
type = Stem;
},
{
place = "{37, 127}";
type = Stem;
},
{
place = "{324, 137}";
type = Stem;
}
);
layerId = "3B5F2A21-9AC0-43BD-916B-7DC2040966BF";
paths = (
{
closed = 1;
nodes = (
"373 623 LINE",
"175 732 LINE",
"141 618 LINE",
"347 538 LINE"
);
},
{
closed = 1;
nodes = (
"159 323 LINE",
"188 365 OFFCURVE",
"217 392 OFFCURVE",
"262 392 CURVE SMOOTH",
"301 392 OFFCURVE",
"324 361 OFFCURVE",
"324 319 CURVE SMOOTH",
"324 308 LINE",
"302 314 OFFCURVE",
"270 319 OFFCURVE",
"239 319 CURVE SMOOTH",
"133 319 OFFCURVE",
"37 279 OFFCURVE",
"37 153 CURVE SMOOTH",
"37 82 OFFCURVE",
"91 -5 OFFCURVE",
"213 -5 CURVE SMOOTH",
"272 -5 OFFCURVE",
"306 15 OFFCURVE",
"324 36 CURVE",
"324 0 LINE",
"461 0 LINE",
"461 319 LINE SMOOTH",
"461 434 OFFCURVE",
"371 509 OFFCURVE",
"262 509 CURVE SMOOTH",
"165 509 OFFCURVE",
"103 459 OFFCURVE",
"66 407 CURVE"
);
},
{
closed = 1;
nodes = (
"282 220 OFFCURVE",
"306 217 OFFCURVE",
"324 212 CURVE",
"320 158 OFFCURVE",
"281 121 OFFCURVE",
"217 121 CURVE SMOOTH",
"180 121 OFFCURVE",
"164 141 OFFCURVE",
"164 161 CURVE SMOOTH",
"164 204 OFFCURVE",
"201 220 OFFCURVE",
"263 220 CURVE SMOOTH"
);
}
);
width = 506;
}
);
leftKerningGroup = a;
note = agrave;
rightKerningGroup = a;
unicode = 00E0;
},
{
glyphname = acircumflex;
layers = (
{
hints = (
{
horizontal = 1;
place = "{-5, 126}";
type = Stem;
},
{
horizontal = 1;
place = "{220, 99}";
type = Stem;
},
{
horizontal = 1;
place = "{392, 117}";
type = Stem;
},
{
place = "{37, 127}";
type = Stem;
},
{
place = "{324, 137}";
type = Stem;
}
);
layerId = "3B5F2A21-9AC0-43BD-916B-7DC2040966BF";
paths = (
{
closed = 1;
nodes = (
"252 612 LINE",
"403 553 LINE",
"429 639 LINE",
"252 738 LINE",
"75 639 LINE",
"101 553 LINE"
);
},
{
closed = 1;
nodes = (
"159 323 LINE",
"188 365 OFFCURVE",
"217 392 OFFCURVE",
"262 392 CURVE SMOOTH",
"301 392 OFFCURVE",
"324 361 OFFCURVE",
"324 319 CURVE SMOOTH",
"324 308 LINE",
"302 314 OFFCURVE",
"270 319 OFFCURVE",
"239 319 CURVE SMOOTH",
"133 319 OFFCURVE",
"37 279 OFFCURVE",
"37 153 CURVE SMOOTH",
"37 82 OFFCURVE",
"91 -5 OFFCURVE",
"213 -5 CURVE SMOOTH",
"272 -5 OFFCURVE",
"306 15 OFFCURVE",
"324 36 CURVE",
"324 0 LINE",
"461 0 LINE",
"461 319 LINE SMOOTH",
"461 434 OFFCURVE",
"371 509 OFFCURVE",
"262 509 CURVE SMOOTH",
"165 509 OFFCURVE",
"103 459 OFFCURVE",
"66 407 CURVE"
);
},
{
closed = 1;
nodes = (
"282 220 OFFCURVE",
"306 217 OFFCURVE",
"324 212 CURVE",
"320 158 OFFCURVE",
"281 121 OFFCURVE",
"217 121 CURVE SMOOTH",
"180 121 OFFCURVE",
"164 141 OFFCURVE",
"164 161 CURVE SMOOTH",
"164 204 OFFCURVE",
"201 220 OFFCURVE",
"263 220 CURVE SMOOTH"
);
}
);
width = 506;
}
);
leftKerningGroup = a;
note = acircumflex;
rightKerningGroup = a;
unicode = 00E2;
},
{
glyphname = adieresis;
layers = (
{
hints = (
{
horizontal = 1;
place = "{-5, 126}";
type = Stem;
},
{
horizontal = 1;
place = "{220, 99}";
type = Stem;
},
{
horizontal = 1;
place = "{392, 117}";
type = Stem;
},
{
horizontal = 1;
place = "{540, 138}";
type = Stem;
},
{
place = "{5, 143}";
type = Stem;
},
{
place = "{324, 137}";
type = Stem;
},
{
place = "{376, 143}";
type = Stem;
},
{
place = "{37, 127}";
type = Stem;
}
);
layerId = "3B5F2A21-9AC0-43BD-916B-7DC2040966BF";
paths = (
{
closed = 1;
nodes = (
"5 573 OFFCURVE",
"38 540 OFFCURVE",
"77 540 CURVE SMOOTH",
"116 540 OFFCURVE",
"148 573 OFFCURVE",
"148 609 CURVE SMOOTH",
"148 646 OFFCURVE",
"116 678 OFFCURVE",
"77 678 CURVE SMOOTH",
"38 678 OFFCURVE",
"5 646 OFFCURVE",
"5 609 CURVE SMOOTH"
);
},
{
closed = 1;
nodes = (
"376 573 OFFCURVE",
"408 540 OFFCURVE",
"447 540 CURVE SMOOTH",
"486 540 OFFCURVE",
"519 573 OFFCURVE",
"519 609 CURVE SMOOTH",
"519 646 OFFCURVE",
"486 678 OFFCURVE",
"447 678 CURVE SMOOTH",
"408 678 OFFCURVE",
"376 646 OFFCURVE",
"376 609 CURVE SMOOTH"
);
},
{
closed = 1;
nodes = (
"159 323 LINE",
"188 365 OFFCURVE",
"217 392 OFFCURVE",
"262 392 CURVE SMOOTH",
"301 392 OFFCURVE",
"324 361 OFFCURVE",
"324 319 CURVE SMOOTH",
"324 308 LINE",
"302 314 OFFCURVE",
"270 319 OFFCURVE",
"239 319 CURVE SMOOTH",
"133 319 OFFCURVE",
"37 279 OFFCURVE",
"37 153 CURVE SMOOTH",
"37 82 OFFCURVE",
"91 -5 OFFCURVE",
"213 -5 CURVE SMOOTH",
"272 -5 OFFCURVE",
"306 15 OFFCURVE",
"324 36 CURVE",
"324 0 LINE",
"461 0 LINE",
"461 319 LINE SMOOTH",
"461 434 OFFCURVE",
"371 509 OFFCURVE",
"262 509 CURVE SMOOTH",
"165 509 OFFCURVE",
"103 459 OFFCURVE",
"66 407 CURVE"
);
},
{
closed = 1;
nodes = (
"282 220 OFFCURVE",
"306 217 OFFCURVE",
"324 212 CURVE",
"320 158 OFFCURVE",
"281 121 OFFCURVE",
"217 121 CURVE SMOOTH",
"180 121 OFFCURVE",
"164 141 OFFCURVE",
"164 161 CURVE SMOOTH",
"164 204 OFFCURVE",
"201 220 OFFCURVE",
"263 220 CURVE SMOOTH"
);
}
);
width = 506;
}
);
leftKerningGroup = a;
note = adieresis;
rightKerningGroup = a;
unicode = 00E4;
},
{
glyphname = atilde;
layers = (
{
hints = (
{
horizontal = 1;
place = "{-5, 126}";
type = Stem;
},
{
horizontal = 1;
place = "{220, 99}";
type = Stem;
},
{
horizontal = 1;
place = "{392, 117}";
type = Stem;
},
{
horizontal = 1;
place = "{564, 85.36}";
type = Stem;
},
{
place = "{92.48, 83.45}";
type = Stem;
},
{
place = "{311.5, 90.85}";
type = Stem;
},
{
place = "{324, 137}";
type = Stem;
},
{
place = "{37, 127}";
type = Stem;
}
);
layerId = "3B5F2A21-9AC0-43BD-916B-7DC2040966BF";
paths = (
{
closed = 1;
nodes = (
"303 702 LINE",
"309 687 OFFCURVE",
"319 664 OFFCURVE",
"305 653 CURVE SMOOTH",
"279 634 OFFCURVE",
"233 695 OFFCURVE",
"177 695 CURVE SMOOTH",
"107 695 OFFCURVE",
"84 628 OFFCURVE",
"95 582 CURVE",
"178 558 LINE",
"173 574 OFFCURVE",
"177 597 OFFCURVE",
"190 602 CURVE",
"220 612 OFFCURVE",
"245 564 OFFCURVE",
"308 564 CURVE SMOOTH",
"362 564 OFFCURVE",
"424 614 OFFCURVE",
"395 702 CURVE"
);
},
{
closed = 1;
nodes = (
"159 323 LINE",
"188 365 OFFCURVE",
"217 392 OFFCURVE",
"262 392 CURVE SMOOTH",
"301 392 OFFCURVE",
"324 361 OFFCURVE",
"324 319 CURVE SMOOTH",
"324 308 LINE",
"302 314 OFFCURVE",
"270 319 OFFCURVE",
"239 319 CURVE SMOOTH",
"133 319 OFFCURVE",
"37 279 OFFCURVE",
"37 153 CURVE SMOOTH",
"37 82 OFFCURVE",
"91 -5 OFFCURVE",
"213 -5 CURVE SMOOTH",
"272 -5 OFFCURVE",
"306 15 OFFCURVE",
"324 36 CURVE",
"324 0 LINE",
"461 0 LINE",
"461 319 LINE SMOOTH",
"461 434 OFFCURVE",
"371 509 OFFCURVE",
"262 509 CURVE SMOOTH",
"165 509 OFFCURVE",
"103 459 OFFCURVE",
"66 407 CURVE"
);
},
{
closed = 1;
nodes = (
"282 220 OFFCURVE",
"306 217 OFFCURVE",
"324 212 CURVE",
"320 158 OFFCURVE",
"281 121 OFFCURVE",
"217 121 CURVE SMOOTH",
"180 121 OFFCURVE",
"164 141 OFFCURVE",
"164 161 CURVE SMOOTH",
"164 204 OFFCURVE",
"201 220 OFFCURVE",
"263 220 CURVE SMOOTH"
);
}
);
width = 506;
}
);
leftKerningGroup = a;
note = atilde;
rightKerningGroup = a;
unicode = 00E3;
},
{
glyphname = aring;
layers = (
{
hints = (
{
horizontal = 1;
place = "{-5, 126}";
type = Stem;
},
{
horizontal = 1;
place = "{220, 99}";
type = Stem;
},
{
horizontal = 1;
place = "{392, 172}";
type = Stem;
},
{
horizontal = 1;
place = "{665, 82}";
type = Stem;
},
{
place = "{37, 127}";
type = Stem;
},
{
place = "{324, 137}";
type = Stem;
},
{
place = "{117, 88}";
type = Stem;
},
{
place = "{300, 87}";
type = Stem;
}
);
layerId = "3B5F2A21-9AC0-43BD-916B-7DC2040966BF";
paths = (
{
closed = 1;
nodes = (
"159 323 LINE",
"188 365 OFFCURVE",
"217 392 OFFCURVE",
"262 392 CURVE SMOOTH",
"301 392 OFFCURVE",
"324 361 OFFCURVE",
"324 319 CURVE SMOOTH",
"324 308 LINE",
"302 314 OFFCURVE",
"270 319 OFFCURVE",
"239 319 CURVE SMOOTH",
"133 319 OFFCURVE",
"37 279 OFFCURVE",
"37 153 CURVE SMOOTH",
"37 82 OFFCURVE",
"91 -5 OFFCURVE",
"213 -5 CURVE SMOOTH",
"272 -5 OFFCURVE",
"306 15 OFFCURVE",
"324 36 CURVE",
"324 0 LINE",
"461 0 LINE",
"461 319 LINE SMOOTH",
"461 412 OFFCURVE",
"402 478 OFFCURVE",
"323 501 CURVE",
"362 524 OFFCURVE",
"387 566 OFFCURVE",
"387 614 CURVE SMOOTH",
"387 687 OFFCURVE",
"327 747 OFFCURVE",
"252 747 CURVE SMOOTH",
"177 747 OFFCURVE",
"117 687 OFFCURVE",
"117 614 CURVE SMOOTH",
"117 564 OFFCURVE",
"145 520 OFFCURVE",
"187 498 CURVE",
"131 480 OFFCURVE",
"92 444 OFFCURVE",
"66 407 CURVE"
);
},
{
closed = 1;
nodes = (
"278 665 OFFCURVE",
"300 643 OFFCURVE",
"300 614 CURVE SMOOTH",
"300 586 OFFCURVE",
"278 564 OFFCURVE",
"252 564 CURVE SMOOTH",
"227 564 OFFCURVE",
"205 586 OFFCURVE",
"205 614 CURVE SMOOTH",
"205 643 OFFCURVE",
"227 665 OFFCURVE",
"252 665 CURVE SMOOTH"
);
},
{
closed = 1;
nodes = (
"180 121 OFFCURVE",
"164 141 OFFCURVE",
"164 161 CURVE SMOOTH",
"164 204 OFFCURVE",
"201 220 OFFCURVE",
"263 220 CURVE SMOOTH",
"282 220 OFFCURVE",
"306 217 OFFCURVE",
"324 212 CURVE",
"320 158 OFFCURVE",
"281 121 OFFCURVE",
"217 121 CURVE SMOOTH"
);
}
);
width = 506;
}
);
leftKerningGroup = a;
note = aring;
rightKerningGroup = a;
unicode = 00E5;
},
{
glyphname = ccedilla;
layers = (
{
hints = (
{
horizontal = 1;
place = "{-9, 126}";
type = Stem;
},
{
horizontal = 1;
place = "{388, 127}";
type = Stem;
},
{
place = "{32, 137}";
type = Stem;
}
);
layerId = "3B5F2A21-9AC0-43BD-916B-7DC2040966BF";
paths = (
{
closed = 1;
nodes = (
"413 191 LINE",
"388 140 OFFCURVE",
"344 117 OFFCURVE",
"296 117 CURVE SMOOTH",
"228 117 OFFCURVE",
"169 176 OFFCURVE",
"169 253 CURVE SMOOTH",
"169 326 OFFCURVE",
"227 388 OFFCURVE",
"296 388 CURVE SMOOTH",
"340 388 OFFCURVE",
"383 368 OFFCURVE",
"408 322 CURVE",
"504 413 LINE",
"464 470 OFFCURVE",
"380 515 OFFCURVE",
"296 515 CURVE SMOOTH",
"145 515 OFFCURVE",
"32 391 OFFCURVE",
"32 253 CURVE SMOOTH",
"32 122 OFFCURVE",
"129 13 OFFCURVE",
"256 -6 CURVE",
"161 -146 LINE",
"250 -207 LINE",
"349 -62 LINE",
"268 -7 LINE",
"277 -8 OFFCURVE",
"286 -9 OFFCURVE",
"296 -9 CURVE SMOOTH",
"386 -9 OFFCURVE",
"475 42 OFFCURVE",
"515 108 CURVE"
);
}
);
width = 514;
}
);
leftKerningGroup = c;
note = ccedilla;
rightKerningGroup = c;
unicode = 00E7;
},
{
glyphname = eacute;
layers = (
{
hints = (
{
horizontal = 1;
place = "{-11, 123}";
type = Stem;
},
{
horizontal = 1;
place = "{219, 108}";
type = Stem;
},
{
horizontal = 1;
place = "{402, 111}";
type = Stem;
},
{
place = "{35, 137}";
type = Stem;
},
{
place = "{377, 129.53}";
type = Stem;
}
);
layerId = "3B5F2A21-9AC0-43BD-916B-7DC2040966BF";
paths = (
{
closed = 1;
nodes = (
"412 623 LINE",
"379 737 LINE",
"181 628 LINE",
"207 542 LINE"
);
},
{
closed = 1;
nodes = (
"402 191 LINE",
"389 147 OFFCURVE",
"349 112 OFFCURVE",
"290 112 CURVE SMOOTH",
"221 112 OFFCURVE",
"172 147 OFFCURVE",
"172 219 CURVE",
"501 219 LINE",
"517 329 OFFCURVE",
"497 390 OFFCURVE",
"459 437 CURVE SMOOTH",
"421 483 OFFCURVE",
"363 513 OFFCURVE",
"289 513 CURVE SMOOTH",
"120 513 OFFCURVE",
"35 379 OFFCURVE",
"35 251 CURVE SMOOTH",
"35 123 OFFCURVE",
"118 -11 OFFCURVE",
"290 -11 CURVE SMOOTH",
"395 -11 OFFCURVE",
"466 40 OFFCURVE",
"506 107 CURVE"
);
},
{
closed = 1;
nodes = (
"184 327 LINE",
"196 369 OFFCURVE",
"233 402 OFFCURVE",
"289 402 CURVE SMOOTH",
"341 402 OFFCURVE",
"380 359 OFFCURVE",
"377 327 CURVE"
);
}
);
width = 555;
}
);
leftKerningGroup = c;
note = eacute;
rightKerningGroup = e;
unicode = 00E9;
},
{
glyphname = egrave;
layers = (
{
hints = (
{
horizontal = 1;
place = "{-11, 123}";
type = Stem;
},
{
horizontal = 1;
place = "{219, 108}";
type = Stem;
},
{
horizontal = 1;
place = "{402, 111}";
type = Stem;
},
{
place = "{35, 137}";
type = Stem;
},
{
place = "{377, 129.53}";
type = Stem;
}
);
layerId = "3B5F2A21-9AC0-43BD-916B-7DC2040966BF";
paths = (
{
closed = 1;
nodes = (
"410 628 LINE",
"212 737 LINE",
"178 623 LINE",
"384 542 LINE"
);
},
{
closed = 1;
nodes = (
"402 191 LINE",
"389 147 OFFCURVE",
"349 112 OFFCURVE",
"290 112 CURVE SMOOTH",
"221 112 OFFCURVE",
"172 147 OFFCURVE",
"172 219 CURVE",
"501 219 LINE",
"517 329 OFFCURVE",
"497 390 OFFCURVE",
"459 437 CURVE SMOOTH",
"421 483 OFFCURVE",
"363 513 OFFCURVE",
"289 513 CURVE SMOOTH",
"120 513 OFFCURVE",
"35 379 OFFCURVE",
"35 251 CURVE SMOOTH",
"35 123 OFFCURVE",
"118 -11 OFFCURVE",
"290 -11 CURVE SMOOTH",
"395 -11 OFFCURVE",
"466 40 OFFCURVE",
"506 107 CURVE"
);
},
{
closed = 1;
nodes = (
"184 327 LINE",
"196 369 OFFCURVE",
"233 402 OFFCURVE",
"289 402 CURVE SMOOTH",
"341 402 OFFCURVE",
"380 359 OFFCURVE",
"377 327 CURVE"
);
}
);
width = 555;
}
);
leftKerningGroup = c;
note = egrave;
rightKerningGroup = e;
unicode = 00E8;
},
{
glyphname = ecircumflex;
layers = (
{
hints = (
{
horizontal = 1;
place = "{-11, 123}";
type = Stem;
},
{
horizontal = 1;
place = "{219, 108}";
type = Stem;
},
{
horizontal = 1;
place = "{402, 111}";
type = Stem;
},
{
place = "{35, 137}";
type = Stem;
},
{
place = "{377, 129.53}";
type = Stem;
}
);
layerId = "3B5F2A21-9AC0-43BD-916B-7DC2040966BF";
paths = (
{
closed = 1;
nodes = (
"289 617 LINE",
"440 558 LINE",
"466 643 LINE",
"289 743 LINE",
"112 643 LINE",
"138 558 LINE"
);
},
{
closed = 1;
nodes = (
"402 191 LINE",
"389 147 OFFCURVE",
"349 112 OFFCURVE",
"290 112 CURVE SMOOTH",
"221 112 OFFCURVE",
"172 147 OFFCURVE",
"172 219 CURVE",
"501 219 LINE",
"517 329 OFFCURVE",
"497 390 OFFCURVE",
"459 437 CURVE SMOOTH",
"421 483 OFFCURVE",
"363 513 OFFCURVE",
"289 513 CURVE SMOOTH",
"120 513 OFFCURVE",
"35 379 OFFCURVE",
"35 251 CURVE SMOOTH",
"35 123 OFFCURVE",
"118 -11 OFFCURVE",
"290 -11 CURVE SMOOTH",
"395 -11 OFFCURVE",
"466 40 OFFCURVE",
"506 107 CURVE"
);
},
{
closed = 1;
nodes = (
"184 327 LINE",
"196 369 OFFCURVE",
"233 402 OFFCURVE",
"289 402 CURVE SMOOTH",
"341 402 OFFCURVE",
"380 359 OFFCURVE",
"377 327 CURVE"
);
}
);
width = 555;
}
);
leftKerningGroup = c;
note = ecircumflex;
rightKerningGroup = e;
unicode = 00EA;
},
{
glyphname = edieresis;
layers = (
{
hints = (
{
horizontal = 1;
place = "{-11, 123}";
type = Stem;
},
{
horizontal = 1;
place = "{219, 108}";
type = Stem;
},
{
horizontal = 1;
place = "{402, 111}";
type = Stem;
},
{
horizontal = 1;
place = "{545, 138}";
type = Stem;
},
{
place = "{42, 143}";
type = Stem;
},
{
place = "{413, 143}";
type = Stem;
},
{
place = "{35, 137}";
type = Stem;
},
{
place = "{377, 129.53}";
type = Stem;
}
);
layerId = "3B5F2A21-9AC0-43BD-916B-7DC2040966BF";
paths = (
{
closed = 1;
nodes = (
"42 578 OFFCURVE",
"75 545 OFFCURVE",
"114 545 CURVE SMOOTH",
"153 545 OFFCURVE",
"185 578 OFFCURVE",
"185 614 CURVE SMOOTH",
"185 650 OFFCURVE",
"153 683 OFFCURVE",
"114 683 CURVE SMOOTH",
"75 683 OFFCURVE",
"42 650 OFFCURVE",
"42 614 CURVE SMOOTH"
);
},
{
closed = 1;
nodes = (
"413 578 OFFCURVE",
"445 545 OFFCURVE",
"484 545 CURVE SMOOTH",
"523 545 OFFCURVE",
"556 578 OFFCURVE",
"556 614 CURVE SMOOTH",
"556 650 OFFCURVE",
"523 683 OFFCURVE",
"484 683 CURVE SMOOTH",
"445 683 OFFCURVE",
"413 650 OFFCURVE",
"413 614 CURVE SMOOTH"
);
},
{
closed = 1;
nodes = (
"402 191 LINE",
"389 147 OFFCURVE",
"349 112 OFFCURVE",
"290 112 CURVE SMOOTH",
"221 112 OFFCURVE",
"172 147 OFFCURVE",
"172 219 CURVE",
"501 219 LINE",
"517 329 OFFCURVE",
"497 390 OFFCURVE",
"459 437 CURVE SMOOTH",
"421 483 OFFCURVE",
"363 513 OFFCURVE",
"289 513 CURVE SMOOTH",
"120 513 OFFCURVE",
"35 379 OFFCURVE",
"35 251 CURVE SMOOTH",
"35 123 OFFCURVE",
"118 -11 OFFCURVE",
"290 -11 CURVE SMOOTH",
"395 -11 OFFCURVE",
"466 40 OFFCURVE",
"506 107 CURVE"
);
},
{
closed = 1;
nodes = (
"184 327 LINE",
"196 369 OFFCURVE",
"233 402 OFFCURVE",
"289 402 CURVE SMOOTH",
"341 402 OFFCURVE",
"380 359 OFFCURVE",
"377 327 CURVE"
);
}
);
width = 555;
}
);
leftKerningGroup = c;
note = edieresis;
rightKerningGroup = e;
unicode = 00EB;
},
{
glyphname = iacute;
layers = (
{
hints = (
{
horizontal = 1;
place = "{0, 729}";
type = Stem;
},
{
place = "{64, 137}";
type = Stem;
}
);
layerId = "3B5F2A21-9AC0-43BD-916B-7DC2040966BF";
paths = (
{
closed = 1;
nodes = (
"253 615 LINE",
"219 729 LINE",
"22 620 LINE",
"48 534 LINE"
);
},
{
closed = 1;
nodes = (
"64 0 LINE",
"201 0 LINE",
"201 506 LINE",
"64 506 LINE"
);
}
);
width = 273;
}
);
leftKerningGroup = i;
note = iacute;
rightKerningGroup = i;
unicode = 00ED;
},
{
glyphname = igrave;
layers = (
{
hints = (
{
horizontal = 1;
place = "{0, 729}";
type = Stem;
},
{
place = "{64, 137}";
type = Stem;
}
);
layerId = "3B5F2A21-9AC0-43BD-916B-7DC2040966BF";
paths = (
{
closed = 1;
nodes = (
"250 620 LINE",
"53 729 LINE",
"19 615 LINE",
"224 534 LINE"
);
},
{
closed = 1;
nodes = (
"64 0 LINE",
"201 0 LINE",
"201 506 LINE",
"64 506 LINE"
);
}
);
width = 273;
}
);
leftKerningGroup = i;
note = igrave;
rightKerningGroup = i;
unicode = 00EC;
},
{
glyphname = icircumflex;
layers = (
{
hints = (
{
horizontal = 1;
place = "{0, 735}";
type = Stem;
},
{
place = "{64, 137}";
type = Stem;
}
);
layerId = "3B5F2A21-9AC0-43BD-916B-7DC2040966BF";
paths = (
{
closed = 1;
nodes = (
"130 609 LINE",
"281 550 LINE",
"307 635 LINE",
"130 735 LINE",
"-47 635 LINE",
"-21 550 LINE"
);
},
{
closed = 1;
nodes = (
"64 0 LINE",
"201 0 LINE",
"201 506 LINE",
"64 506 LINE"
);
}
);
width = 273;
}
);
leftKerningGroup = i;
note = icircumflex;
rightKerningGroup = i;
unicode = 00EE;
},
{
glyphname = idieresis;
layers = (
{
hints = (
{
horizontal = 1;
place = "{546, 138}";
type = Stem;
},
{
place = "{-54, 143}";
type = Stem;
},
{
place = "{174, 143}";
type = Stem;
},
{
place = "{64, 137}";
type = Stem;
}
);
layerId = "3B5F2A21-9AC0-43BD-916B-7DC2040966BF";
paths = (
{
closed = 1;
nodes = (
"-54 578 OFFCURVE",
"-21 546 OFFCURVE",
"18 546 CURVE SMOOTH",
"57 546 OFFCURVE",
"89 578 OFFCURVE",
"89 615 CURVE SMOOTH",
"89 651 OFFCURVE",
"57 684 OFFCURVE",
"18 684 CURVE SMOOTH",
"-21 684 OFFCURVE",
"-54 651 OFFCURVE",
"-54 615 CURVE SMOOTH"
);
},
{
closed = 1;
nodes = (
"174 578 OFFCURVE",
"207 546 OFFCURVE",
"246 546 CURVE SMOOTH",
"285 546 OFFCURVE",
"317 578 OFFCURVE",
"317 615 CURVE SMOOTH",
"317 651 OFFCURVE",
"285 684 OFFCURVE",
"246 684 CURVE SMOOTH",
"207 684 OFFCURVE",
"174 651 OFFCURVE",
"174 615 CURVE SMOOTH"
);
},
{
closed = 1;
nodes = (
"64 0 LINE",
"201 0 LINE",
"201 506 LINE",
"64 506 LINE"
);
}
);
width = 273;
}
);
leftKerningGroup = i;
note = idieresis;
rightKerningGroup = i;
unicode = 00EF;
},
{
glyphname = ntilde;
layers = (
{
hints = (
{
horizontal = 1;
place = "{385, 126}";
type = Stem;
},
{
horizontal = 1;
place = "{566, 86.32}";
type = Stem;
},
{
place = "{133.81, 85.19}";
type = Stem;
},
{
place = "{353.5, 89.94}";
type = Stem;
},
{
place = "{57, 137}";
type = Stem;
},
{
place = "{374, 137}";
type = Stem;
}
);
layerId = "3B5F2A21-9AC0-43BD-916B-7DC2040966BF";
paths = (
{
closed = 1;
nodes = (
"345 704 LINE",
"351 690 OFFCURVE",
"361 666 OFFCURVE",
"347 656 CURVE SMOOTH",
"321 637 OFFCURVE",
"274 697 OFFCURVE",
"218 697 CURVE SMOOTH",
"149 697 OFFCURVE",
"126 631 OFFCURVE",
"136 585 CURVE",
"219 560 LINE",
"215 577 OFFCURVE",
"219 600 OFFCURVE",
"232 605 CURVE",
"261 615 OFFCURVE",
"287 566 OFFCURVE",
"350 566 CURVE SMOOTH",
"404 566 OFFCURVE",
"465 616 OFFCURVE",
"436 704 CURVE"
);
},
{
closed = 1;
nodes = (
"194 505 LINE",
"57 505 LINE",
"57 0 LINE",
"194 0 LINE",
"194 324 LINE",
"214 365 OFFCURVE",
"252 385 OFFCURVE",
"289 385 CURVE SMOOTH",
"341 385 OFFCURVE",
"374 352 OFFCURVE",
"374 297 CURVE SMOOTH",
"374 0 LINE",
"511 0 LINE",
"511 297 LINE SMOOTH",
"511 418 OFFCURVE",
"424 511 OFFCURVE",
"294 511 CURVE SMOOTH",
"254 511 OFFCURVE",
"221 500 OFFCURVE",
"194 481 CURVE"
);
}
);
width = 561;
}
);
leftKerningGroup = b;
note = ntilde;
rightKerningGroup = h;
unicode = 00F1;
},
{
glyphname = oacute;
layers = (
{
hints = (
{
horizontal = 1;
place = "{-8, 128}";
type = Stem;
},
{
horizontal = 1;
place = "{382, 128}";
type = Stem;
},
{
place = "{35, 137}";
type = Stem;
},
{
place = "{418, 137}";
type = Stem;
}
);
layerId = "3B5F2A21-9AC0-43BD-916B-7DC2040966BF";
paths = (
{
closed = 1;
nodes = (
"418 619 LINE",
"384 733 LINE",
"187 624 LINE",
"213 538 LINE"
);
},
{
closed = 1;
nodes = (
"555 393 OFFCURVE",
"439 510 OFFCURVE",
"295 510 CURVE SMOOTH",
"152 510 OFFCURVE",
"35 394 OFFCURVE",
"35 251 CURVE SMOOTH",
"35 109 OFFCURVE",
"150 -8 OFFCURVE",
"295 -8 CURVE SMOOTH",
"440 -8 OFFCURVE",
"555 110 OFFCURVE",
"555 251 CURVE SMOOTH"
);
},
{
closed = 1;
nodes = (
"418 178 OFFCURVE",
"361 120 OFFCURVE",
"295 120 CURVE SMOOTH",
"229 120 OFFCURVE",
"172 177 OFFCURVE",
"172 251 CURVE SMOOTH",
"172 325 OFFCURVE",
"230 382 OFFCURVE",
"295 382 CURVE SMOOTH",
"361 382 OFFCURVE",
"418 325 OFFCURVE",
"418 251 CURVE SMOOTH"
);
}
);
width = 591;
}
);
leftKerningGroup = c;
note = oacute;
rightKerningGroup = b;
unicode = 00F3;
},
{
glyphname = ograve;
layers = (
{
hints = (
{
horizontal = 1;
place = "{-8, 128}";
type = Stem;
},
{
horizontal = 1;
place = "{382, 128}";
type = Stem;
},
{
place = "{35, 137}";
type = Stem;
},
{
place = "{418, 137}";
type = Stem;
}
);
layerId = "3B5F2A21-9AC0-43BD-916B-7DC2040966BF";
paths = (
{
closed = 1;
nodes = (
"415 624 LINE",
"218 733 LINE",
"184 619 LINE",
"389 538 LINE"
);
},
{
closed = 1;
nodes = (
"555 393 OFFCURVE",
"439 510 OFFCURVE",
"295 510 CURVE SMOOTH",
"152 510 OFFCURVE",
"35 394 OFFCURVE",
"35 251 CURVE SMOOTH",
"35 109 OFFCURVE",
"150 -8 OFFCURVE",
"295 -8 CURVE SMOOTH",
"440 -8 OFFCURVE",
"555 110 OFFCURVE",
"555 251 CURVE SMOOTH"
);
},
{
closed = 1;
nodes = (
"418 178 OFFCURVE",
"361 120 OFFCURVE",
"295 120 CURVE SMOOTH",
"229 120 OFFCURVE",
"172 177 OFFCURVE",
"172 251 CURVE SMOOTH",
"172 325 OFFCURVE",
"230 382 OFFCURVE",
"295 382 CURVE SMOOTH",
"361 382 OFFCURVE",
"418 325 OFFCURVE",
"418 251 CURVE SMOOTH"
);
}
);
width = 591;
}
);
leftKerningGroup = c;
note = ograve;
rightKerningGroup = b;
unicode = 00F2;
},
{
glyphname = ocircumflex;
layers = (
{
hints = (
{
horizontal = 1;
place = "{-8, 128}";
type = Stem;
},
{
horizontal = 1;
place = "{382, 128}";
type = Stem;
},
{
place = "{35, 137}";
type = Stem;
},
{
place = "{418, 137}";
type = Stem;
}
);
layerId = "3B5F2A21-9AC0-43BD-916B-7DC2040966BF";
paths = (
{
closed = 1;
nodes = (
"295 613 LINE",
"446 554 LINE",
"472 639 LINE",
"295 738 LINE",
"118 639 LINE",
"144 554 LINE"
);
},
{
closed = 1;
nodes = (
"555 393 OFFCURVE",
"439 510 OFFCURVE",
"295 510 CURVE SMOOTH",
"152 510 OFFCURVE",
"35 394 OFFCURVE",
"35 251 CURVE SMOOTH",
"35 109 OFFCURVE",
"150 -8 OFFCURVE",
"295 -8 CURVE SMOOTH",
"440 -8 OFFCURVE",
"555 110 OFFCURVE",
"555 251 CURVE SMOOTH"
);
},
{
closed = 1;
nodes = (
"418 178 OFFCURVE",
"361 120 OFFCURVE",
"295 120 CURVE SMOOTH",
"229 120 OFFCURVE",
"172 177 OFFCURVE",
"172 251 CURVE SMOOTH",
"172 325 OFFCURVE",
"230 382 OFFCURVE",
"295 382 CURVE SMOOTH",
"361 382 OFFCURVE",
"418 325 OFFCURVE",
"418 251 CURVE SMOOTH"
);
}
);
width = 591;
}
);
leftKerningGroup = c;
note = ocircumflex;
rightKerningGroup = b;
unicode = 00F4;
},
{
glyphname = odieresis;
layers = (
{
hints = (
{
horizontal = 1;
place = "{-8, 128}";
type = Stem;
},
{
horizontal = 1;
place = "{382, 128}";
type = Stem;
},
{
horizontal = 1;
place = "{541, 138}";
type = Stem;
},
{
place = "{48, 143}";
type = Stem;
},
{
place = "{418, 143}";
type = Stem;
},
{
place = "{35, 137}";
type = Stem;
},
{
place = "{418, 137}";
type = Stem;
}
);
layerId = "3B5F2A21-9AC0-43BD-916B-7DC2040966BF";
paths = (
{
closed = 1;
nodes = (
"48 574 OFFCURVE",
"80 541 OFFCURVE",
"119 541 CURVE SMOOTH",
"158 541 OFFCURVE",
"191 574 OFFCURVE",
"191 610 CURVE SMOOTH",
"191 646 OFFCURVE",
"158 679 OFFCURVE",
"119 679 CURVE SMOOTH",
"80 679 OFFCURVE",
"48 646 OFFCURVE",
"48 610 CURVE SMOOTH"
);
},
{
closed = 1;
nodes = (
"418 574 OFFCURVE",
"451 541 OFFCURVE",
"490 541 CURVE SMOOTH",
"529 541 OFFCURVE",
"561 574 OFFCURVE",
"561 610 CURVE SMOOTH",
"561 646 OFFCURVE",
"529 679 OFFCURVE",
"490 679 CURVE SMOOTH",
"451 679 OFFCURVE",
"418 646 OFFCURVE",
"418 610 CURVE SMOOTH"
);
},
{
closed = 1;
nodes = (
"555 393 OFFCURVE",
"439 510 OFFCURVE",
"295 510 CURVE SMOOTH",
"152 510 OFFCURVE",
"35 394 OFFCURVE",
"35 251 CURVE SMOOTH",
"35 109 OFFCURVE",
"150 -8 OFFCURVE",
"295 -8 CURVE SMOOTH",
"440 -8 OFFCURVE",
"555 110 OFFCURVE",
"555 251 CURVE SMOOTH"
);
},
{
closed = 1;
nodes = (
"418 178 OFFCURVE",
"361 120 OFFCURVE",
"295 120 CURVE SMOOTH",
"229 120 OFFCURVE",
"172 177 OFFCURVE",
"172 251 CURVE SMOOTH",
"172 325 OFFCURVE",
"230 382 OFFCURVE",
"295 382 CURVE SMOOTH",
"361 382 OFFCURVE",
"418 325 OFFCURVE",
"418 251 CURVE SMOOTH"
);
}
);
width = 591;
}
);
leftKerningGroup = c;
note = odieresis;
rightKerningGroup = b;
unicode = 00F6;
},
{
glyphname = otilde;
layers = (
{
hints = (
{
horizontal = 1;
place = "{-8, 128}";
type = Stem;
},
{
horizontal = 1;
place = "{382, 128}";
type = Stem;
},
{
horizontal = 1;
place = "{564, 86.32}";
type = Stem;
},
{
place = "{35, 137}";
type = Stem;
},
{
place = "{354.5, 89.94}";
type = Stem;
},
{
place = "{134.81, 85.19}";
type = Stem;
},
{
place = "{418, 137}";
type = Stem;
}
);
layerId = "3B5F2A21-9AC0-43BD-916B-7DC2040966BF";
paths = (
{
closed = 1;
nodes = (
"346 702 LINE",
"352 688 OFFCURVE",
"362 664 OFFCURVE",
"348 654 CURVE SMOOTH",
"322 635 OFFCURVE",
"275 695 OFFCURVE",
"219 695 CURVE SMOOTH",
"150 695 OFFCURVE",
"127 629 OFFCURVE",
"137 583 CURVE",
"220 558 LINE",
"216 575 OFFCURVE",
"220 598 OFFCURVE",
"233 603 CURVE",
"262 613 OFFCURVE",
"288 564 OFFCURVE",
"351 564 CURVE SMOOTH",
"405 564 OFFCURVE",
"466 615 OFFCURVE",
"437 702 CURVE"
);
},
{
closed = 1;
nodes = (
"555 393 OFFCURVE",
"439 510 OFFCURVE",
"295 510 CURVE SMOOTH",
"152 510 OFFCURVE",
"35 394 OFFCURVE",
"35 251 CURVE SMOOTH",
"35 109 OFFCURVE",
"150 -8 OFFCURVE",
"295 -8 CURVE SMOOTH",
"440 -8 OFFCURVE",
"555 110 OFFCURVE",
"555 251 CURVE SMOOTH"
);
},
{
closed = 1;
nodes = (
"418 178 OFFCURVE",
"361 120 OFFCURVE",
"295 120 CURVE SMOOTH",
"229 120 OFFCURVE",
"172 177 OFFCURVE",
"172 251 CURVE SMOOTH",
"172 325 OFFCURVE",
"230 382 OFFCURVE",
"295 382 CURVE SMOOTH",
"361 382 OFFCURVE",
"418 325 OFFCURVE",
"418 251 CURVE SMOOTH"
);
}
);
width = 591;
}
);
leftKerningGroup = c;
note = otilde;
rightKerningGroup = b;
unicode = 00F5;
},
{
glyphname = uacute;
layers = (
{
hints = (
{
horizontal = 1;
place = "{-5, 126}";
type = Stem;
},
{
place = "{63, 137}";
type = Stem;
},
{
place = "{368, 137}";
type = Stem;
}
);
layerId = "3B5F2A21-9AC0-43BD-916B-7DC2040966BF";
paths = (
{
closed = 1;
nodes = (
"406 616 LINE",
"373 731 LINE",
"175 622 LINE",
"201 536 LINE"
);
},
{
closed = 1;
nodes = (
"368 0 LINE",
"505 0 LINE",
"505 506 LINE",
"368 506 LINE",
"368 197 LINE",
"360 159 OFFCURVE",
"325 121 OFFCURVE",
"279 121 CURVE SMOOTH",
"226 121 OFFCURVE",
"200 153 OFFCURVE",
"200 228 CURVE SMOOTH",
"200 506 LINE",
"63 506 LINE",
"63 228 LINE SMOOTH",
"63 86 OFFCURVE",
"147 -5 OFFCURVE",
"276 -5 CURVE SMOOTH",
"311 -5 OFFCURVE",
"342 5 OFFCURVE",
"368 22 CURVE"
);
}
);
width = 569;
}
);
leftKerningGroup = u;
note = uacute;
rightKerningGroup = a;
unicode = 00FA;
},
{
glyphname = ugrave;
layers = (
{
hints = (
{
horizontal = 1;
place = "{-5, 126}";
type = Stem;
},
{
place = "{63, 137}";
type = Stem;
},
{
place = "{368, 137}";
type = Stem;
}
);
layerId = "3B5F2A21-9AC0-43BD-916B-7DC2040966BF";
paths = (
{
closed = 1;
nodes = (
"404 622 LINE",
"206 731 LINE",
"172 616 LINE",
"378 536 LINE"
);
},
{
closed = 1;
nodes = (
"368 0 LINE",
"505 0 LINE",
"505 506 LINE",
"368 506 LINE",
"368 197 LINE",
"360 159 OFFCURVE",
"325 121 OFFCURVE",
"279 121 CURVE SMOOTH",
"226 121 OFFCURVE",
"200 153 OFFCURVE",
"200 228 CURVE SMOOTH",
"200 506 LINE",
"63 506 LINE",
"63 228 LINE SMOOTH",
"63 86 OFFCURVE",
"147 -5 OFFCURVE",
"276 -5 CURVE SMOOTH",
"311 -5 OFFCURVE",
"342 5 OFFCURVE",
"368 22 CURVE"
);
}
);
width = 569;
}
);
leftKerningGroup = u;
note = ugrave;
rightKerningGroup = a;
unicode = 00F9;
},
{
glyphname = ucircumflex;
layers = (
{
hints = (
{
horizontal = 1;
place = "{-5, 126}";
type = Stem;
},
{
place = "{63, 137}";
type = Stem;
},
{
place = "{368, 137}";
type = Stem;
}
);
layerId = "3B5F2A21-9AC0-43BD-916B-7DC2040966BF";
paths = (
{
closed = 1;
nodes = (
"283 611 LINE",
"434 552 LINE",
"460 637 LINE",
"283 736 LINE",
"106 637 LINE",
"132 552 LINE"
);
},
{
closed = 1;
nodes = (
"368 0 LINE",
"505 0 LINE",
"505 506 LINE",
"368 506 LINE",
"368 197 LINE",
"360 159 OFFCURVE",
"325 121 OFFCURVE",
"279 121 CURVE SMOOTH",
"226 121 OFFCURVE",
"200 153 OFFCURVE",
"200 228 CURVE SMOOTH",
"200 506 LINE",
"63 506 LINE",
"63 228 LINE SMOOTH",
"63 86 OFFCURVE",
"147 -5 OFFCURVE",
"276 -5 CURVE SMOOTH",
"311 -5 OFFCURVE",
"342 5 OFFCURVE",
"368 22 CURVE"
);
}
);
width = 569;
}
);
leftKerningGroup = u;
note = ucircumflex;
rightKerningGroup = a;
unicode = 00FB;
},
{
glyphname = udieresis;
layers = (
{
hints = (
{
horizontal = 1;
place = "{-5, 126}";
type = Stem;
},
{
horizontal = 1;
place = "{539, 138}";
type = Stem;
},
{
place = "{31, 143}";
type = Stem;
},
{
place = "{363, 137}";
type = Stem;
},
{
place = "{58, 137}";
type = Stem;
},
{
place = "{402, 143}";
type = Stem;
}
);
layerId = "3B5F2A21-9AC0-43BD-916B-7DC2040966BF";
paths = (
{
closed = 1;
nodes = (
"31 571 OFFCURVE",
"64 539 OFFCURVE",
"103 539 CURVE SMOOTH",
"142 539 OFFCURVE",
"174 571 OFFCURVE",
"174 608 CURVE SMOOTH",
"174 644 OFFCURVE",
"142 677 OFFCURVE",
"103 677 CURVE SMOOTH",
"64 677 OFFCURVE",
"31 644 OFFCURVE",
"31 608 CURVE SMOOTH"
);
},
{
closed = 1;
nodes = (
"402 571 OFFCURVE",
"434 539 OFFCURVE",
"473 539 CURVE SMOOTH",
"512 539 OFFCURVE",
"545 571 OFFCURVE",
"545 608 CURVE SMOOTH",
"545 644 OFFCURVE",
"512 677 OFFCURVE",
"473 677 CURVE SMOOTH",
"434 677 OFFCURVE",
"402 644 OFFCURVE",
"402 608 CURVE SMOOTH"
);
},
{
closed = 1;
nodes = (
"363 0 LINE",
"500 0 LINE",
"500 506 LINE",
"363 506 LINE",
"363 197 LINE",
"355 159 OFFCURVE",
"320 121 OFFCURVE",
"274 121 CURVE SMOOTH",
"221 121 OFFCURVE",
"195 153 OFFCURVE",
"195 228 CURVE SMOOTH",
"195 506 LINE",
"58 506 LINE",
"58 228 LINE SMOOTH",
"58 86 OFFCURVE",
"142 -5 OFFCURVE",
"271 -5 CURVE SMOOTH",
"306 -5 OFFCURVE",
"337 5 OFFCURVE",
"363 22 CURVE"
);
}
);
width = 568;
}
);
leftKerningGroup = u;
note = udieresis;
rightKerningGroup = a;
unicode = 00FC;
},
{
glyphname = Agrave;
layers = (
{
hints = (
{
horizontal = 1;
place = "{199, 132}";
type = Stem;
},
{
place = "{17, 677}";
type = Stem;
}
);
layerId = "3B5F2A21-9AC0-43BD-916B-7DC2040966BF";
paths = (
{
closed = 1;
nodes = (
"476 815 LINE",
"279 924 LINE",
"245 810 LINE",
"450 730 LINE"
);
},
{
closed = 1;
nodes = (
"17 0 LINE",
"169 0 LINE",
"247 199 LINE",
"464 199 LINE",
"542 0 LINE",
"694 0 LINE",
"420 700 LINE",
"291 700 LINE"
);
},
{
closed = 1;
nodes = (
"413 331 LINE",
"299 331 LINE",
"356 477 LINE"
);
}
);
width = 703;
}
);
leftKerningGroup = scaron;
note = Agrave;
rightKerningGroup = A;
unicode = 00C0;
},
{
glyphname = Atilde;
layers = (
{
hints = (
{
horizontal = 1;
place = "{199, 132}";
type = Stem;
},
{
horizontal = 1;
place = "{756, 85.36}";
type = Stem;
},
{
place = "{195.81, 85.19}";
type = Stem;
},
{
place = "{415.5, 89.94}";
type = Stem;
}
);
layerId = "3B5F2A21-9AC0-43BD-916B-7DC2040966BF";
paths = (
{
closed = 1;
nodes = (
"407 893 LINE",
"413 879 OFFCURVE",
"423 856 OFFCURVE",
"409 845 CURVE SMOOTH",
"383 826 OFFCURVE",
"336 887 OFFCURVE",
"280 887 CURVE SMOOTH",
"211 887 OFFCURVE",
"188 820 OFFCURVE",
"198 774 CURVE",
"281 750 LINE",
"277 766 OFFCURVE",
"281 789 OFFCURVE",
"294 794 CURVE",
"323 804 OFFCURVE",
"349 756 OFFCURVE",
"412 756 CURVE SMOOTH",
"466 756 OFFCURVE",
"527 806 OFFCURVE",
"498 893 CURVE"
);
},
{
closed = 1;
nodes = (
"17 0 LINE",
"169 0 LINE",
"247 199 LINE",
"464 199 LINE",
"542 0 LINE",
"694 0 LINE",
"420 700 LINE",
"291 700 LINE"
);
},
{
closed = 1;
nodes = (
"413 331 LINE",
"299 331 LINE",
"356 477 LINE"
);
}
);
width = 703;
}
);
leftKerningGroup = scaron;
note = Atilde;
rightKerningGroup = A;
unicode = 00C3;
},
{
glyphname = Otilde;
layers = (
{
hints = (
{
horizontal = 1;
place = "{0, 132}";
type = Stem;
},
{
horizontal = 1;
place = "{570, 132}";
type = Stem;
},
{
horizontal = 1;
place = "{758, 86.32}";
type = Stem;
},
{
place = "{45, 143}";
type = Stem;
},
{
place = "{238.81, 85.19}";
type = Stem;
},
{
place = "{458.5, 89.94}";
type = Stem;
},
{
place = "{610, 143}";
type = Stem;
},
{
horizontal = 1;
place = "{796, 93}";
type = Stem;
}
);
layerId = "3B5F2A21-9AC0-43BD-916B-7DC2040966BF";
paths = (
{
closed = 1;
nodes = (
"450 896 LINE",
"456 882 OFFCURVE",
"466 858 OFFCURVE",
"452 848 CURVE SMOOTH",
"426 829 OFFCURVE",
"379 889 OFFCURVE",
"323 889 CURVE SMOOTH",
"254 889 OFFCURVE",
"231 823 OFFCURVE",
"241 777 CURVE",
"324 752 LINE",
"319 769 OFFCURVE",
"324 792 OFFCURVE",
"337 796 CURVE",
"366 807 OFFCURVE",
"392 758 OFFCURVE",
"454 758 CURVE SMOOTH",
"509 758 OFFCURVE",
"570 808 OFFCURVE",
"541 896 CURVE"
);
},
{
closed = 1;
nodes = (
"199 702 OFFCURVE",
"45 542 OFFCURVE",
"45 351 CURVE SMOOTH",
"45 158 OFFCURVE",
"203 0 OFFCURVE",
"399 0 CURVE SMOOTH",
"569 0 OFFCURVE",
"753 130 OFFCURVE",
"753 351 CURVE SMOOTH",
"753 545 OFFCURVE",
"595 702 OFFCURVE",
"399 702 CURVE SMOOTH"
);
},
{
closed = 1;
nodes = (
"513 570 OFFCURVE",
"610 474 OFFCURVE",
"610 351 CURVE SMOOTH",
"610 214 OFFCURVE",
"501 132 OFFCURVE",
"399 132 CURVE SMOOTH",
"284 132 OFFCURVE",
"188 229 OFFCURVE",
"188 351 CURVE SMOOTH",
"188 472 OFFCURVE",
"283 570 OFFCURVE",
"399 570 CURVE SMOOTH"
);
}
);
width = 785;
}
);
leftKerningGroup = C;
note = Otilde;
rightKerningGroup = O;
unicode = 00D5;
},
{
glyphname = ydieresis;
layers = (
{
hints = (
{
horizontal = 1;
place = "{532, 138}";
type = Stem;
},
{
place = "{80, 143}";
type = Stem;
},
{
place = "{451, 143}";
type = Stem;
}
);
layerId = "3B5F2A21-9AC0-43BD-916B-7DC2040966BF";
paths = (
{
closed = 1;
nodes = (
"80 565 OFFCURVE",
"113 532 OFFCURVE",
"152 532 CURVE SMOOTH",
"191 532 OFFCURVE",
"223 565 OFFCURVE",
"223 601 CURVE SMOOTH",
"223 638 OFFCURVE",
"191 670 OFFCURVE",
"152 670 CURVE SMOOTH",
"113 670 OFFCURVE",
"80 638 OFFCURVE",
"80 601 CURVE SMOOTH"
);
},
{
closed = 1;
nodes = (
"451 565 OFFCURVE",
"483 532 OFFCURVE",
"522 532 CURVE SMOOTH",
"561 532 OFFCURVE",
"594 565 OFFCURVE",
"594 601 CURVE SMOOTH",
"594 638 OFFCURVE",
"561 670 OFFCURVE",
"522 670 CURVE SMOOTH",
"483 670 OFFCURVE",
"451 638 OFFCURVE",
"451 601 CURVE SMOOTH"
);
},
{
closed = 1;
nodes = (
"9 506 LINE",
"252 86 LINE",
"93 -186 LINE",
"249 -186 LINE",
"647 506 LINE",
"492 506 LINE",
"330 219 LINE",
"166 506 LINE"
);
}
);
width = 653;
}
);
leftKerningGroup = yacute;
note = ydieresis;
rightKerningGroup = yacute;
unicode = 00FF;
},
{
glyphname = Ydieresis;
layers = (
{
hints = (
{
horizontal = 1;
place = "{732, 138}";
type = Stem;
},
{
place = "{122, 143}";
type = Stem;
},
{
place = "{298, 142}";
type = Stem;
},
{
place = "{492, 143}";
type = Stem;
}
);
layerId = "3B5F2A21-9AC0-43BD-916B-7DC2040966BF";
paths = (
{
closed = 1;
nodes = (
"122 765 OFFCURVE",
"154 732 OFFCURVE",
"193 732 CURVE SMOOTH",
"232 732 OFFCURVE",
"265 765 OFFCURVE",
"265 801 CURVE SMOOTH",
"265 838 OFFCURVE",
"232 870 OFFCURVE",
"193 870 CURVE SMOOTH",
"154 870 OFFCURVE",
"122 838 OFFCURVE",
"122 801 CURVE SMOOTH"
);
},
{
closed = 1;
nodes = (
"492 765 OFFCURVE",
"525 732 OFFCURVE",
"564 732 CURVE SMOOTH",
"603 732 OFFCURVE",
"635 765 OFFCURVE",
"635 801 CURVE SMOOTH",
"635 838 OFFCURVE",
"603 870 OFFCURVE",
"564 870 CURVE SMOOTH",
"525 870 OFFCURVE",
"492 838 OFFCURVE",
"492 801 CURVE SMOOTH"
);
},
{
closed = 1;
nodes = (
"729 700 LINE",
"553 700 LINE",
"369 463 LINE",
"185 700 LINE",
"9 700 LINE",
"298 328 LINE",
"298 0 LINE",
"440 0 LINE",
"440 328 LINE"
);
}
);
width = 738;
}
);
leftKerningGroup = Yacute;
note = Ydieresis;
rightKerningGroup = Yacute;
unicode = 0178;
},
{
glyphname = Acircumflex;
layers = (
{
hints = (
{
horizontal = 1;
place = "{199, 132}";
type = Stem;
},
{
place = "{17, 677}";
type = Stem;
}
);
layerId = "3B5F2A21-9AC0-43BD-916B-7DC2040966BF";
paths = (
{
closed = 1;
nodes = (
"356 804 LINE",
"507 745 LINE",
"533 831 LINE",
"356 930 LINE",
"179 831 LINE",
"205 745 LINE"
);
},
{
closed = 1;
nodes = (
"17 0 LINE",
"169 0 LINE",
"247 199 LINE",
"464 199 LINE",
"542 0 LINE",
"694 0 LINE",
"420 700 LINE",
"291 700 LINE"
);
},
{
closed = 1;
nodes = (
"413 331 LINE",
"299 331 LINE",
"356 477 LINE"
);
}
);
width = 703;
}
);
leftKerningGroup = scaron;
note = Acircumflex;
rightKerningGroup = A;
unicode = 00C2;
},
{
glyphname = Ecircumflex;
layers = (
{
hints = (
{
horizontal = 1;
place = "{0, 132}";
type = Stem;
},
{
horizontal = 1;
place = "{287, 132}";
type = Stem;
},
{
horizontal = 1;
place = "{568, 132}";
type = Stem;
},
{
place = "{70, 143}";
type = Stem;
}
);
layerId = "3B5F2A21-9AC0-43BD-916B-7DC2040966BF";
paths = (
{
closed = 1;
nodes = (
"315 804 LINE",
"466 745 LINE",
"492 831 LINE",
"315 930 LINE",
"138 831 LINE",
"164 745 LINE"
);
},
{
closed = 1;
nodes = (
"70 700 LINE",
"70 0 LINE",
"555 0 LINE",
"555 132 LINE",
"213 132 LINE",
"213 287 LINE",
"488 287 LINE",
"488 419 LINE",
"213 419 LINE",
"213 568 LINE",
"554 568 LINE",
"554 700 LINE"
);
}
);
width = 600;
}
);
leftKerningGroup = B;
note = Ecircumflex;
rightKerningGroup = E;
unicode = 00CA;
},
{
glyphname = Aacute;
layers = (
{
hints = (
{
horizontal = 1;
place = "{199, 132}";
type = Stem;
},
{
place = "{17, 677}";
type = Stem;
}
);
layerId = "3B5F2A21-9AC0-43BD-916B-7DC2040966BF";
paths = (
{
closed = 1;
nodes = (
"479 810 LINE",
"445 924 LINE",
"248 815 LINE",
"274 730 LINE"
);
},
{
closed = 1;
nodes = (
"17 0 LINE",
"169 0 LINE",
"247 199 LINE",
"464 199 LINE",
"542 0 LINE",
"694 0 LINE",
"420 700 LINE",
"291 700 LINE"
);
},
{
closed = 1;
nodes = (
"413 331 LINE",
"299 331 LINE",
"356 477 LINE"
);
}
);
width = 703;
}
);
leftKerningGroup = scaron;
note = Aacute;
rightKerningGroup = A;
unicode = 00C1;
},
{
glyphname = Edieresis;
layers = (
{
hints = (
{
horizontal = 1;
place = "{0, 132}";
type = Stem;
},
{
horizontal = 1;
place = "{287, 132}";
type = Stem;
},
{
horizontal = 1;
place = "{568, 132}";
type = Stem;
},
{
horizontal = 1;
place = "{732, 138}";
type = Stem;
},
{
place = "{70, 143}";
type = Stem;
},
{
place = "{438, 143}";
type = Stem;
}
);
layerId = "3B5F2A21-9AC0-43BD-916B-7DC2040966BF";
paths = (
{
closed = 1;
nodes = (
"68 765 OFFCURVE",
"100 732 OFFCURVE",
"139 732 CURVE SMOOTH",
"178 732 OFFCURVE",
"211 765 OFFCURVE",
"211 801 CURVE SMOOTH",
"211 838 OFFCURVE",
"178 870 OFFCURVE",
"139 870 CURVE SMOOTH",
"100 870 OFFCURVE",
"68 838 OFFCURVE",
"68 801 CURVE SMOOTH"
);
},
{
closed = 1;
nodes = (
"438 765 OFFCURVE",
"471 732 OFFCURVE",
"510 732 CURVE SMOOTH",
"549 732 OFFCURVE",
"581 765 OFFCURVE",
"581 801 CURVE SMOOTH",
"581 838 OFFCURVE",
"549 870 OFFCURVE",
"510 870 CURVE SMOOTH",
"471 870 OFFCURVE",
"438 838 OFFCURVE",
"438 801 CURVE SMOOTH"
);
},
{
closed = 1;
nodes = (
"70 700 LINE",
"70 0 LINE",
"555 0 LINE",
"555 132 LINE",
"213 132 LINE",
"213 287 LINE",
"488 287 LINE",
"488 419 LINE",
"213 419 LINE",
"213 568 LINE",
"554 568 LINE",
"554 700 LINE"
);
}
);
width = 600;
}
);
leftKerningGroup = B;
note = Edieresis;
rightKerningGroup = E;
unicode = 00CB;
},
{
glyphname = Egrave;
layers = (
{
hints = (
{
horizontal = 1;
place = "{0, 132}";
type = Stem;
},
{
horizontal = 1;
place = "{287, 132}";
type = Stem;
},
{
horizontal = 1;
place = "{568, 132}";
type = Stem;
},
{
place = "{70, 143}";
type = Stem;
}
);
layerId = "3B5F2A21-9AC0-43BD-916B-7DC2040966BF";
paths = (
{
closed = 1;
nodes = (
"435 815 LINE",
"238 924 LINE",
"204 810 LINE",
"409 730 LINE"
);
},
{
closed = 1;
nodes = (
"70 700 LINE",
"70 0 LINE",
"555 0 LINE",
"555 132 LINE",
"213 132 LINE",
"213 287 LINE",
"488 287 LINE",
"488 419 LINE",
"213 419 LINE",
"213 568 LINE",
"554 568 LINE",
"554 700 LINE"
);
}
);
width = 600;
}
);
leftKerningGroup = B;
note = Egrave;
rightKerningGroup = E;
unicode = 00C8;
},
{
glyphname = Iacute;
layers = (
{
hints = (
{
horizontal = 1;
place = "{0, 924}";
type = Stem;
},
{
place = "{79, 143}";
type = Stem;
}
);
layerId = "3B5F2A21-9AC0-43BD-916B-7DC2040966BF";
paths = (
{
closed = 1;
nodes = (
"273 810 LINE",
"240 924 LINE",
"42 815 LINE",
"68 730 LINE"
);
},
{
closed = 1;
nodes = (
"79 700 LINE",
"79 0 LINE",
"222 0 LINE",
"222 700 LINE"
);
}
);
width = 301;
}
);
leftKerningGroup = I;
note = Iacute;
rightKerningGroup = I;
unicode = 00CD;
},
{
glyphname = Icircumflex;
layers = (
{
hints = (
{
horizontal = 1;
place = "{0, 930}";
type = Stem;
},
{
place = "{79, 143}";
type = Stem;
}
);
layerId = "3B5F2A21-9AC0-43BD-916B-7DC2040966BF";
paths = (
{
closed = 1;
nodes = (
"150 804 LINE",
"301 745 LINE",
"327 831 LINE",
"150 930 LINE",
"-27 831 LINE",
"-1 745 LINE"
);
},
{
closed = 1;
nodes = (
"79 700 LINE",
"79 0 LINE",
"222 0 LINE",
"222 700 LINE"
);
}
);
width = 301;
}
);
leftKerningGroup = I;
note = Icircumflex;
rightKerningGroup = I;
unicode = 00CE;
},
{
glyphname = Idieresis;
layers = (
{
hints = (
{
horizontal = 1;
place = "{732, 138}";
type = Stem;
},
{
place = "{-97, 143}";
type = Stem;
},
{
place = "{79, 143}";
type = Stem;
},
{
place = "{274, 143}";
type = Stem;
}
);
layerId = "3B5F2A21-9AC0-43BD-916B-7DC2040966BF";
paths = (
{
closed = 1;
nodes = (
"-97 765 OFFCURVE",
"-64 732 OFFCURVE",
"-25 732 CURVE SMOOTH",
"14 732 OFFCURVE",
"46 765 OFFCURVE",
"46 801 CURVE SMOOTH",
"46 838 OFFCURVE",
"14 870 OFFCURVE",
"-25 870 CURVE SMOOTH",
"-64 870 OFFCURVE",
"-97 838 OFFCURVE",
"-97 801 CURVE SMOOTH"
);
},
{
closed = 1;
nodes = (
"274 765 OFFCURVE",
"306 732 OFFCURVE",
"345 732 CURVE SMOOTH",
"384 732 OFFCURVE",
"417 765 OFFCURVE",
"417 801 CURVE SMOOTH",
"417 838 OFFCURVE",
"384 870 OFFCURVE",
"345 870 CURVE SMOOTH",
"306 870 OFFCURVE",
"274 838 OFFCURVE",
"274 801 CURVE SMOOTH"
);
},
{
closed = 1;
nodes = (
"79 700 LINE",
"79 0 LINE",
"222 0 LINE",
"222 700 LINE"
);
}
);
width = 301;
}
);
leftKerningGroup = I;
note = Idieresis;
rightKerningGroup = I;
unicode = 00CF;
},
{
glyphname = Igrave;
layers = (
{
hints = (
{
horizontal = 1;
place = "{0, 924}";
type = Stem;
},
{
place = "{79, 143}";
type = Stem;
}
);
layerId = "3B5F2A21-9AC0-43BD-916B-7DC2040966BF";
paths = (
{
closed = 1;
nodes = (
"271 815 LINE",
"73 924 LINE",
"40 810 LINE",
"245 730 LINE"
);
},
{
closed = 1;
nodes = (
"79 700 LINE",
"79 0 LINE",
"222 0 LINE",
"222 700 LINE"
);
}
);
width = 301;
}
);
leftKerningGroup = I;
note = Igrave;
rightKerningGroup = I;
unicode = 00CC;
},
{
glyphname = Oacute;
layers = (
{
hints = (
{
horizontal = 1;
place = "{0, 132}";
type = Stem;
},
{
horizontal = 1;
place = "{570, 132}";
type = Stem;
},
{
place = "{45, 143}";
type = Stem;
},
{
place = "{610, 143}";
type = Stem;
}
);
layerId = "3B5F2A21-9AC0-43BD-916B-7DC2040966BF";
paths = (
{
closed = 1;
nodes = (
"522 812 LINE",
"488 926 LINE",
"291 817 LINE",
"317 732 LINE"
);
},
{
closed = 1;
nodes = (
"199 702 OFFCURVE",
"45 542 OFFCURVE",
"45 351 CURVE SMOOTH",
"45 158 OFFCURVE",
"203 0 OFFCURVE",
"399 0 CURVE SMOOTH",
"569 0 OFFCURVE",
"753 130 OFFCURVE",
"753 351 CURVE SMOOTH",
"753 545 OFFCURVE",
"595 702 OFFCURVE",
"399 702 CURVE SMOOTH"
);
},
{
closed = 1;
nodes = (
"513 570 OFFCURVE",
"610 474 OFFCURVE",
"610 351 CURVE SMOOTH",
"610 214 OFFCURVE",
"501 132 OFFCURVE",
"399 132 CURVE SMOOTH",
"284 132 OFFCURVE",
"188 229 OFFCURVE",
"188 351 CURVE SMOOTH",
"188 472 OFFCURVE",
"283 570 OFFCURVE",
"399 570 CURVE SMOOTH"
);
}
);
width = 798;
}
);
leftKerningGroup = C;
note = Oacute;
rightKerningGroup = O;
unicode = 00D3;
},
{
glyphname = Ocircumflex;
layers = (
{
hints = (
{
horizontal = 1;
place = "{0, 132}";
type = Stem;
},
{
horizontal = 1;
place = "{570, 132}";
type = Stem;
},
{
place = "{45, 143}";
type = Stem;
},
{
place = "{610, 143}";
type = Stem;
}
);
layerId = "3B5F2A21-9AC0-43BD-916B-7DC2040966BF";
paths = (
{
closed = 1;
nodes = (
"399 807 LINE",
"550 747 LINE",
"576 833 LINE",
"399 932 LINE",
"222 833 LINE",
"248 747 LINE"
);
},
{
closed = 1;
nodes = (
"199 702 OFFCURVE",
"45 542 OFFCURVE",
"45 351 CURVE SMOOTH",
"45 158 OFFCURVE",
"203 0 OFFCURVE",
"399 0 CURVE SMOOTH",
"569 0 OFFCURVE",
"753 130 OFFCURVE",
"753 351 CURVE SMOOTH",
"753 545 OFFCURVE",
"595 702 OFFCURVE",
"399 702 CURVE SMOOTH"
);
},
{
closed = 1;
nodes = (
"513 570 OFFCURVE",
"610 474 OFFCURVE",
"610 351 CURVE SMOOTH",
"610 214 OFFCURVE",
"501 132 OFFCURVE",
"399 132 CURVE SMOOTH",
"284 132 OFFCURVE",
"188 229 OFFCURVE",
"188 351 CURVE SMOOTH",
"188 472 OFFCURVE",
"283 570 OFFCURVE",
"399 570 CURVE SMOOTH"
);
}
);
width = 798;
}
);
leftKerningGroup = C;
note = Ocircumflex;
rightKerningGroup = O;
unicode = 00D4;
},
{
glyphname = Ograve;
layers = (
{
hints = (
{
horizontal = 1;
place = "{0, 132}";
type = Stem;
},
{
horizontal = 1;
place = "{570, 132}";
type = Stem;
},
{
place = "{45, 143}";
type = Stem;
},
{
place = "{610, 143}";
type = Stem;
}
);
layerId = "3B5F2A21-9AC0-43BD-916B-7DC2040966BF";
paths = (
{
closed = 1;
nodes = (
"519 817 LINE",
"322 926 LINE",
"288 812 LINE",
"493 732 LINE"
);
},
{
closed = 1;
nodes = (
"199 702 OFFCURVE",
"45 542 OFFCURVE",
"45 351 CURVE SMOOTH",
"45 158 OFFCURVE",
"203 0 OFFCURVE",
"399 0 CURVE SMOOTH",
"569 0 OFFCURVE",
"753 130 OFFCURVE",
"753 351 CURVE SMOOTH",
"753 545 OFFCURVE",
"595 702 OFFCURVE",
"399 702 CURVE SMOOTH"
);
},
{
closed = 1;
nodes = (
"513 570 OFFCURVE",
"610 474 OFFCURVE",
"610 351 CURVE SMOOTH",
"610 214 OFFCURVE",
"501 132 OFFCURVE",
"399 132 CURVE SMOOTH",
"284 132 OFFCURVE",
"188 229 OFFCURVE",
"188 351 CURVE SMOOTH",
"188 472 OFFCURVE",
"283 570 OFFCURVE",
"399 570 CURVE SMOOTH"
);
}
);
width = 798;
}
);
leftKerningGroup = C;
note = Ograve;
rightKerningGroup = O;
unicode = 00D2;
},
{
glyphname = Uacute;
layers = (
{
hints = (
{
horizontal = 1;
place = "{-9, 132}";
type = Stem;
},
{
place = "{67, 143}";
type = Stem;
},
{
place = "{476, 143}";
type = Stem;
}
);
layerId = "3B5F2A21-9AC0-43BD-916B-7DC2040966BF";
paths = (
{
closed = 1;
nodes = (
"464 810 LINE",
"430 924 LINE",
"233 815 LINE",
"259 730 LINE"
);
},
{
closed = 1;
nodes = (
"210 699 LINE",
"67 699 LINE",
"67 278 LINE",
"67 279 OFFCURVE",
"56 1 OFFCURVE",
"333 -9 CURVE",
"353 -9 LINE",
"629 1 OFFCURVE",
"619 279 OFFCURVE",
"619 279 CURVE",
"619 699 LINE",
"476 699 LINE",
"476 260 LINE",
"472 219 OFFCURVE",
"455 128 OFFCURVE",
"350 123 CURVE",
"336 123 LINE",
"215 129 OFFCURVE",
"210 249 OFFCURVE",
"210 274 CURVE SMOOTH"
);
}
);
width = 671;
}
);
leftKerningGroup = U;
note = Uacute;
rightKerningGroup = U;
unicode = 00DA;
},
{
glyphname = Ucircumflex;
layers = (
{
hints = (
{
horizontal = 1;
place = "{-9, 132}";
type = Stem;
},
{
place = "{67, 143}";
type = Stem;
},
{
place = "{476, 143}";
type = Stem;
}
);
layerId = "3B5F2A21-9AC0-43BD-916B-7DC2040966BF";
paths = (
{
closed = 1;
nodes = (
"341 804 LINE",
"492 745 LINE",
"518 831 LINE",
"341 930 LINE",
"164 831 LINE",
"190 745 LINE"
);
},
{
closed = 1;
nodes = (
"210 699 LINE",
"67 699 LINE",
"67 278 LINE",
"67 279 OFFCURVE",
"56 1 OFFCURVE",
"333 -9 CURVE",
"353 -9 LINE",
"629 1 OFFCURVE",
"619 279 OFFCURVE",
"619 279 CURVE",
"619 699 LINE",
"476 699 LINE",
"476 260 LINE",
"472 219 OFFCURVE",
"455 128 OFFCURVE",
"350 123 CURVE",
"336 123 LINE",
"215 129 OFFCURVE",
"210 249 OFFCURVE",
"210 274 CURVE SMOOTH"
);
}
);
width = 671;
}
);
leftKerningGroup = U;
note = Ucircumflex;
rightKerningGroup = U;
unicode = 00DB;
},
{
glyphname = Ugrave;
layers = (
{
hints = (
{
horizontal = 1;
place = "{-9, 132}";
type = Stem;
},
{
place = "{67, 143}";
type = Stem;
},
{
place = "{476, 143}";
type = Stem;
}
);
layerId = "3B5F2A21-9AC0-43BD-916B-7DC2040966BF";
paths = (
{
closed = 1;
nodes = (
"462 815 LINE",
"264 924 LINE",
"230 810 LINE",
"435 730 LINE"
);
},
{
closed = 1;
nodes = (
"210 699 LINE",
"67 699 LINE",
"67 278 LINE",
"67 279 OFFCURVE",
"56 1 OFFCURVE",
"333 -9 CURVE",
"353 -9 LINE",
"629 1 OFFCURVE",
"619 279 OFFCURVE",
"619 279 CURVE",
"619 699 LINE",
"476 699 LINE",
"476 260 LINE",
"472 219 OFFCURVE",
"455 128 OFFCURVE",
"350 123 CURVE",
"336 123 LINE",
"215 129 OFFCURVE",
"210 249 OFFCURVE",
"210 274 CURVE SMOOTH"
);
}
);
width = 671;
}
);
leftKerningGroup = U;
note = Ugrave;
rightKerningGroup = U;
unicode = 00D9;
},
{
glyphname = AE;
layers = (
{
hints = (
{
horizontal = 1;
place = "{0, 132}";
type = Stem;
},
{
horizontal = 1;
place = "{200, 132}";
type = Stem;
},
{
horizontal = 1;
place = "{568, 132}";
type = Stem;
},
{
place = "{558, 143}";
type = Stem;
},
{
horizontal = 1;
place = "{287, 132}";
type = Stem;
}
);
layerId = "3B5F2A21-9AC0-43BD-916B-7DC2040966BF";
paths = (
{
closed = 1;
nodes = (
"558 200 LINE",
"558 0 LINE",
"1043 0 LINE",
"1043 132 LINE",
"701 132 LINE",
"701 287 LINE",
"976 287 LINE",
"976 419 LINE",
"701 419 LINE",
"701 568 LINE",
"1043 568 LINE",
"1043 700 LINE",
"571 700 LINE",
"13 1 LINE",
"192 1 LINE",
"347 200 LINE"
);
},
{
closed = 1;
nodes = (
"558 332 LINE",
"450 332 LINE",
"558 473 LINE"
);
}
);
width = 1102;
}
);
leftKerningGroup = scaron;
note = AE;
rightKerningGroup = E;
unicode = 00C6;
},
{
glyphname = Eth;
layers = (
{
hints = (
{
horizontal = 1;
place = "{0, 132}";
type = Stem;
},
{
horizontal = 1;
place = "{260, 130}";
type = Stem;
},
{
horizontal = 1;
place = "{568, 132}";
type = Stem;
},
{
place = "{159, 143}";
type = Stem;
},
{
place = "{537, 143}";
type = Stem;
}
);
layerId = "3B5F2A21-9AC0-43BD-916B-7DC2040966BF";
paths = (
{
closed = 1;
nodes = (
"159 700 LINE",
"159 390 LINE",
"61 390 LINE",
"61 260 LINE",
"159 260 LINE",
"159 0 LINE",
"327 0 LINE SMOOTH",
"564 0 OFFCURVE",
"680 153 OFFCURVE",
"680 350 CURVE SMOOTH",
"680 548 OFFCURVE",
"571 700 OFFCURVE",
"322 700 CURVE SMOOTH"
);
},
{
closed = 1;
nodes = (
"302 132 LINE",
"302 260 LINE",
"425 260 LINE",
"425 390 LINE",
"302 390 LINE",
"302 568 LINE",
"322 568 LINE SMOOTH",
"478 568 OFFCURVE",
"537 490 OFFCURVE",
"537 350 CURVE SMOOTH",
"537 213 OFFCURVE",
"473 132 OFFCURVE",
"327 132 CURVE SMOOTH"
);
}
);
width = 721;
}
);
leftKerningGroup = scaron;
note = Eth;
rightKerningGroup = quotesingle;
unicode = 00D0;
},
{
glyphname = Oslash;
layers = (
{
hints = (
{
horizontal = 1;
place = "{0, 132}";
type = Stem;
},
{
horizontal = 1;
place = "{570, 132}";
type = Stem;
},
{
place = "{45, 143}";
type = Stem;
},
{
place = "{610, 143}";
type = Stem;
}
);
layerId = "3B5F2A21-9AC0-43BD-916B-7DC2040966BF";
paths = (
{
closed = 1;
nodes = (
"568 750 LINE",
"457 786 LINE",
"431 701 LINE",
"421 702 OFFCURVE",
"410 702 OFFCURVE",
"399 702 CURVE SMOOTH",
"199 702 OFFCURVE",
"45 542 OFFCURVE",
"45 351 CURVE SMOOTH",
"45 217 OFFCURVE",
"121 100 OFFCURVE",
"233 41 CURVE",
"208 -44 LINE",
"320 -78 LINE",
"344 4 LINE",
"362 2 OFFCURVE",
"380 0 OFFCURVE",
"399 0 CURVE SMOOTH",
"569 0 OFFCURVE",
"753 130 OFFCURVE",
"753 351 CURVE SMOOTH",
"753 493 OFFCURVE",
"668 616 OFFCURVE",
"545 671 CURVE"
);
},
{
closed = 1;
nodes = (
"274 175 LINE",
"222 215 OFFCURVE",
"188 278 OFFCURVE",
"188 351 CURVE SMOOTH",
"188 470 OFFCURVE",
"279 566 OFFCURVE",
"392 570 CURVE"
);
},
{
closed = 1;
nodes = (
"383 133 LINE",
"505 540 LINE",
"567 502 OFFCURVE",
"610 432 OFFCURVE",
"610 351 CURVE SMOOTH",
"610 214 OFFCURVE",
"501 132 OFFCURVE",
"399 132 CURVE"
);
}
);
width = 798;
}
);
leftKerningGroup = C;
note = Oslash;
rightKerningGroup = O;
unicode = 00D8;
},
{
glyphname = OE;
layers = (
{
hints = (
{
horizontal = 1;
place = "{0, 132}";
type = Stem;
},
{
horizontal = 1;
place = "{287, 132}";
type = Stem;
},
{
horizontal = 1;
place = "{568, 132}";
type = Stem;
},
{
place = "{36, 138}";
type = Stem;
},
{
place = "{515, 143}";
type = Stem;
},
{
horizontal = 1;
place = "{558, 144}";
type = Stem;
}
);
layerId = "3B5F2A21-9AC0-43BD-916B-7DC2040966BF";
paths = (
{
closed = 1;
nodes = (
"515 0 LINE",
"1000 0 LINE",
"1000 132 LINE",
"658 132 LINE",
"658 287 LINE",
"933 287 LINE",
"933 419 LINE",
"658 419 LINE",
"658 568 LINE",
"999 568 LINE",
"999 700 LINE",
"515 700 LINE",
"515 679 LINE",
"475 694 OFFCURVE",
"432 702 OFFCURVE",
"387 702 CURVE SMOOTH",
"190 702 OFFCURVE",
"36 542 OFFCURVE",
"36 351 CURVE SMOOTH",
"36 157 OFFCURVE",
"193 0 OFFCURVE",
"387 0 CURVE SMOOTH",
"430 0 OFFCURVE",
"474 8 OFFCURVE",
"515 24 CURVE"
);
},
{
closed = 1;
nodes = (
"515 200 LINE",
"476 164 OFFCURVE",
"425 145 OFFCURVE",
"376 145 CURVE SMOOTH",
"266 145 OFFCURVE",
"174 236 OFFCURVE",
"174 351 CURVE SMOOTH",
"174 464 OFFCURVE",
"264 558 OFFCURVE",
"376 558 CURVE SMOOTH",
"429 558 OFFCURVE",
"479 536 OFFCURVE",
"515 501 CURVE"
);
}
);
width = 1045;
}
);
leftKerningGroup = C;
note = OE;
rightKerningGroup = E;
unicode = 0152;
},
{
glyphname = Thorn;
layers = (
{
hints = (
{
horizontal = 1;
place = "{146, 133}";
type = Stem;
},
{
horizontal = 1;
place = "{475, 133}";
type = Stem;
},
{
place = "{58, 143}";
type = Stem;
},
{
place = "{421, 143}";
type = Stem;
}
);
layerId = "3B5F2A21-9AC0-43BD-916B-7DC2040966BF";
paths = (
{
closed = 1;
nodes = (
"201 608 LINE",
"201 694 LINE",
"58 694 LINE",
"58 0 LINE",
"201 0 LINE",
"201 146 LINE",
"328 146 LINE SMOOTH",
"459 146 OFFCURVE",
"564 251 OFFCURVE",
"564 377 CURVE SMOOTH",
"564 436 OFFCURVE",
"535 500 OFFCURVE",
"495 540 CURVE SMOOTH",
"458 577 OFFCURVE",
"390 608 OFFCURVE",
"328 608 CURVE SMOOTH"
);
},
{
closed = 1;
nodes = (
"201 279 LINE",
"201 475 LINE",
"328 475 LINE SMOOTH",
"353 475 OFFCURVE",
"374 466 OFFCURVE",
"394 447 CURVE",
"410 430 OFFCURVE",
"421 406 OFFCURVE",
"421 377 CURVE SMOOTH",
"421 321 OFFCURVE",
"379 279 OFFCURVE",
"328 279 CURVE SMOOTH"
);
}
);
width = 600;
}
);
leftKerningGroup = scaron;
note = Thorn;
rightKerningGroup = quotesingle;
unicode = 00DE;
},
{
glyphname = ae;
layers = (
{
hints = (
{
horizontal = 1;
place = "{-11, 123}";
type = Stem;
},
{
horizontal = 1;
place = "{219, 108}";
type = Stem;
},
{
horizontal = 1;
place = "{402, 111}";
type = Stem;
},
{
place = "{27, 127}";
type = Stem;
},
{
place = "{314, 194}";
type = Stem;
},
{
place = "{713, 130.08}";
type = Stem;
},
{
horizontal = 1;
place = "{-5, 126}";
type = Stem;
},
{
horizontal = 1;
place = "{216, 101}";
type = Stem;
},
{
horizontal = 1;
place = "{389, 119}";
type = Stem;
}
);
layerId = "3B5F2A21-9AC0-43BD-916B-7DC2040966BF";
paths = (
{
closed = 1;
nodes = (
"837 219 LINE",
"854 329 OFFCURVE",
"834 390 OFFCURVE",
"795 437 CURVE SMOOTH",
"757 484 OFFCURVE",
"699 513 OFFCURVE",
"626 513 CURVE SMOOTH",
"534 513 OFFCURVE",
"467 473 OFFCURVE",
"425 417 CURVE",
"390 474 OFFCURVE",
"325 508 OFFCURVE",
"252 508 CURVE SMOOTH",
"155 508 OFFCURVE",
"93 458 OFFCURVE",
"56 406 CURVE",
"149 323 LINE",
"178 364 OFFCURVE",
"207 389 OFFCURVE",
"252 389 CURVE SMOOTH",
"291 389 OFFCURVE",
"314 360 OFFCURVE",
"314 318 CURVE SMOOTH",
"314 311 LINE",
"300 314 OFFCURVE",
"285 316 OFFCURVE",
"266 317 CURVE SMOOTH",
"147 327 OFFCURVE",
"27 293 OFFCURVE",
"27 153 CURVE SMOOTH",
"27 82 OFFCURVE",
"81 -5 OFFCURVE",
"203 -5 CURVE SMOOTH",
"266 -5 OFFCURVE",
"301 8 OFFCURVE",
"332 26 CURVE SMOOTH",
"362 44 OFFCURVE",
"390 70 OFFCURVE",
"413 101 CURVE",
"454 36 OFFCURVE",
"525 -11 OFFCURVE",
"627 -11 CURVE SMOOTH",
"732 -11 OFFCURVE",
"803 40 OFFCURVE",
"842 107 CURVE",
"739 191 LINE",
"725 147 OFFCURVE",
"685 112 OFFCURVE",
"627 112 CURVE SMOOTH",
"558 112 OFFCURVE",
"508 147 OFFCURVE",
"508 219 CURVE"
);
},
{
closed = 1;
nodes = (
"521 327 LINE",
"532 369 OFFCURVE",
"570 402 OFFCURVE",
"626 402 CURVE SMOOTH",
"677 402 OFFCURVE",
"716 359 OFFCURVE",
"713 327 CURVE"
);
},
{
closed = 1;
nodes = (
"170 121 OFFCURVE",
"154 141 OFFCURVE",
"154 161 CURVE SMOOTH",
"154 204 OFFCURVE",
"191 216 OFFCURVE",
"253 216 CURVE SMOOTH",
"272 216 OFFCURVE",
"300 214 OFFCURVE",
"314 212 CURVE",
"314 154 OFFCURVE",
"271 121 OFFCURVE",
"207 121 CURVE SMOOTH"
);
}
);
width = 890;
}
);
leftKerningGroup = a;
note = ae;
rightKerningGroup = e;
unicode = 00E6;
},
{
glyphname = eth;
layers = (
{
hints = (
{
horizontal = 1;
place = "{-3, 133}";
type = Stem;
},
{
horizontal = 1;
place = "{366, 132}";
type = Stem;
},
{
horizontal = 1;
place = "{607.13, 129.87}";
type = Stem;
},
{
place = "{74, 143}";
type = Stem;
},
{
place = "{371, 142}";
type = Stem;
}
);
layerId = "3B5F2A21-9AC0-43BD-916B-7DC2040966BF";
paths = (
{
closed = 1;
nodes = (
"413 728 LINE",
"331 798 LINE",
"256 711 LINE",
"202 733 OFFCURVE",
"140 744 OFFCURVE",
"71 737 CURVE",
"71 604 LINE",
"103 609 OFFCURVE",
"133 608 OFFCURVE",
"161 602 CURVE",
"135 572 LINE",
"216 502 LINE",
"258 551 LINE",
"275 536 OFFCURVE",
"291 518 OFFCURVE",
"304 498 CURVE",
"294 498 LINE SMOOTH",
"235 498 OFFCURVE",
"175 467 OFFCURVE",
"139 425 CURVE SMOOTH",
"100 381 OFFCURVE",
"74 314 OFFCURVE",
"74 248 CURVE SMOOTH",
"74 112 OFFCURVE",
"170 -3 OFFCURVE",
"294 -3 CURVE SMOOTH",
"355 -3 OFFCURVE",
"417 31 OFFCURVE",
"454 76 CURVE SMOOTH",
"490 120 OFFCURVE",
"513 184 OFFCURVE",
"513 248 CURVE SMOOTH",
"513 261 LINE SMOOTH",
"518 412 OFFCURVE",
"460 564 OFFCURVE",
"349 655 CURVE"
);
},
{
closed = 1;
nodes = (
"371 246 LINE SMOOTH",
"370 209 OFFCURVE",
"359 180 OFFCURVE",
"343 160 CURVE SMOOTH",
"324 136 OFFCURVE",
"311 130 OFFCURVE",
"294 130 CURVE SMOOTH",
"258 130 OFFCURVE",
"217 177 OFFCURVE",
"217 248 CURVE SMOOTH",
"217 286 OFFCURVE",
"230 319 OFFCURVE",
"246 338 CURVE SMOOTH",
"265 360 OFFCURVE",
"277 366 OFFCURVE",
"294 366 CURVE SMOOTH",
"329 366 OFFCURVE",
"370 319 OFFCURVE",
"371 249 CURVE SMOOTH"
);
}
);
width = 600;
}
);
leftKerningGroup = scaron;
note = eth;
rightKerningGroup = quotesingle;
unicode = 00F0;
},
{
glyphname = dotlessi;
layers = (
{
hints = (
{
horizontal = 1;
place = "{0, 506}";
type = Stem;
},
{
place = "{64, 137}";
type = Stem;
}
);
layerId = "3B5F2A21-9AC0-43BD-916B-7DC2040966BF";
paths = (
{
closed = 1;
nodes = (
"64 0 LINE",
"201 0 LINE",
"201 506 LINE",
"64 506 LINE"
);
}
);
width = 273;
}
);
leftKerningGroup = i;
note = dotlessi;
rightKerningGroup = i;
unicode = 0131;
},
{
glyphname = oslash;
layers = (
{
hints = (
{
horizontal = 1;
place = "{-126, 783}";
type = Stem;
},
{
place = "{35, 137}";
type = Stem;
},
{
place = "{418, 137}";
type = Stem;
},
{
horizontal = 1;
place = "{381, 129}";
type = Stem;
}
);
layerId = "3B5F2A21-9AC0-43BD-916B-7DC2040966BF";
paths = (
{
closed = 1;
nodes = (
"476 623 LINE",
"368 657 LINE",
"320 508 LINE",
"312 509 OFFCURVE",
"303 510 OFFCURVE",
"295 510 CURVE SMOOTH",
"152 510 OFFCURVE",
"35 394 OFFCURVE",
"35 251 CURVE SMOOTH",
"35 156 OFFCURVE",
"87 72 OFFCURVE",
"164 27 CURVE",
"125 -95 LINE",
"233 -126 LINE",
"272 -7 LINE",
"280 -8 OFFCURVE",
"287 -8 OFFCURVE",
"295 -8 CURVE SMOOTH",
"440 -8 OFFCURVE",
"555 110 OFFCURVE",
"555 251 CURVE SMOOTH",
"555 345 OFFCURVE",
"504 429 OFFCURVE",
"428 474 CURVE"
);
},
{
closed = 1;
nodes = (
"207 159 LINE",
"186 183 OFFCURVE",
"172 215 OFFCURVE",
"172 251 CURVE SMOOTH",
"172 319 OFFCURVE",
"220 373 OFFCURVE",
"279 381 CURVE"
);
},
{
closed = 1;
nodes = (
"385 341 LINE",
"405 317 OFFCURVE",
"418 286 OFFCURVE",
"418 251 CURVE SMOOTH",
"418 185 OFFCURVE",
"371 131 OFFCURVE",
"313 121 CURVE"
);
}
);
width = 591;
}
);
leftKerningGroup = c;
note = oslash;
rightKerningGroup = b;
unicode = 00F8;
},
{
glyphname = oe;
layers = (
{
hints = (
{
horizontal = 1;
place = "{-8, 128}";
type = Stem;
},
{
horizontal = 1;
place = "{219, 108}";
type = Stem;
},
{
horizontal = 1;
place = "{382, 128}";
type = Stem;
},
{
place = "{35, 137}";
type = Stem;
},
{
place = "{418, 202}";
type = Stem;
},
{
place = "{825, 129.53}";
type = Stem;
},
{
horizontal = 1;
place = "{402, 111}";
type = Stem;
},
{
horizontal = 1;
place = "{-11, 123}";
type = Stem;
}
);
layerId = "3B5F2A21-9AC0-43BD-916B-7DC2040966BF";
paths = (
{
closed = 1;
nodes = (
"949 219 LINE",
"965 329 OFFCURVE",
"945 390 OFFCURVE",
"907 437 CURVE SMOOTH",
"869 483 OFFCURVE",
"811 513 OFFCURVE",
"737 513 CURVE SMOOTH",
"629 513 OFFCURVE",
"556 459 OFFCURVE",
"517 387 CURVE",
"471 460 OFFCURVE",
"389 510 OFFCURVE",
"295 510 CURVE SMOOTH",
"152 510 OFFCURVE",
"35 394 OFFCURVE",
"35 251 CURVE SMOOTH",
"35 109 OFFCURVE",
"150 -8 OFFCURVE",
"295 -8 CURVE SMOOTH",
"389 -8 OFFCURVE",
"471 42 OFFCURVE",
"516 115 CURVE",
"556 43 OFFCURVE",
"629 -11 OFFCURVE",
"738 -11 CURVE SMOOTH",
"843 -11 OFFCURVE",
"914 40 OFFCURVE",
"954 107 CURVE",
"850 191 LINE",
"837 147 OFFCURVE",
"797 112 OFFCURVE",
"738 112 CURVE SMOOTH",
"669 112 OFFCURVE",
"620 147 OFFCURVE",
"620 219 CURVE"
);
},
{
closed = 1;
nodes = (
"632 327 LINE",
"644 369 OFFCURVE",
"681 402 OFFCURVE",
"737 402 CURVE SMOOTH",
"789 402 OFFCURVE",
"828 359 OFFCURVE",
"825 327 CURVE"
);
},
{
closed = 1;
nodes = (
"229 120 OFFCURVE",
"172 177 OFFCURVE",
"172 251 CURVE SMOOTH",
"172 325 OFFCURVE",
"230 382 OFFCURVE",
"295 382 CURVE SMOOTH",
"361 382 OFFCURVE",
"418 325 OFFCURVE",
"418 251 CURVE SMOOTH",
"418 178 OFFCURVE",
"361 120 OFFCURVE",
"295 120 CURVE SMOOTH"
);
}
);
width = 1003;
}
);
leftKerningGroup = c;
note = oe;
rightKerningGroup = e;
unicode = 0153;
},
{
glyphname = thorn;
layers = (
{
hints = (
{
horizontal = 1;
place = "{-19, 137}";
type = Stem;
},
{
horizontal = 1;
place = "{376, 137}";
type = Stem;
},
{
place = "{56, 143}";
type = Stem;
},
{
place = "{402, 143}";
type = Stem;
}
);
layerId = "3B5F2A21-9AC0-43BD-916B-7DC2040966BF";
paths = (
{
closed = 1;
nodes = (
"199 724 LINE",
"56 724 LINE",
"56 -247 LINE",
"199 -247 LINE",
"199 -6 LINE",
"223 -14 OFFCURVE",
"251 -19 OFFCURVE",
"282 -19 CURVE SMOOTH",
"434 -19 OFFCURVE",
"545 103 OFFCURVE",
"545 246 CURVE SMOOTH",
"545 389 OFFCURVE",
"434 513 OFFCURVE",
"282 513 CURVE SMOOTH",
"252 513 OFFCURVE",
"224 508 OFFCURVE",
"199 497 CURVE"
);
},
{
closed = 1;
nodes = (
"199 328 LINE",
"219 358 OFFCURVE",
"248 376 OFFCURVE",
"282 376 CURVE SMOOTH",
"350 376 OFFCURVE",
"402 319 OFFCURVE",
"402 246 CURVE SMOOTH",
"402 174 OFFCURVE",
"350 118 OFFCURVE",
"282 118 CURVE SMOOTH",
"241 118 OFFCURVE",
"205 144 OFFCURVE",
"199 153 CURVE"
);
}
);
width = 580;
}
);
leftKerningGroup = scaron;
note = thorn;
rightKerningGroup = quotesingle;
unicode = 00FE;
},
{
glyphname = germandbls;
layers = (
{
hints = (
{
horizontal = 1;
place = "{1, 138}";
type = Stem;
},
{
horizontal = 1;
place = "{306, 138}";
type = Stem;
},
{
horizontal = 1;
place = "{588, 138}";
type = Stem;
},
{
place = "{49, 143}";
type = Stem;
},
{
place = "{371, 143}";
type = Stem;
},
{
place = "{453, 143}";
type = Stem;
}
);
layerId = "3B5F2A21-9AC0-43BD-916B-7DC2040966BF";
paths = (
{
closed = 1;
nodes = (
"49 1 LINE",
"192 1 LINE",
"192 495 LINE SMOOTH",
"192 537 OFFCURVE",
"196 588 OFFCURVE",
"274 588 CURVE SMOOTH",
"352 588 OFFCURVE",
"371 551 OFFCURVE",
"371 514 CURVE SMOOTH",
"371 480 OFFCURVE",
"348 445 OFFCURVE",
"311 444 CURVE SMOOTH",
"297 444 LINE",
"297 306 LINE",
"363 306 LINE SMOOTH",
"427 306 OFFCURVE",
"453 273 OFFCURVE",
"453 223 CURVE SMOOTH",
"453 176 OFFCURVE",
"417 139 OFFCURVE",
"372 139 CURVE SMOOTH",
"354 139 OFFCURVE",
"346 142 OFFCURVE",
"330 151 CURVE",
"226 58 LINE",
"253 27 OFFCURVE",
"315 1 OFFCURVE",
"372 1 CURVE SMOOTH",
"496 1 OFFCURVE",
"596 101 OFFCURVE",
"596 223 CURVE SMOOTH",
"596 303 OFFCURVE",
"553 374 OFFCURVE",
"488 412 CURVE",
"506 447 OFFCURVE",
"514 484 OFFCURVE",
"514 514 CURVE SMOOTH",
"514 578 OFFCURVE",
"473 726 OFFCURVE",
"274 726 CURVE SMOOTH",
"62 726 OFFCURVE",
"49 577 OFFCURVE",
"49 495 CURVE SMOOTH"
);
}
);
width = 600;
}
);
leftKerningGroup = scaron;
note = germandbls;
rightKerningGroup = quotesingle;
unicode = 00DF;
},
{
glyphname = fi;
layers = (
{
hints = (
{
horizontal = 1;
place = "{380, 127}";
type = Stem;
},
{
horizontal = 1;
place = "{591, 120}";
type = Stem;
},
{
place = "{79, 137}";
type = Stem;
},
{
place = "{385, 143}";
type = Stem;
},
{
horizontal = 1;
place = "{559, 149}";
type = Stem;
},
{
place = "{400, 153}";
type = Stem;
}
);
layerId = "3B5F2A21-9AC0-43BD-916B-7DC2040966BF";
paths = (
{
closed = 1;
nodes = (
"79 507 LINE",
"-2 507 LINE",
"-2 380 LINE",
"79 380 LINE",
"79 0 LINE",
"216 0 LINE",
"216 380 LINE",
"385 380 LINE",
"385 1 LINE",
"528 1 LINE",
"528 507 LINE",
"216 507 LINE",
"216 542 LINE SMOOTH",
"216 579 OFFCURVE",
"232 591 OFFCURVE",
"248 591 CURVE SMOOTH",
"276 591 OFFCURVE",
"293 571 OFFCURVE",
"306 551 CURVE",
"373 658 LINE",
"314 704 OFFCURVE",
"259 711 OFFCURVE",
"231 711 CURVE SMOOTH",
"103 711 OFFCURVE",
"79 602 OFFCURVE",
"79 542 CURVE SMOOTH"
);
},
{
closed = 1;
nodes = (
"433 708 OFFCURVE",
"400 674 OFFCURVE",
"400 634 CURVE SMOOTH",
"400 593 OFFCURVE",
"433 559 OFFCURVE",
"477 559 CURVE SMOOTH",
"521 559 OFFCURVE",
"554 592 OFFCURVE",
"553 634 CURVE",
"553 674 OFFCURVE",
"520 708 OFFCURVE",
"477 708 CURVE SMOOTH"
);
}
);
width = 613;
}
);
leftKerningGroup = f;
note = fi;
rightKerningGroup = i;
unicode = FB01;
},
{
glyphname = fl;
layers = (
{
hints = (
{
horizontal = 1;
place = "{380, 127}";
type = Stem;
},
{
horizontal = 1;
place = "{591, 120}";
type = Stem;
},
{
place = "{96, 137}";
type = Stem;
},
{
place = "{440, 137}";
type = Stem;
}
);
layerId = "3B5F2A21-9AC0-43BD-916B-7DC2040966BF";
paths = (
{
closed = 1;
nodes = (
"233 380 LINE",
"355 380 LINE",
"355 507 LINE",
"233 507 LINE",
"233 542 LINE SMOOTH",
"233 579 OFFCURVE",
"249 591 OFFCURVE",
"265 591 CURVE SMOOTH",
"293 591 OFFCURVE",
"310 571 OFFCURVE",
"323 551 CURVE",
"390 658 LINE",
"331 704 OFFCURVE",
"276 711 OFFCURVE",
"248 711 CURVE SMOOTH",
"120 711 OFFCURVE",
"96 602 OFFCURVE",
"96 542 CURVE SMOOTH",
"96 507 LINE",
"15 507 LINE",
"15 380 LINE",
"96 380 LINE",
"96 0 LINE",
"233 0 LINE"
);
},
{
closed = 1;
nodes = (
"577 0 LINE",
"577 700 LINE",
"440 700 LINE",
"440 0 LINE"
);
}
);
width = 641;
}
);
leftKerningGroup = f;
note = fl;
unicode = FB02;
},
{
glyphname = Delta;
layers = (
{
hints = (
{
horizontal = 1;
place = "{4, 132}";
type = Stem;
},
{
place = "{7, 629}";
type = Stem;
}
);
layerId = "3B5F2A21-9AC0-43BD-916B-7DC2040966BF";
paths = (
{
closed = 1;
nodes = (
"322 762 LINE",
"7 4 LINE",
"636 4 LINE"
);
},
{
closed = 1;
nodes = (
"322 393 LINE",
"429 136 LINE",
"215 136 LINE"
);
}
);
width = 600;
}
);
note = Delta;
unicode = 0394;
},
{
glyphname = Omega;
layers = (
{
hints = (
{
horizontal = 1;
place = "{-1, 132}";
type = Stem;
},
{
horizontal = 1;
place = "{537, 132}";
type = Stem;
},
{
place = "{69, 143}";
type = Stem;
},
{
place = "{522, 282}";
type = Stem;
},
{
place = "{623, 143}";
type = Stem;
},
{
place = "{31, 282}";
type = Stem;
}
);
layerId = "3B5F2A21-9AC0-43BD-916B-7DC2040966BF";
paths = (
{
closed = 1;
nodes = (
"522 -1 LINE",
"804 -1 LINE",
"804 131 LINE",
"700 131 LINE",
"740 187 OFFCURVE",
"766 254 OFFCURVE",
"766 323 CURVE SMOOTH",
"766 500 OFFCURVE",
"612 669 OFFCURVE",
"418 669 CURVE SMOOTH",
"223 669 OFFCURVE",
"69 500 OFFCURVE",
"69 323 CURVE SMOOTH",
"69 253 OFFCURVE",
"95 187 OFFCURVE",
"136 131 CURVE",
"31 131 LINE",
"31 -1 LINE",
"313 -1 LINE",
"313 131 LINE",
"262 164 OFFCURVE",
"212 240 OFFCURVE",
"212 323 CURVE SMOOTH",
"212 432 OFFCURVE",
"309 537 OFFCURVE",
"418 537 CURVE SMOOTH",
"527 537 OFFCURVE",
"623 432 OFFCURVE",
"623 323 CURVE SMOOTH",
"623 238 OFFCURVE",
"573 163 OFFCURVE",
"522 131 CURVE"
);
}
);
width = 835;
}
);
note = Omega;
unicode = 03A9;
},
{
glyphname = mu;
layers = (
{
hints = (
{
horizontal = 1;
place = "{-24.04, 132.47}";
type = Stem;
},
{
place = "{80, 142}";
type = Stem;
},
{
place = "{350, 143}";
type = Stem;
},
{
horizontal = 1;
place = "{-27, 133}";
type = Stem;
}
);
layerId = "3B5F2A21-9AC0-43BD-916B-7DC2040966BF";
paths = (
{
closed = 1;
nodes = (
"493 474 LINE",
"350 474 LINE",
"350 175 LINE SMOOTH",
"351 130 OFFCURVE",
"334 106 OFFCURVE",
"295 106 CURVE SMOOTH",
"222 106 OFFCURVE",
"222 149 OFFCURVE",
"222 247 CURVE SMOOTH",
"222 474 LINE",
"80 474 LINE",
"80 -237 LINE",
"222 -237 LINE",
"222 -17 LINE",
"243 -23 OFFCURVE",
"268 -27 OFFCURVE",
"295 -27 CURVE SMOOTH",
"345 -27 OFFCURVE",
"385 -13 OFFCURVE",
"416 9 CURVE",
"448 -16 OFFCURVE",
"494 -31 OFFCURVE",
"562 -21 CURVE",
"562 122 LINE",
"504 89 OFFCURVE",
"493 121 OFFCURVE",
"493 153 CURVE SMOOTH"
);
}
);
width = 600;
}
);
note = mu;
unicode = 03BC;
},
{
glyphname = pi;
layers = (
{
hints = (
{
horizontal = 1;
place = "{-11.94, 132.37}";
type = Stem;
},
{
horizontal = 1;
place = "{352, 132}";
type = Stem;
},
{
place = "{88, 143}";
type = Stem;
},
{
place = "{350, 143}";
type = Stem;
}
);
layerId = "3B5F2A21-9AC0-43BD-916B-7DC2040966BF";
paths = (
{
closed = 1;
nodes = (
"493 352 LINE",
"594 352 LINE",
"594 484 LINE",
"6 484 LINE",
"6 352 LINE",
"88 352 LINE",
"88 -12 LINE",
"231 -12 LINE",
"231 352 LINE",
"350 352 LINE",
"350 165 LINE SMOOTH",
"350 123 OFFCURVE",
"375 -36 OFFCURVE",
"562 -9 CURVE",
"562 134 LINE",
"505 101 OFFCURVE",
"493 133 OFFCURVE",
"493 165 CURVE SMOOTH"
);
}
);
width = 600;
}
);
note = pi;
unicode = 03C0;
},
{
glyphname = ordfeminine;
layers = (
{
hints = (
{
horizontal = 1;
place = "{450, 80}";
type = Stem;
},
{
horizontal = 1;
place = "{591, 64}";
type = Stem;
},
{
horizontal = 1;
place = "{701, 75}";
type = Stem;
},
{
place = "{27, 81}";
type = Stem;
},
{
place = "{209, 87}";
type = Stem;
}
);
layerId = "3B5F2A21-9AC0-43BD-916B-7DC2040966BF";
paths = (
{
closed = 1;
nodes = (
"105 659 LINE",
"123 685 OFFCURVE",
"141 701 OFFCURVE",
"170 701 CURVE SMOOTH",
"194 701 OFFCURVE",
"209 682 OFFCURVE",
"209 655 CURVE SMOOTH",
"209 651 LINE",
"201 653 OFFCURVE",
"191 654 OFFCURVE",
"179 655 CURVE SMOOTH",
"103 661 OFFCURVE",
"27 640 OFFCURVE",
"27 551 CURVE SMOOTH",
"27 505 OFFCURVE",
"61 450 OFFCURVE",
"139 450 CURVE SMOOTH",
"167 450 OFFCURVE",
"196 458 OFFCURVE",
"209 471 CURVE",
"209 453 LINE",
"296 453 LINE",
"296 655 LINE SMOOTH",
"296 729 OFFCURVE",
"239 776 OFFCURVE",
"170 776 CURVE SMOOTH",
"108 776 OFFCURVE",
"69 744 OFFCURVE",
"45 711 CURVE"
);
},
{
closed = 1;
nodes = (
"209 551 OFFCURVE",
"182 530 OFFCURVE",
"142 530 CURVE SMOOTH",
"118 530 OFFCURVE",
"108 543 OFFCURVE",
"108 556 CURVE SMOOTH",
"108 583 OFFCURVE",
"131 591 OFFCURVE",
"170 591 CURVE SMOOTH",
"183 591 OFFCURVE",
"200 590 OFFCURVE",
"209 588 CURVE"
);
}
);
width = 362;
}
);
note = ordfeminine;
unicode = 00AA;
},
{
glyphname = ordmasculine;
layers = (
{
hints = (
{
horizontal = 1;
place = "{446, 81}";
type = Stem;
},
{
horizontal = 1;
place = "{693, 81}";
type = Stem;
},
{
place = "{35, 88}";
type = Stem;
},
{
place = "{278, 87}";
type = Stem;
}
);
layerId = "3B5F2A21-9AC0-43BD-916B-7DC2040966BF";
paths = (
{
closed = 1;
nodes = (
"365 700 OFFCURVE",
"292 774 OFFCURVE",
"200 774 CURVE SMOOTH",
"110 774 OFFCURVE",
"35 701 OFFCURVE",
"35 610 CURVE SMOOTH",
"35 520 OFFCURVE",
"109 446 OFFCURVE",
"200 446 CURVE SMOOTH",
"292 446 OFFCURVE",
"365 521 OFFCURVE",
"365 610 CURVE SMOOTH"
);
},
{
closed = 1;
nodes = (
"278 564 OFFCURVE",
"242 527 OFFCURVE",
"200 527 CURVE SMOOTH",
"159 527 OFFCURVE",
"123 563 OFFCURVE",
"123 610 CURVE SMOOTH",
"123 657 OFFCURVE",
"159 693 OFFCURVE",
"200 693 CURVE SMOOTH",
"242 693 OFFCURVE",
"278 657 OFFCURVE",
"278 610 CURVE SMOOTH"
);
}
);
width = 402;
}
);
note = ordmasculine;
unicode = 00BA;
},
{
glyphname = zero;
layers = (
{
hints = (
{
horizontal = 1;
place = "{-5, 131}";
type = Stem;
},
{
horizontal = 1;
place = "{572, 132}";
type = Stem;
},
{
place = "{46, 143}";
type = Stem;
},
{
place = "{420, 143}";
type = Stem;
}
);
layerId = "3B5F2A21-9AC0-43BD-916B-7DC2040966BF";
paths = (
{
closed = 1;
nodes = (
"449 -5 OFFCURVE",
"563 120 OFFCURVE",
"563 352 CURVE SMOOTH",
"563 585 OFFCURVE",
"449 704 OFFCURVE",
"305 704 CURVE SMOOTH",
"161 704 OFFCURVE",
"46 585 OFFCURVE",
"46 352 CURVE SMOOTH",
"46 120 OFFCURVE",
"160 -5 OFFCURVE",
"305 -5 CURVE SMOOTH"
);
},
{
closed = 1;
nodes = (
"249 126 OFFCURVE",
"189 191 OFFCURVE",
"189 352 CURVE SMOOTH",
"189 512 OFFCURVE",
"247 572 OFFCURVE",
"305 572 CURVE SMOOTH",
"362 572 OFFCURVE",
"420 512 OFFCURVE",
"420 352 CURVE SMOOTH",
"420 191 OFFCURVE",
"360 126 OFFCURVE",
"305 126 CURVE SMOOTH"
);
}
);
width = 609;
}
);
note = zero;
unicode = 0030;
},
{
glyphname = one;
layers = (
{
hints = (
{
horizontal = 1;
place = "{0, 133}";
type = Stem;
},
{
place = "{167, 142}";
type = Stem;
}
);
layerId = "3B5F2A21-9AC0-43BD-916B-7DC2040966BF";
paths = (
{
closed = 1;
nodes = (
"24 0 LINE",
"455 0 LINE",
"455 133 LINE",
"309 133 LINE",
"309 700 LINE",
"205 700 LINE",
"31 628 LINE",
"31 466 LINE",
"167 536 LINE",
"167 133 LINE",
"24 133 LINE"
);
}
);
width = 480;
}
);
note = one;
unicode = 0031;
},
{
glyphname = two;
layers = (
{
hints = (
{
horizontal = 1;
place = "{0, 138}";
type = Stem;
},
{
horizontal = 1;
place = "{569, 137}";
type = Stem;
},
{
place = "{337.33, 142.46}";
type = Stem;
}
);
layerId = "3B5F2A21-9AC0-43BD-916B-7DC2040966BF";
paths = (
{
closed = 1;
nodes = (
"20 0 LINE",
"495 0 LINE",
"495 138 LINE",
"220 138 LINE",
"300 212 OFFCURVE",
"391 298 OFFCURVE",
"434 358 CURVE SMOOTH",
"550 520 OFFCURVE",
"432 706 OFFCURVE",
"251 706 CURVE SMOOTH",
"135 706 OFFCURVE",
"40 621 OFFCURVE",
"25 515 CURVE",
"165 470 LINE",
"166 528 OFFCURVE",
"202 569 OFFCURVE",
"251 569 CURVE SMOOTH",
"323 569 OFFCURVE",
"364 502 OFFCURVE",
"318 438 CURVE SMOOTH",
"261 359 OFFCURVE",
"107 228 OFFCURVE",
"20 138 CURVE"
);
}
);
width = 525;
}
);
note = two;
unicode = 0032;
},
{
glyphname = three;
lastChange = "2019-02-04 10:51:16 +0000";
layers = (
{
hints = (
{
horizontal = 1;
place = "{-3, 133}";
type = Stem;
},
{
horizontal = 1;
place = "{323, 116}";
type = Stem;
},
{
horizontal = 1;
place = "{571, 133}";
type = Stem;
},
{
place = "{52, 125}";
type = Stem;
},
{
place = "{331, 142}";
type = Stem;
},
{
place = "{294, 143}";
type = Stem;
}
);
layerId = "3B5F2A21-9AC0-43BD-916B-7DC2040966BF";
paths = (
{
closed = 1;
nodes = (
"177 494 LINE",
"179 511 OFFCURVE",
"181 571 OFFCURVE",
"238 571 CURVE SMOOTH",
"268 571 OFFCURVE",
"294 546 OFFCURVE",
"294 510 CURVE SMOOTH",
"294 473 OFFCURVE",
"275 439 OFFCURVE",
"214 439 CURVE SMOOTH",
"200 439 LINE",
"200 323 LINE",
"211 323 LINE SMOOTH",
"295 323 OFFCURVE",
"331 277 OFFCURVE",
"331 223 CURVE SMOOTH",
"331 168 OFFCURVE",
"295 130 OFFCURVE",
"238 130 CURVE SMOOTH",
"191 130 OFFCURVE",
"167 160 OFFCURVE",
"160 201 CURVE",
"30 145 LINE",
"45 75 OFFCURVE",
"128 -3 OFFCURVE",
"238 -3 CURVE SMOOTH",
"379 -3 OFFCURVE",
"473 102 OFFCURVE",
"473 223 CURVE SMOOTH",
"473 289 OFFCURVE",
"450 349 OFFCURVE",
"380 391 CURVE",
"428 424 OFFCURVE",
"437 466 OFFCURVE",
"437 510 CURVE SMOOTH",
"437 615 OFFCURVE",
"349 704 OFFCURVE",
"238 704 CURVE SMOOTH",
"123 704 OFFCURVE",
"58 620 OFFCURVE",
"52 516 CURVE"
);
}
);
width = 502;
}
);
note = three;
unicode = 0033;
},
{
glyphname = four;
layers = (
{
hints = (
{
horizontal = 1;
place = "{135, 141}";
type = Stem;
},
{
place = "{350, 143}";
type = Stem;
}
);
layerId = "3B5F2A21-9AC0-43BD-916B-7DC2040966BF";
paths = (
{
closed = 1;
nodes = (
"493 0 LINE",
"493 135 LINE",
"563 135 LINE",
"563 276 LINE",
"493 276 LINE",
"493 700 LINE",
"356 700 LINE",
"43 251 LINE",
"43 135 LINE",
"350 135 LINE",
"350 0 LINE"
);
},
{
closed = 1;
nodes = (
"220 276 LINE",
"350 471 LINE",
"350 276 LINE"
);
}
);
width = 625;
}
);
leftKerningGroup = four;
note = four;
unicode = 0034;
},
{
glyphname = five;
layers = (
{
hints = (
{
horizontal = 1;
place = "{339.38, 128.62}";
type = Stem;
},
{
horizontal = 1;
place = "{568, 132}";
type = Stem;
},
{
place = "{13, 472.71}";
type = Stem;
},
{
horizontal = 1;
place = "{-3.46, 134.46}";
type = Stem;
},
{
place = "{342, 143.71}";
type = Stem;
}
);
layerId = "3B5F2A21-9AC0-43BD-916B-7DC2040966BF";
paths = (
{
closed = 1;
nodes = (
"240 568 LINE",
"464 568 LINE",
"464 700 LINE",
"128 700 LINE",
"38 407 LINE",
"107 291 LINE",
"186 341 OFFCURVE",
"218 343 OFFCURVE",
"259 337 CURVE SMOOTH",
"309 329 OFFCURVE",
"351 273 OFFCURVE",
"342 216 CURVE SMOOTH",
"332 155 OFFCURVE",
"288 121 OFFCURVE",
"227 131 CURVE SMOOTH",
"176 139 OFFCURVE",
"158 161 OFFCURVE",
"135 214 CURVE",
"13 148 LINE",
"35 81 OFFCURVE",
"106 17 OFFCURVE",
"204 0 CURVE SMOOTH",
"348 -23 OFFCURVE",
"462 67 OFFCURVE",
"483 195 CURVE SMOOTH",
"504 324 OFFCURVE",
"412 447 OFFCURVE",
"281 468 CURVE SMOOTH",
"255 472 OFFCURVE",
"231 471 OFFCURVE",
"207 467 CURVE"
);
}
);
width = 538;
}
);
note = five;
unicode = 0035;
},
{
glyphname = six;
layers = (
{
hints = (
{
horizontal = 1;
place = "{-3.93, 137.93}";
type = Stem;
},
{
horizontal = 1;
place = "{303.8, 135.2}";
type = Stem;
},
{
place = "{30.26, 142.15}";
type = Stem;
},
{
place = "{336.89, 142.62}";
type = Stem;
}
);
layerId = "3B5F2A21-9AC0-43BD-916B-7DC2040966BF";
paths = (
{
closed = 1;
nodes = (
"437 700 LINE",
"274 700 LINE",
"61 332 LINE",
"59 329 LINE",
"54 320 LINE",
"7 225 OFFCURVE",
"31 113 OFFCURVE",
"111 47 CURVE SMOOTH",
"117 42 OFFCURVE",
"124 38 OFFCURVE",
"130 33 CURVE",
"145 23 OFFCURVE",
"162 15 OFFCURVE",
"180 8 CURVE",
"280 -26 OFFCURVE",
"396 14 OFFCURVE",
"450 108 CURVE SMOOTH",
"511 215 OFFCURVE",
"475 350 OFFCURVE",
"367 412 CURVE SMOOTH",
"341 427 OFFCURVE",
"314 436 OFFCURVE",
"286 439 CURVE"
);
},
{
closed = 1;
nodes = (
"214 145 LINE SMOOTH",
"175 167 OFFCURVE",
"160 220 OFFCURVE",
"183 261 CURVE SMOOTH",
"207 302 OFFCURVE",
"255 316 OFFCURVE",
"296 293 CURVE SMOOTH",
"335 270 OFFCURVE",
"349 217 OFFCURVE",
"326 177 CURVE SMOOTH",
"310 148 OFFCURVE",
"281 133 OFFCURVE",
"252 134 CURVE",
"240 135 OFFCURVE",
"230 137 OFFCURVE",
"221 141 CURVE"
);
}
);
width = 505;
}
);
note = six;
unicode = 0036;
},
{
glyphname = seven;
layers = (
{
hints = (
{
horizontal = 1;
place = "{563, 137}";
type = Stem;
},
{
place = "{14, 577}";
type = Stem;
}
);
layerId = "3B5F2A21-9AC0-43BD-916B-7DC2040966BF";
paths = (
{
closed = 1;
nodes = (
"275 442 LINE",
"14 0 LINE",
"178 0 LINE",
"591 700 LINE",
"76 700 LINE",
"76 563 LINE",
"346 563 LINE"
);
}
);
width = 600;
}
);
note = seven;
unicode = 0037;
},
{
glyphname = eight;
layers = (
{
hints = (
{
horizontal = 1;
place = "{-3.26, 132.78}";
type = Stem;
},
{
horizontal = 1;
place = "{571.31, 132.87}";
type = Stem;
},
{
place = "{22.78, 142.46}";
type = Stem;
},
{
place = "{350.43, 142.2}";
type = Stem;
},
{
place = "{48.41, 142.7}";
type = Stem;
},
{
place = "{324.86, 142.84}";
type = Stem;
}
);
layerId = "3B5F2A21-9AC0-43BD-916B-7DC2040966BF";
paths = (
{
closed = 1;
nodes = (
"427 378 OFFCURVE",
"434 388 OFFCURVE",
"440 398 CURVE SMOOTH",
"497 498 OFFCURVE",
"464 618 OFFCURVE",
"362 677 CURVE SMOOTH",
"263 734 OFFCURVE",
"132 698 OFFCURVE",
"76 601 CURVE SMOOTH",
"31 523 OFFCURVE",
"42 432 OFFCURVE",
"98 369 CURVE",
"81 355 OFFCURVE",
"66 339 OFFCURVE",
"55 322 CURVE SMOOTH",
"-11 215 OFFCURVE",
"27 85 OFFCURVE",
"143 24 CURVE SMOOTH",
"253 -33 OFFCURVE",
"397 2 OFFCURVE",
"460 103 CURVE SMOOTH",
"517 194 OFFCURVE",
"497 301 OFFCURVE",
"419 369 CURVE"
);
},
{
closed = 1;
nodes = (
"221 571 OFFCURVE",
"258 581 OFFCURVE",
"291 562 CURVE SMOOTH",
"323 544 OFFCURVE",
"335 498 OFFCURVE",
"316 464 CURVE SMOOTH",
"303 441 OFFCURVE",
"285 430 OFFCURVE",
"260 428 CURVE",
"242 430 OFFCURVE",
"237 431 OFFCURVE",
"225 437 CURVE",
"193 456 OFFCURVE",
"181 502 OFFCURVE",
"200 535 CURVE SMOOTH"
);
},
{
closed = 1;
nodes = (
"313 131 OFFCURVE",
"256 117 OFFCURVE",
"209 141 CURVE SMOOTH",
"167 163 OFFCURVE",
"153 214 OFFCURVE",
"176 252 CURVE SMOOTH",
"194 280 OFFCURVE",
"220 293 OFFCURVE",
"258 296 CURVE",
"280 294 OFFCURVE",
"290 292 OFFCURVE",
"306 283 CURVE",
"349 261 OFFCURVE",
"363 211 OFFCURVE",
"339 173 CURVE SMOOTH"
);
}
);
width = 516;
}
);
note = eight;
unicode = 0038;
},
{
glyphname = nine;
layers = (
{
hints = (
{
horizontal = 1;
place = "{277, 134.77}";
type = Stem;
},
{
horizontal = 1;
place = "{566, 138.57}";
type = Stem;
},
{
place = "{24.25, 142.83}";
type = Stem;
},
{
place = "{315.97, 142.55}";
type = Stem;
}
);
layerId = "3B5F2A21-9AC0-43BD-916B-7DC2040966BF";
paths = (
{
closed = 1;
nodes = (
"433 388 LINE",
"435 391 LINE",
"493 505 OFFCURVE",
"442 646 OFFCURVE",
"312 693 CURVE SMOOTH",
"215 726 OFFCURVE",
"104 687 OFFCURVE",
"53 596 CURVE SMOOTH",
"-6 492 OFFCURVE",
"28 363 OFFCURVE",
"133 303 CURVE SMOOTH",
"156 290 OFFCURVE",
"180 281 OFFCURVE",
"205 277 CURVE",
"45 0 LINE",
"208 0 LINE",
"426 375 LINE",
"427 378 OFFCURVE",
"429 380 OFFCURVE",
"430 382 CURVE SMOOTH"
);
},
{
closed = 1;
nodes = (
"279 556 LINE",
"311 536 OFFCURVE",
"325 495 OFFCURVE",
"310 460 CURVE",
"300 441 LINE",
"277 411 OFFCURVE",
"237 403 OFFCURVE",
"204 422 CURVE SMOOTH",
"169 442 OFFCURVE",
"156 491 OFFCURVE",
"177 528 CURVE SMOOTH",
"191 552 OFFCURVE",
"215 566 OFFCURVE",
"240 566 CURVE SMOOTH",
"254 566 OFFCURVE",
"266 563 OFFCURVE",
"277 557 CURVE"
);
}
);
width = 471;
}
);
note = nine;
unicode = 0039;
},
{
glyphname = fraction;
layers = (
{
hints = (
{
horizontal = 1;
place = "{-23, 906}";
type = Stem;
},
{
place = "{0, 673}";
type = Stem;
}
);
layerId = "3B5F2A21-9AC0-43BD-916B-7DC2040966BF";
paths = (
{
closed = 1;
nodes = (
"673 808 LINE",
"555 883 LINE",
"0 52 LINE",
"118 -23 LINE"
);
}
);
width = 673;
}
);
note = fraction;
unicode = 2044;
},
{
glyphname = onehalf;
layers = (
{
hints = (
{
horizontal = 1;
place = "{-16, 121}";
type = Stem;
},
{
place = "{135, 143}";
type = Stem;
},
{
place = "{656.21, 129.3}";
type = Stem;
},
{
place = "{494, 303}";
type = Stem;
},
{
horizontal = 1;
place = "{299, 123}";
type = Stem;
},
{
place = "{492, 113}";
type = Stem;
}
);
layerId = "3B5F2A21-9AC0-43BD-916B-7DC2040966BF";
paths = (
{
closed = 1;
nodes = (
"278 918 LINE",
"170 918 LINE",
"53 851 LINE",
"53 678 LINE",
"135 739 LINE",
"135 487 LINE",
"278 487 LINE"
);
},
{
closed = 1;
nodes = (
"185 -23 LINE",
"740 808 LINE",
"622 883 LINE",
"67 52 LINE"
);
},
{
closed = 1;
nodes = (
"494 -16 LINE",
"797 -16 LINE",
"797 105 LINE",
"673 105 LINE",
"698 138 OFFCURVE",
"742 183 OFFCURVE",
"757 203 CURVE SMOOTH",
"830 304 OFFCURVE",
"754 422 OFFCURVE",
"638 422 CURVE SMOOTH",
"557 422 OFFCURVE",
"492 359 OFFCURVE",
"492 288 CURVE",
"605 257 LINE",
"605 281 OFFCURVE",
"619 299 OFFCURVE",
"636 299 CURVE SMOOTH",
"654 299 OFFCURVE",
"664 287 OFFCURVE",
"649 266 CURVE SMOOTH",
"619 224 OFFCURVE",
"522 118 OFFCURVE",
"494 79 CURVE"
);
}
);
width = 847;
}
);
note = onehalf;
unicode = 00BD;
},
{
glyphname = onequarter;
layers = (
{
hints = (
{
horizontal = 1;
place = "{60, 96}";
type = Stem;
},
{
place = "{135, 143}";
type = Stem;
},
{
place = "{568, 120}";
type = Stem;
}
);
layerId = "3B5F2A21-9AC0-43BD-916B-7DC2040966BF";
paths = (
{
closed = 1;
nodes = (
"278 918 LINE",
"170 918 LINE",
"53 851 LINE",
"53 678 LINE",
"135 739 LINE",
"135 487 LINE",
"278 487 LINE"
);
},
{
closed = 1;
nodes = (
"189 -23 LINE",
"744 808 LINE",
"626 883 LINE",
"71 52 LINE"
);
},
{
closed = 1;
nodes = (
"563 -17 LINE",
"688 -17 LINE",
"688 60 LINE",
"731 60 LINE",
"731 157 LINE",
"688 157 LINE",
"688 414 LINE",
"580 414 LINE",
"414 157 LINE",
"414 60 LINE",
"563 60 LINE"
);
},
{
closed = 1;
nodes = (
"568 156 LINE",
"519 156 LINE",
"568 233 LINE"
);
}
);
width = 789;
}
);
note = onequarter;
unicode = 00BC;
},
{
glyphname = threequarters;
layers = (
{
hints = (
{
horizontal = 1;
place = "{60, 96}";
type = Stem;
},
{
horizontal = 1;
place = "{477, 117}";
type = Stem;
},
{
horizontal = 1;
place = "{670, 80}";
type = Stem;
},
{
horizontal = 1;
place = "{808, 108}";
type = Stem;
},
{
place = "{187, 114}";
type = Stem;
},
{
place = "{568, 120}";
type = Stem;
},
{
place = "{206, 114}";
type = Stem;
}
);
layerId = "3B5F2A21-9AC0-43BD-916B-7DC2040966BF";
paths = (
{
closed = 1;
nodes = (
"118 769 LINE",
"122 797 OFFCURVE",
"136 808 OFFCURVE",
"157 808 CURVE SMOOTH",
"184 808 OFFCURVE",
"187 789 OFFCURVE",
"187 781 CURVE SMOOTH",
"187 760 OFFCURVE",
"169 756 OFFCURVE",
"155 752 CURVE",
"121 748 LINE",
"121 670 LINE",
"134 670 OFFCURVE",
"147 669 OFFCURVE",
"159 667 CURVE SMOOTH",
"182 663 OFFCURVE",
"206 652 OFFCURVE",
"206 629 CURVE SMOOTH",
"206 610 OFFCURVE",
"196 594 OFFCURVE",
"165 594 CURVE SMOOTH",
"146 594 OFFCURVE",
"121 602 OFFCURVE",
"108 634 CURVE",
"9 588 LINE",
"15 536 OFFCURVE",
"79 477 OFFCURVE",
"161 477 CURVE SMOOTH",
"256 477 OFFCURVE",
"320 549 OFFCURVE",
"320 629 CURVE SMOOTH",
"320 675 OFFCURVE",
"297 706 OFFCURVE",
"271 722 CURVE",
"282 728 OFFCURVE",
"301 750 OFFCURVE",
"301 782 CURVE SMOOTH",
"301 855 OFFCURVE",
"239 916 OFFCURVE",
"161 916 CURVE SMOOTH",
"91 916 OFFCURVE",
"37 867 OFFCURVE",
"22 795 CURVE"
);
},
{
closed = 1;
nodes = (
"172 -23 LINE",
"727 808 LINE",
"609 883 LINE",
"54 52 LINE"
);
},
{
closed = 1;
nodes = (
"563 -17 LINE",
"688 -17 LINE",
"688 60 LINE",
"731 60 LINE",
"731 157 LINE",
"688 157 LINE",
"688 414 LINE",
"580 414 LINE",
"414 157 LINE",
"414 60 LINE",
"563 60 LINE"
);
},
{
closed = 1;
nodes = (
"568 156 LINE",
"519 156 LINE",
"568 233 LINE"
);
}
);
width = 789;
}
);
note = threequarters;
unicode = 00BE;
},
{
glyphname = onesuperior;
layers = (
{
hints = (
{
horizontal = 1;
place = "{487, 431}";
type = Stem;
},
{
place = "{135, 143}";
type = Stem;
}
);
layerId = "3B5F2A21-9AC0-43BD-916B-7DC2040966BF";
paths = (
{
closed = 1;
nodes = (
"278 918 LINE",
"170 918 LINE",
"53 851 LINE",
"53 678 LINE",
"135 739 LINE",
"135 487 LINE",
"278 487 LINE"
);
}
);
width = 359;
}
);
note = onesuperior;
unicode = 00B9;
},
{
glyphname = twosuperior;
layers = (
{
hints = (
{
horizontal = 1;
place = "{484, 121}";
type = Stem;
},
{
place = "{37, 303}";
type = Stem;
},
{
horizontal = 1;
place = "{800, 123}";
type = Stem;
},
{
place = "{35, 113}";
type = Stem;
},
{
place = "{198.89, 128.78}";
type = Stem;
}
);
layerId = "3B5F2A21-9AC0-43BD-916B-7DC2040966BF";
paths = (
{
closed = 1;
nodes = (
"37 484 LINE",
"340 484 LINE",
"340 605 LINE",
"215 605 LINE",
"241 638 OFFCURVE",
"285 683 OFFCURVE",
"299 703 CURVE SMOOTH",
"372 804 OFFCURVE",
"297 923 OFFCURVE",
"181 923 CURVE SMOOTH",
"100 923 OFFCURVE",
"35 859 OFFCURVE",
"35 788 CURVE",
"148 757 LINE",
"148 781 OFFCURVE",
"161 800 OFFCURVE",
"178 800 CURVE SMOOTH",
"196 800 OFFCURVE",
"207 787 OFFCURVE",
"192 767 CURVE SMOOTH",
"162 724 OFFCURVE",
"65 618 OFFCURVE",
"37 579 CURVE"
);
}
);
width = 360;
}
);
note = twosuperior;
unicode = 00B2;
},
{
glyphname = threesuperior;
layers = (
{
hints = (
{
horizontal = 1;
place = "{477, 117}";
type = Stem;
},
{
horizontal = 1;
place = "{670, 80}";
type = Stem;
},
{
horizontal = 1;
place = "{808, 108}";
type = Stem;
},
{
place = "{187, 114}";
type = Stem;
},
{
place = "{206, 114}";
type = Stem;
}
);
layerId = "3B5F2A21-9AC0-43BD-916B-7DC2040966BF";
paths = (
{
closed = 1;
nodes = (
"118 769 LINE",
"122 797 OFFCURVE",
"136 808 OFFCURVE",
"157 808 CURVE SMOOTH",
"184 808 OFFCURVE",
"187 789 OFFCURVE",
"187 781 CURVE SMOOTH",
"187 760 OFFCURVE",
"169 756 OFFCURVE",
"155 752 CURVE",
"121 748 LINE",
"121 670 LINE",
"134 670 OFFCURVE",
"147 669 OFFCURVE",
"159 667 CURVE SMOOTH",
"182 663 OFFCURVE",
"206 652 OFFCURVE",
"206 629 CURVE SMOOTH",
"206 610 OFFCURVE",
"196 594 OFFCURVE",
"165 594 CURVE SMOOTH",
"146 594 OFFCURVE",
"121 602 OFFCURVE",
"108 634 CURVE",
"9 588 LINE",
"15 536 OFFCURVE",
"79 477 OFFCURVE",
"161 477 CURVE SMOOTH",
"256 477 OFFCURVE",
"320 549 OFFCURVE",
"320 629 CURVE SMOOTH",
"320 675 OFFCURVE",
"297 706 OFFCURVE",
"271 722 CURVE",
"282 728 OFFCURVE",
"301 750 OFFCURVE",
"301 782 CURVE SMOOTH",
"301 855 OFFCURVE",
"239 916 OFFCURVE",
"161 916 CURVE SMOOTH",
"91 916 OFFCURVE",
"37 867 OFFCURVE",
"22 795 CURVE"
);
}
);
width = 330;
}
);
note = threesuperior;
unicode = 00B3;
},
{
glyphname = foursuperior;
layers = (
{
hints = (
{
horizontal = 1;
place = "{561, 96}";
type = Stem;
},
{
place = "{219, 120}";
type = Stem;
}
);
layerId = "3B5F2A21-9AC0-43BD-916B-7DC2040966BF";
paths = (
{
closed = 1;
nodes = (
"214 484 LINE",
"339 484 LINE",
"339 561 LINE",
"382 561 LINE",
"382 658 LINE",
"339 658 LINE",
"339 915 LINE",
"231 915 LINE",
"65 658 LINE",
"65 561 LINE",
"214 561 LINE"
);
},
{
closed = 1;
nodes = (
"219 657 LINE",
"171 657 LINE",
"219 734 LINE"
);
}
);
width = 412;
}
);
note = foursuperior;
unicode = 2074;
},
{
glyphname = asterisk;
layers = (
{
hints = (
{
horizontal = 1;
place = "{382, 431}";
type = Stem;
},
{
place = "{169, 143}";
type = Stem;
}
);
layerId = "3B5F2A21-9AC0-43BD-916B-7DC2040966BF";
paths = (
{
closed = 1;
nodes = (
"241 478 LINE",
"310 383 LINE",
"426 460 LINE",
"352 562 LINE",
"470 600 LINE",
"427 726 LINE",
"312 689 LINE",
"312 813 LINE",
"169 813 LINE",
"169 690 LINE",
"54 726 LINE",
"11 600 LINE",
"130 562 LINE",
"57 458 LINE",
"174 382 LINE"
);
}
);
width = 600;
}
);
note = asterisk;
unicode = 002A;
},
{
glyphname = backslash;
layers = (
{
hints = (
{
horizontal = 1;
place = "{-113, 828}";
type = Stem;
},
{
place = "{18, 421}";
type = Stem;
}
);
layerId = "3B5F2A21-9AC0-43BD-916B-7DC2040966BF";
paths = (
{
closed = 1;
nodes = (
"152 715 LINE",
"18 670 LINE",
"305 -113 LINE",
"439 -68 LINE"
);
}
);
width = 600;
}
);
note = backslash;
unicode = 005C;
},
{
glyphname = bullet;
layers = (
{
hints = (
{
horizontal = 1;
place = "{163, 261}";
type = Stem;
},
{
place = "{163, 261}";
type = Stem;
}
);
layerId = "3B5F2A21-9AC0-43BD-916B-7DC2040966BF";
paths = (
{
closed = 1;
nodes = (
"365 163 OFFCURVE",
"424 221 OFFCURVE",
"424 293 CURVE SMOOTH",
"424 365 OFFCURVE",
"365 424 OFFCURVE",
"293 424 CURVE SMOOTH",
"221 424 OFFCURVE",
"163 365 OFFCURVE",
"163 293 CURVE SMOOTH",
"163 221 OFFCURVE",
"221 163 OFFCURVE",
"293 163 CURVE SMOOTH"
);
}
);
width = 600;
}
);
note = bullet;
unicode = 2022;
},
{
glyphname = colon;
layers = (
{
hints = (
{
horizontal = 1;
place = "{-31, 187}";
type = Stem;
},
{
horizontal = 1;
place = "{360, 188}";
type = Stem;
},
{
place = "{90, 193}";
type = Stem;
}
);
layerId = "3B5F2A21-9AC0-43BD-916B-7DC2040966BF";
paths = (
{
closed = 1;
nodes = (
"240 360 OFFCURVE",
"283 403 OFFCURVE",
"283 454 CURVE SMOOTH",
"283 505 OFFCURVE",
"240 548 OFFCURVE",
"187 548 CURVE SMOOTH",
"133 548 OFFCURVE",
"90 505 OFFCURVE",
"90 454 CURVE SMOOTH",
"90 403 OFFCURVE",
"133 360 OFFCURVE",
"187 360 CURVE SMOOTH"
);
},
{
closed = 1;
nodes = (
"240 -31 OFFCURVE",
"283 11 OFFCURVE",
"283 63 CURVE SMOOTH",
"283 114 OFFCURVE",
"240 156 OFFCURVE",
"187 156 CURVE SMOOTH",
"133 156 OFFCURVE",
"90 114 OFFCURVE",
"90 63 CURVE SMOOTH",
"90 11 OFFCURVE",
"133 -31 OFFCURVE",
"187 -31 CURVE SMOOTH"
);
}
);
width = 600;
}
);
leftKerningGroup = colon;
note = colon;
unicode = 003A;
},
{
glyphname = ellipsis;
layers = (
{
hints = (
{
horizontal = 1;
place = "{-31, 187}";
type = Stem;
},
{
place = "{90, 193}";
type = Stem;
},
{
place = "{377, 192}";
type = Stem;
},
{
place = "{651, 192}";
type = Stem;
}
);
layerId = "3B5F2A21-9AC0-43BD-916B-7DC2040966BF";
paths = (
{
closed = 1;
nodes = (
"240 -31 OFFCURVE",
"283 11 OFFCURVE",
"283 63 CURVE SMOOTH",
"283 114 OFFCURVE",
"240 156 OFFCURVE",
"187 156 CURVE SMOOTH",
"133 156 OFFCURVE",
"90 114 OFFCURVE",
"90 63 CURVE SMOOTH",
"90 11 OFFCURVE",
"133 -31 OFFCURVE",
"187 -31 CURVE SMOOTH"
);
},
{
closed = 1;
nodes = (
"527 -31 OFFCURVE",
"569 11 OFFCURVE",
"569 63 CURVE SMOOTH",
"569 114 OFFCURVE",
"527 156 OFFCURVE",
"473 156 CURVE SMOOTH",
"419 156 OFFCURVE",
"377 114 OFFCURVE",
"377 63 CURVE SMOOTH",
"377 11 OFFCURVE",
"419 -31 OFFCURVE",
"473 -31 CURVE SMOOTH"
);
},
{
closed = 1;
nodes = (
"801 -31 OFFCURVE",
"843 11 OFFCURVE",
"843 63 CURVE SMOOTH",
"843 114 OFFCURVE",
"801 156 OFFCURVE",
"747 156 CURVE SMOOTH",
"693 156 OFFCURVE",
"651 114 OFFCURVE",
"651 63 CURVE SMOOTH",
"651 11 OFFCURVE",
"693 -31 OFFCURVE",
"747 -31 CURVE SMOOTH"
);
}
);
width = 933;
}
);
note = ellipsis;
unicode = 2026;
},
{
glyphname = exclam;
layers = (
{
hints = (
{
horizontal = 1;
place = "{-31, 187}";
type = Stem;
},
{
place = "{107.5, 159}";
type = Stem;
},
{
place = "{90, 193}";
type = Stem;
}
);
layerId = "3B5F2A21-9AC0-43BD-916B-7DC2040966BF";
paths = (
{
closed = 1;
nodes = (
"276 720 LINE",
"98 720 LINE",
"117 228 LINE",
"257 228 LINE"
);
},
{
closed = 1;
nodes = (
"240 -31 OFFCURVE",
"283 11 OFFCURVE",
"283 63 CURVE SMOOTH",
"283 114 OFFCURVE",
"240 156 OFFCURVE",
"187 156 CURVE SMOOTH",
"133 156 OFFCURVE",
"90 114 OFFCURVE",
"90 63 CURVE SMOOTH",
"90 11 OFFCURVE",
"133 -31 OFFCURVE",
"187 -31 CURVE SMOOTH"
);
}
);
width = 403;
}
);
leftKerningGroup = exclam;
note = exclam;
unicode = 0021;
},
{
glyphname = exclamdown;
layers = (
{
hints = (
{
horizontal = 1;
place = "{563, 72}";
type = Stem;
},
{
place = "{111, 192}";
type = Stem;
}
);
layerId = "3B5F2A21-9AC0-43BD-916B-7DC2040966BF";
paths = (
{
closed = 1;
nodes = (
"261 822 OFFCURVE",
"303 779 OFFCURVE",
"303 728 CURVE SMOOTH",
"303 677 OFFCURVE",
"261 635 OFFCURVE",
"207 635 CURVE SMOOTH",
"153 635 OFFCURVE",
"111 677 OFFCURVE",
"111 728 CURVE SMOOTH",
"111 779 OFFCURVE",
"153 822 OFFCURVE",
"207 822 CURVE SMOOTH"
);
},
{
closed = 1;
nodes = (
"277 563 LINE",
"296 70 LINE",
"118 70 LINE",
"137 563 LINE"
);
}
);
width = 600;
}
);
note = exclamdown;
unicode = 00A1;
},
{
glyphname = numbersign;
layers = (
{
hints = (
{
horizontal = 1;
place = "{163, 132}";
type = Stem;
},
{
horizontal = 1;
place = "{431, 132}";
type = Stem;
},
{
place = "{12, 684}";
type = Stem;
}
);
layerId = "3B5F2A21-9AC0-43BD-916B-7DC2040966BF";
paths = (
{
closed = 1;
nodes = (
"624 295 LINE",
"535 295 LINE",
"572 431 LINE",
"696 431 LINE",
"696 563 LINE",
"609 563 LINE",
"658 744 LINE",
"511 744 LINE",
"461 563 LINE",
"357 563 LINE",
"404 738 LINE",
"257 738 LINE",
"210 563 LINE",
"84 563 LINE",
"84 431 LINE",
"174 431 LINE",
"137 295 LINE",
"12 295 LINE",
"12 163 LINE",
"101 163 LINE",
"58 3 LINE",
"205 3 LINE",
"249 163 LINE",
"352 163 LINE",
"308 3 LINE",
"455 3 LINE",
"499 163 LINE",
"624 163 LINE"
);
},
{
closed = 1;
nodes = (
"285 295 LINE",
"321 431 LINE",
"425 431 LINE",
"388 295 LINE"
);
}
);
width = 708;
}
);
note = numbersign;
unicode = 0023;
},
{
glyphname = periodcentered;
layers = (
{
hints = (
{
horizontal = 1;
place = "{209, 187}";
type = Stem;
},
{
place = "{90, 193}";
type = Stem;
}
);
layerId = "3B5F2A21-9AC0-43BD-916B-7DC2040966BF";
paths = (
{
closed = 1;
nodes = (
"240 209 OFFCURVE",
"283 251 OFFCURVE",
"283 302 CURVE SMOOTH",
"283 354 OFFCURVE",
"240 396 OFFCURVE",
"187 396 CURVE SMOOTH",
"133 396 OFFCURVE",
"90 354 OFFCURVE",
"90 302 CURVE SMOOTH",
"90 251 OFFCURVE",
"133 209 OFFCURVE",
"187 209 CURVE SMOOTH"
);
}
);
width = 600;
}
);
note = periodcentered;
unicode = 00B7;
},
{
glyphname = question;
layers = (
{
hints = (
{
horizontal = 1;
place = "{-41, 187}";
type = Stem;
},
{
horizontal = 1;
place = "{578, 132}";
type = Stem;
},
{
place = "{114, 148}";
type = Stem;
},
{
place = "{277, 142}";
type = Stem;
},
{
place = "{100, 193}";
type = Stem;
}
);
layerId = "3B5F2A21-9AC0-43BD-916B-7DC2040966BF";
paths = (
{
closed = 1;
nodes = (
"122 219 LINE",
"262 219 LINE",
"262 327 LINE",
"333 358 OFFCURVE",
"411 414 OFFCURVE",
"419 514 CURVE SMOOTH",
"429 627 OFFCURVE",
"335 717 OFFCURVE",
"214 710 CURVE SMOOTH",
"87 704 OFFCURVE",
"48 608 OFFCURVE",
"48 608 CURVE",
"167 541 LINE",
"167 541 OFFCURVE",
"185 577 OFFCURVE",
"222 578 CURVE SMOOTH",
"259 580 OFFCURVE",
"280 559 OFFCURVE",
"277 525 CURVE SMOOTH",
"272 468 OFFCURVE",
"196 445 OFFCURVE",
"106 418 CURVE"
);
},
{
closed = 1;
nodes = (
"250 -41 OFFCURVE",
"293 1 OFFCURVE",
"293 53 CURVE SMOOTH",
"293 104 OFFCURVE",
"250 146 OFFCURVE",
"197 146 CURVE SMOOTH",
"143 146 OFFCURVE",
"100 104 OFFCURVE",
"100 53 CURVE SMOOTH",
"100 1 OFFCURVE",
"143 -41 OFFCURVE",
"197 -41 CURVE SMOOTH"
);
}
);
width = 540;
}
);
leftKerningGroup = question;
note = question;
unicode = 003F;
},
{
glyphname = questiondown;
layers = (
{
hints = (
{
horizontal = 1;
place = "{507, 73}";
type = Stem;
},
{
place = "{83, 372.48}";
type = Stem;
}
);
layerId = "3B5F2A21-9AC0-43BD-916B-7DC2040966BF";
paths = (
{
closed = 1;
nodes = (
"286 767 OFFCURVE",
"328 725 OFFCURVE",
"328 673 CURVE SMOOTH",
"328 622 OFFCURVE",
"286 580 OFFCURVE",
"232 580 CURVE SMOOTH",
"178 580 OFFCURVE",
"135 622 OFFCURVE",
"135 673 CURVE SMOOTH",
"135 725 OFFCURVE",
"178 767 OFFCURVE",
"232 767 CURVE SMOOTH"
);
},
{
closed = 1;
nodes = (
"157 507 LINE",
"297 507 LINE",
"297 399 LINE",
"368 368 OFFCURVE",
"446 313 OFFCURVE",
"455 212 CURVE SMOOTH",
"464 99 OFFCURVE",
"370 9 OFFCURVE",
"250 16 CURVE SMOOTH",
"122 23 OFFCURVE",
"83 118 OFFCURVE",
"83 118 CURVE",
"202 185 LINE",
"202 185 OFFCURVE",
"221 150 OFFCURVE",
"257 148 CURVE SMOOTH",
"294 146 OFFCURVE",
"315 167 OFFCURVE",
"312 201 CURVE SMOOTH",
"307 259 OFFCURVE",
"231 281 OFFCURVE",
"142 309 CURVE"
);
}
);
width = 600;
}
);
note = questiondown;
unicode = 00BF;
},
{
glyphname = quotedbl;
layers = (
{
hints = (
{
horizontal = 1;
place = "{549, 218}";
type = Stem;
},
{
place = "{69, 116}";
type = Stem;
},
{
place = "{292, 115.5}";
type = Stem;
}
);
layerId = "3B5F2A21-9AC0-43BD-916B-7DC2040966BF";
paths = (
{
closed = 1;
nodes = (
"177 549 LINE",
"193 767 LINE",
"61 767 LINE",
"77 549 LINE"
);
},
{
closed = 1;
nodes = (
"400 549 LINE",
"415 767 LINE",
"284 767 LINE",
"300 549 LINE"
);
}
);
width = 465;
}
);
note = quotedbl;
unicode = 0022;
},
{
glyphname = semicolon;
layers = (
{
hints = (
{
horizontal = 1;
place = "{360, 188}";
type = Stem;
},
{
place = "{49, 192}";
type = Stem;
},
{
place = "{89, 123}";
type = Stem;
}
);
layerId = "3B5F2A21-9AC0-43BD-916B-7DC2040966BF";
paths = (
{
closed = 1;
nodes = (
"199 360 OFFCURVE",
"241 403 OFFCURVE",
"241 454 CURVE SMOOTH",
"241 505 OFFCURVE",
"199 548 OFFCURVE",
"145 548 CURVE SMOOTH",
"91 548 OFFCURVE",
"49 505 OFFCURVE",
"49 454 CURVE SMOOTH",
"49 403 OFFCURVE",
"91 360 OFFCURVE",
"145 360 CURVE SMOOTH"
);
},
{
closed = 1;
nodes = (
"212 116 LINE",
"85 116 LINE",
"93 12 LINE",
"35 -119 LINE",
"136 -165 LINE",
"212 -17 LINE"
);
}
);
width = 664;
}
);
leftKerningGroup = semicolon;
note = semicolon;
unicode = 003B;
},
{
glyphname = slash;
layers = (
{
hints = (
{
horizontal = 1;
place = "{-126, 864}";
type = Stem;
},
{
place = "{125, 360}";
type = Stem;
}
);
layerId = "3B5F2A21-9AC0-43BD-916B-7DC2040966BF";
paths = (
{
closed = 1;
nodes = (
"485 702 LINE",
"374 738 LINE",
"125 -92 LINE",
"236 -126 LINE"
);
}
);
width = 600;
}
);
note = slash;
unicode = 002F;
},
{
glyphname = underscore;
layers = (
{
hints = (
{
horizontal = 1;
place = "{-161, 132}";
type = Stem;
},
{
place = "{22, 539}";
type = Stem;
}
);
layerId = "3B5F2A21-9AC0-43BD-916B-7DC2040966BF";
paths = (
{
closed = 1;
nodes = (
"561 -161 LINE",
"561 -29 LINE",
"22 -29 LINE",
"22 -161 LINE"
);
}
);
width = 600;
}
);
note = underscore;
unicode = 005F;
},
{
glyphname = braceleft;
layers = (
{
hints = (
{
horizontal = 1;
place = "{-158, 131}";
type = Stem;
},
{
horizontal = 1;
place = "{244, 127}";
type = Stem;
},
{
horizontal = 1;
place = "{641, 132}";
type = Stem;
},
{
place = "{78, 149}";
type = Stem;
}
);
layerId = "3B5F2A21-9AC0-43BD-916B-7DC2040966BF";
paths = (
{
closed = 1;
nodes = (
"267 -20 LINE",
"264 -22 OFFCURVE",
"252 -27 OFFCURVE",
"240 -27 CURVE SMOOTH",
"229 -27 OFFCURVE",
"221 -18 OFFCURVE",
"221 21 CURVE SMOOTH",
"221 65 OFFCURVE",
"227 118 OFFCURVE",
"227 169 CURVE SMOOTH",
"227 218 OFFCURVE",
"226 269 OFFCURVE",
"175 308 CURVE",
"226 347 OFFCURVE",
"227 398 OFFCURVE",
"227 447 CURVE SMOOTH",
"227 498 OFFCURVE",
"221 551 OFFCURVE",
"221 595 CURVE SMOOTH",
"221 634 OFFCURVE",
"228 641 OFFCURVE",
"241 641 CURVE SMOOTH",
"255 641 OFFCURVE",
"272 634 OFFCURVE",
"283 631 CURVE",
"321 758 LINE",
"321 758 OFFCURVE",
"283 773 OFFCURVE",
"237 773 CURVE SMOOTH",
"172 773 OFFCURVE",
"78 740 OFFCURVE",
"78 595 CURVE SMOOTH",
"78 537 OFFCURVE",
"83 483 OFFCURVE",
"83 441 CURVE SMOOTH",
"83 377 OFFCURVE",
"55 371 OFFCURVE",
"20 371 CURVE",
"20 244 LINE",
"55 244 OFFCURVE",
"83 244 OFFCURVE",
"83 175 CURVE SMOOTH",
"83 133 OFFCURVE",
"78 79 OFFCURVE",
"78 21 CURVE SMOOTH",
"78 -125 OFFCURVE",
"165 -158 OFFCURVE",
"233 -158 CURVE SMOOTH",
"284 -158 OFFCURVE",
"329 -139 OFFCURVE",
"329 -139 CURVE"
);
}
);
width = 334;
}
);
note = braceleft;
rightKerningGroup = braceleft;
unicode = 007B;
},
{
glyphname = braceright;
layers = (
{
hints = (
{
horizontal = 1;
place = "{-158, 931}";
type = Stem;
},
{
place = "{5, 309}";
type = Stem;
}
);
layerId = "3B5F2A21-9AC0-43BD-916B-7DC2040966BF";
paths = (
{
closed = 1;
nodes = (
"68 -20 LINE",
"71 -22 OFFCURVE",
"82 -27 OFFCURVE",
"95 -27 CURVE SMOOTH",
"105 -27 OFFCURVE",
"114 -18 OFFCURVE",
"114 21 CURVE SMOOTH",
"114 65 OFFCURVE",
"108 118 OFFCURVE",
"108 169 CURVE SMOOTH",
"108 218 OFFCURVE",
"109 269 OFFCURVE",
"159 308 CURVE",
"109 347 OFFCURVE",
"108 398 OFFCURVE",
"108 447 CURVE SMOOTH",
"108 498 OFFCURVE",
"114 551 OFFCURVE",
"114 595 CURVE SMOOTH",
"114 634 OFFCURVE",
"107 641 OFFCURVE",
"94 641 CURVE SMOOTH",
"80 641 OFFCURVE",
"62 634 OFFCURVE",
"52 631 CURVE",
"13 758 LINE",
"13 758 OFFCURVE",
"52 773 OFFCURVE",
"98 773 CURVE SMOOTH",
"163 773 OFFCURVE",
"256 740 OFFCURVE",
"256 595 CURVE SMOOTH",
"256 537 OFFCURVE",
"251 483 OFFCURVE",
"251 441 CURVE SMOOTH",
"251 377 OFFCURVE",
"280 371 OFFCURVE",
"314 371 CURVE",
"314 244 LINE",
"280 244 OFFCURVE",
"251 244 OFFCURVE",
"251 175 CURVE SMOOTH",
"251 133 OFFCURVE",
"256 79 OFFCURVE",
"256 21 CURVE SMOOTH",
"256 -125 OFFCURVE",
"170 -158 OFFCURVE",
"102 -158 CURVE SMOOTH",
"50 -158 OFFCURVE",
"5 -139 OFFCURVE",
"5 -139 CURVE"
);
}
);
width = 334;
}
);
note = braceright;
unicode = 007D;
},
{
glyphname = bracketleft;
layers = (
{
hints = (
{
horizontal = 1;
place = "{-130, 132}";
type = Stem;
},
{
horizontal = 1;
place = "{638, 132}";
type = Stem;
},
{
place = "{50, 143}";
type = Stem;
}
);
layerId = "3B5F2A21-9AC0-43BD-916B-7DC2040966BF";
paths = (
{
closed = 1;
nodes = (
"193 2 LINE",
"193 638 LINE",
"322 638 LINE",
"322 770 LINE",
"50 770 LINE",
"50 -130 LINE",
"322 -130 LINE",
"322 2 LINE"
);
}
);
width = 392;
}
);
note = bracketleft;
rightKerningGroup = bracketleft;
unicode = 005B;
},
{
glyphname = bracketright;
layers = (
{
hints = (
{
horizontal = 1;
place = "{-130, 900}";
type = Stem;
},
{
place = "{70, 272}";
type = Stem;
}
);
layerId = "3B5F2A21-9AC0-43BD-916B-7DC2040966BF";
paths = (
{
closed = 1;
nodes = (
"70 2 LINE",
"200 2 LINE",
"200 638 LINE",
"70 638 LINE",
"70 770 LINE",
"342 770 LINE",
"342 -130 LINE",
"70 -130 LINE"
);
}
);
width = 392;
}
);
leftKerningGroup = bracketright;
note = bracketright;
unicode = 005D;
},
{
glyphname = parenleft;
layers = (
{
hints = (
{
horizontal = 1;
place = "{-98, 831}";
type = Stem;
},
{
place = "{50, 143}";
type = Stem;
}
);
layerId = "3B5F2A21-9AC0-43BD-916B-7DC2040966BF";
paths = (
{
closed = 1;
nodes = (
"294 -32 LINE",
"294 -32 OFFCURVE",
"193 139 OFFCURVE",
"193 324 CURVE SMOOTH",
"193 507 OFFCURVE",
"292 663 OFFCURVE",
"292 663 CURVE",
"171 733 LINE",
"171 733 OFFCURVE",
"50 543 OFFCURVE",
"50 324 CURVE SMOOTH",
"50 106 OFFCURVE",
"170 -98 OFFCURVE",
"170 -98 CURVE"
);
}
);
width = 324;
}
);
note = parenleft;
rightKerningGroup = parenleft;
unicode = 0028;
},
{
glyphname = parenright;
layers = (
{
hints = (
{
horizontal = 1;
place = "{-98, 831}";
type = Stem;
},
{
place = "{50, 244}";
type = Stem;
}
);
layerId = "3B5F2A21-9AC0-43BD-916B-7DC2040966BF";
paths = (
{
closed = 1;
nodes = (
"50 -32 LINE",
"50 -32 OFFCURVE",
"151 139 OFFCURVE",
"151 324 CURVE SMOOTH",
"151 507 OFFCURVE",
"51 663 OFFCURVE",
"51 663 CURVE",
"172 733 LINE",
"172 733 OFFCURVE",
"294 543 OFFCURVE",
"294 324 CURVE SMOOTH",
"294 106 OFFCURVE",
"174 -98 OFFCURVE",
"174 -98 CURVE"
);
}
);
width = 324;
}
);
leftKerningGroup = parenright;
note = parenright;
unicode = 0029;
},
{
glyphname = emdash;
layers = (
{
hints = (
{
horizontal = 1;
place = "{249, 132}";
type = Stem;
},
{
place = "{30, 845}";
type = Stem;
}
);
layerId = "3B5F2A21-9AC0-43BD-916B-7DC2040966BF";
paths = (
{
closed = 1;
nodes = (
"30 381 LINE",
"30 249 LINE",
"875 249 LINE",
"875 381 LINE"
);
}
);
width = 906;
}
);
note = emdash;
unicode = 2014;
},
{
glyphname = endash;
layers = (
{
hints = (
{
horizontal = 1;
place = "{249, 132}";
type = Stem;
},
{
place = "{94, 428}";
type = Stem;
}
);
layerId = "3B5F2A21-9AC0-43BD-916B-7DC2040966BF";
paths = (
{
closed = 1;
nodes = (
"94 381 LINE",
"94 249 LINE",
"522 249 LINE",
"522 381 LINE"
);
}
);
width = 600;
}
);
note = endash;
unicode = 2013;
},
{
glyphname = softhyphen;
layers = (
{
hints = (
{
horizontal = 1;
place = "{220, 130}";
type = Stem;
},
{
place = "{68, 364}";
type = Stem;
}
);
layerId = "3B5F2A21-9AC0-43BD-916B-7DC2040966BF";
paths = (
{
closed = 1;
nodes = (
"432 350 LINE",
"68 350 LINE",
"68 220 LINE",
"432 220 LINE"
);
}
);
width = 600;
}
);
note = softhyphen;
unicode = 00AD;
},
{
glyphname = guillemotleft;
layers = (
{
hints = (
{
horizontal = 1;
place = "{37, 473}";
type = Stem;
},
{
place = "{30, 606}";
type = Stem;
}
);
layerId = "3B5F2A21-9AC0-43BD-916B-7DC2040966BF";
paths = (
{
closed = 1;
nodes = (
"269 510 LINE",
"30 273 LINE",
"269 37 LINE",
"373 124 LINE",
"237 273 LINE",
"373 422 LINE"
);
},
{
closed = 1;
nodes = (
"532 510 LINE",
"293 273 LINE",
"532 37 LINE",
"636 124 LINE",
"500 273 LINE",
"636 422 LINE"
);
}
);
width = 761;
}
);
note = guillemotleft;
rightKerningGroup = guillemotleft;
unicode = 00AB;
},
{
glyphname = guillemotright;
layers = (
{
hints = (
{
horizontal = 1;
place = "{37, 473}";
type = Stem;
},
{
place = "{125, 606}";
type = Stem;
}
);
layerId = "3B5F2A21-9AC0-43BD-916B-7DC2040966BF";
paths = (
{
closed = 1;
nodes = (
"125 422 LINE",
"230 510 LINE",
"468 273 LINE",
"230 37 LINE",
"125 124 LINE",
"261 273 LINE"
);
},
{
closed = 1;
nodes = (
"388 422 LINE",
"492 510 LINE",
"731 273 LINE",
"492 37 LINE",
"388 124 LINE",
"524 273 LINE"
);
}
);
width = 761;
}
);
note = guillemotright;
unicode = 00BB;
},
{
glyphname = guilsinglleft;
layers = (
{
hints = (
{
horizontal = 1;
place = "{37, 473}";
type = Stem;
},
{
place = "{142, 344}";
type = Stem;
}
);
layerId = "3B5F2A21-9AC0-43BD-916B-7DC2040966BF";
paths = (
{
closed = 1;
nodes = (
"381 510 LINE",
"142 273 LINE",
"381 37 LINE",
"486 124 LINE",
"350 273 LINE",
"486 422 LINE"
);
}
);
width = 600;
}
);
note = guilsinglleft;
unicode = 2039;
},
{
glyphname = guilsinglright;
layers = (
{
hints = (
{
horizontal = 1;
place = "{37, 473}";
type = Stem;
},
{
place = "{142, 344}";
type = Stem;
}
);
layerId = "3B5F2A21-9AC0-43BD-916B-7DC2040966BF";
paths = (
{
closed = 1;
nodes = (
"142 422 LINE",
"247 510 LINE",
"486 273 LINE",
"247 37 LINE",
"142 124 LINE",
"278 273 LINE"
);
}
);
width = 600;
}
);
note = guilsinglright;
unicode = 203A;
},
{
glyphname = quotedblbase;
layers = (
{
hints = (
{
horizontal = 1;
place = "{-165, 281}";
type = Stem;
},
{
place = "{90, 123}";
type = Stem;
}
);
layerId = "3B5F2A21-9AC0-43BD-916B-7DC2040966BF";
paths = (
{
closed = 1;
nodes = (
"213 116 LINE",
"86 116 LINE",
"94 12 LINE",
"36 -119 LINE",
"138 -165 LINE",
"213 -17 LINE"
);
}
);
width = 313;
}
);
note = quotedblbase;
rightKerningGroup = quotedblbase;
unicode = 201E;
},
{
glyphname = quotedblleft;
layers = (
{
hints = (
{
horizontal = 1;
place = "{517, 242}";
type = Stem;
},
{
place = "{54, 112.5}";
type = Stem;
},
{
place = "{260, 112.5}";
type = Stem;
}
);
layerId = "3B5F2A21-9AC0-43BD-916B-7DC2040966BF";
paths = (
{
closed = 1;
nodes = (
"104 517 LINE",
"188 560 LINE",
"162 652 LINE",
"171 759 LINE",
"54 759 LINE",
"54 638 LINE"
);
},
{
closed = 1;
nodes = (
"310 517 LINE",
"394 560 LINE",
"368 652 LINE",
"377 759 LINE",
"260 759 LINE",
"260 638 LINE"
);
}
);
width = 478;
}
);
note = quotedblleft;
unicode = 201C;
},
{
glyphname = quotedblright;
layers = (
{
hints = (
{
horizontal = 1;
place = "{517, 242}";
type = Stem;
},
{
place = "{175, 92.5}";
type = Stem;
}
);
layerId = "3B5F2A21-9AC0-43BD-916B-7DC2040966BF";
paths = (
{
closed = 1;
nodes = (
"125 517 LINE",
"41 560 LINE",
"67 652 LINE",
"58 759 LINE",
"175 759 LINE",
"175 638 LINE"
);
},
{
closed = 1;
nodes = (
"330 517 LINE",
"246 560 LINE",
"272 652 LINE",
"263 759 LINE",
"380 759 LINE",
"380 638 LINE"
);
}
);
width = 478;
}
);
note = quotedblright;
unicode = 201D;
},
{
glyphname = quoteleft;
layers = (
{
hints = (
{
horizontal = 1;
place = "{517, 242}";
type = Stem;
},
{
place = "{60, 112.5}";
type = Stem;
}
);
layerId = "3B5F2A21-9AC0-43BD-916B-7DC2040966BF";
paths = (
{
closed = 1;
nodes = (
"109 517 LINE",
"193 560 LINE",
"168 652 LINE",
"177 759 LINE",
"60 759 LINE",
"60 638 LINE"
);
}
);
width = 298;
}
);
note = quoteleft;
unicode = 2018;
},
{
glyphname = quoteright;
layers = (
{
hints = (
{
horizontal = 1;
place = "{517, 242}";
type = Stem;
},
{
place = "{41, 134}";
type = Stem;
}
);
layerId = "3B5F2A21-9AC0-43BD-916B-7DC2040966BF";
paths = (
{
closed = 1;
nodes = (
"175 638 LINE",
"125 517 LINE",
"41 560 LINE",
"67 652 LINE",
"58 759 LINE",
"175 759 LINE"
);
}
);
width = 272;
}
);
note = quoteright;
unicode = 2019;
},
{
glyphname = quotesinglbase;
layers = (
{
hints = (
{
horizontal = 1;
place = "{-165, 281}";
type = Stem;
},
{
place = "{90, 123}";
type = Stem;
}
);
layerId = "3B5F2A21-9AC0-43BD-916B-7DC2040966BF";
paths = (
{
closed = 1;
nodes = (
"213 116 LINE",
"86 116 LINE",
"94 12 LINE",
"36 -119 LINE",
"138 -165 LINE",
"213 -17 LINE"
);
}
);
width = 333;
}
);
note = quotesinglbase;
rightKerningGroup = quotesinglbase;
unicode = 201A;
},
{
glyphname = florin;
layers = (
{
hints = (
{
horizontal = 1;
place = "{414, 132}";
type = Stem;
},
{
horizontal = 1;
place = "{634, 132}";
type = Stem;
},
{
place = "{19, 513}";
type = Stem;
}
);
layerId = "3B5F2A21-9AC0-43BD-916B-7DC2040966BF";
paths = (
{
closed = 1;
nodes = (
"532 721 LINE",
"508 736 OFFCURVE",
"446 766 OFFCURVE",
"388 766 CURVE SMOOTH",
"321 766 OFFCURVE",
"241 734 OFFCURVE",
"214 632 CURVE SMOOTH",
"191 546 LINE",
"84 546 LINE",
"46 414 LINE",
"155 414 LINE",
"19 -96 LINE",
"164 -96 LINE",
"301 414 LINE",
"442 414 LINE",
"480 546 LINE",
"336 546 LINE",
"348 588 LINE",
"358 629 OFFCURVE",
"383 634 OFFCURVE",
"398 634 CURVE SMOOTH",
"422 634 OFFCURVE",
"449 628 OFFCURVE",
"488 595 CURVE"
);
}
);
width = 600;
}
);
note = florin;
unicode = 0192;
},
{
glyphname = cent;
layers = (
{
hints = (
{
horizontal = 1;
place = "{-9, 210}";
type = Stem;
},
{
horizontal = 1;
place = "{468, 208}";
type = Stem;
},
{
place = "{44, 143}";
type = Stem;
},
{
place = "{228, 143}";
type = Stem;
}
);
layerId = "3B5F2A21-9AC0-43BD-916B-7DC2040966BF";
paths = (
{
closed = 1;
nodes = (
"418 286 LINE",
"390 230 OFFCURVE",
"353 201 OFFCURVE",
"305 201 CURVE SMOOTH",
"242 201 OFFCURVE",
"187 259 OFFCURVE",
"187 335 CURVE SMOOTH",
"187 406 OFFCURVE",
"238 468 OFFCURVE",
"305 468 CURVE SMOOTH",
"351 468 OFFCURVE",
"386 442 OFFCURVE",
"415 391 CURVE",
"525 472 LINE",
"504 521 OFFCURVE",
"441 570 OFFCURVE",
"371 590 CURVE",
"371 676 LINE",
"228 676 LINE",
"228 589 LINE",
"113 554 OFFCURVE",
"44 445 OFFCURVE",
"44 335 CURVE SMOOTH",
"44 217 OFFCURVE",
"120 115 OFFCURVE",
"228 81 CURVE",
"228 -9 LINE",
"371 -9 LINE",
"371 79 LINE",
"445 101 OFFCURVE",
"513 155 OFFCURVE",
"533 210 CURVE"
);
}
);
width = 579;
}
);
note = cent;
unicode = 00A2;
},
{
glyphname = currency;
layers = (
{
hints = (
{
horizontal = 1;
place = "{125, 132}";
type = Stem;
},
{
horizontal = 1;
place = "{456, 132}";
type = Stem;
},
{
place = "{138, 143}";
type = Stem;
},
{
place = "{463, 143}";
type = Stem;
}
);
layerId = "3B5F2A21-9AC0-43BD-916B-7DC2040966BF";
paths = (
{
closed = 1;
nodes = (
"687 575 LINE",
"585 668 LINE",
"480 562 LINE",
"448 578 OFFCURVE",
"411 588 OFFCURVE",
"372 588 CURVE SMOOTH",
"333 588 OFFCURVE",
"297 579 OFFCURVE",
"265 562 CURVE",
"159 668 LINE",
"58 575 LINE",
"166 466 LINE",
"148 434 OFFCURVE",
"138 396 OFFCURVE",
"138 356 CURVE SMOOTH",
"138 317 OFFCURVE",
"148 280 OFFCURVE",
"165 248 CURVE",
"58 140 LINE",
"159 47 LINE",
"264 151 LINE",
"296 134 OFFCURVE",
"333 125 OFFCURVE",
"372 125 CURVE SMOOTH",
"411 125 OFFCURVE",
"448 134 OFFCURVE",
"481 151 CURVE",
"585 47 LINE",
"687 140 LINE",
"579 248 LINE",
"596 280 OFFCURVE",
"606 317 OFFCURVE",
"606 356 CURVE SMOOTH",
"606 396 OFFCURVE",
"596 433 OFFCURVE",
"578 466 CURVE"
);
},
{
closed = 1;
nodes = (
"281 413 OFFCURVE",
"324 456 OFFCURVE",
"372 456 CURVE SMOOTH",
"421 456 OFFCURVE",
"463 413 OFFCURVE",
"463 356 CURVE SMOOTH",
"463 300 OFFCURVE",
"421 257 OFFCURVE",
"372 257 CURVE SMOOTH",
"324 257 OFFCURVE",
"281 300 OFFCURVE",
"281 356 CURVE SMOOTH"
);
}
);
width = 743;
}
);
note = currency;
unicode = 00A4;
},
{
glyphname = dollar;
layers = (
{
hints = (
{
horizontal = 1;
place = "{-95, 199}";
type = Stem;
},
{
horizontal = 1;
place = "{599, 200}";
type = Stem;
},
{
place = "{232, 143}";
type = Stem;
},
{
place = "{413, 143}";
type = Stem;
},
{
place = "{61, 142}";
type = Stem;
}
);
layerId = "3B5F2A21-9AC0-43BD-916B-7DC2040966BF";
paths = (
{
closed = 1;
nodes = (
"506 625 LINE",
"506 625 OFFCURVE",
"460 686 OFFCURVE",
"375 715 CURVE",
"375 799 LINE",
"232 799 LINE",
"232 726 LINE",
"125 704 OFFCURVE",
"51 614 OFFCURVE",
"61 505 CURVE SMOOTH",
"71 383 OFFCURVE",
"194 331 OFFCURVE",
"266 304 CURVE SMOOTH",
"289 295 LINE SMOOTH",
"341 276 OFFCURVE",
"413 257 OFFCURVE",
"413 191 CURVE SMOOTH",
"413 132 OFFCURVE",
"362 104 OFFCURVE",
"294 104 CURVE SMOOTH",
"223 104 OFFCURVE",
"176 145 OFFCURVE",
"158 176 CURVE",
"35 108 LINE",
"58 69 OFFCURVE",
"131 0 OFFCURVE",
"232 -21 CURVE",
"232 -95 LINE",
"375 -95 LINE",
"375 -18 LINE",
"469 4 OFFCURVE",
"556 68 OFFCURVE",
"556 191 CURVE SMOOTH",
"556 357 OFFCURVE",
"388 401 OFFCURVE",
"339 420 CURVE",
"316 428 LINE SMOOTH",
"254 451 OFFCURVE",
"206 474 OFFCURVE",
"203 516 CURVE SMOOTH",
"199 566 OFFCURVE",
"236 602 OFFCURVE",
"289 599 CURVE SMOOTH",
"354 595 OFFCURVE",
"394 543 OFFCURVE",
"394 543 CURVE"
);
}
);
width = 600;
}
);
note = dollar;
unicode = 0024;
},
{
glyphname = sterling;
layers = (
{
hints = (
{
horizontal = 1;
place = "{-23, 126}";
type = Stem;
},
{
horizontal = 1;
place = "{277, 132}";
type = Stem;
},
{
horizontal = 1;
place = "{603, 128}";
type = Stem;
},
{
place = "{64.16, 140.07}";
type = Stem;
},
{
place = "{445, 131}";
type = Stem;
},
{
place = "{135.41, 141.46}";
type = Stem;
}
);
layerId = "3B5F2A21-9AC0-43BD-916B-7DC2040966BF";
paths = (
{
closed = 1;
nodes = (
"445 164 LINE",
"448 139 OFFCURVE",
"448 103 OFFCURVE",
"393 103 CURVE SMOOTH",
"352 103 OFFCURVE",
"314 126 OFFCURVE",
"271 147 CURVE",
"278 181 OFFCURVE",
"281 226 OFFCURVE",
"267 277 CURVE",
"436 277 LINE",
"436 409 LINE",
"217 409 LINE",
"186 513 OFFCURVE",
"209 603 OFFCURVE",
"309 603 CURVE SMOOTH",
"353 603 OFFCURVE",
"386 559 OFFCURVE",
"398 546 CURVE",
"491 629 LINE",
"463 681 OFFCURVE",
"390 728 OFFCURVE",
"316 731 CURVE SMOOTH",
"90 739 OFFCURVE",
"41 569 OFFCURVE",
"73 409 CURVE",
"7 409 LINE",
"7 277 LINE",
"117 277 LINE",
"137 235 OFFCURVE",
"138 201 OFFCURVE",
"133 176 CURVE",
"1 161 OFFCURVE",
"-28 34 OFFCURVE",
"-28 34 CURVE",
"109 -4 LINE",
"109 -4 OFFCURVE",
"108 57 OFFCURVE",
"160 57 CURVE SMOOTH",
"223 57 OFFCURVE",
"261 -23 OFFCURVE",
"393 -23 CURVE SMOOTH",
"552 -23 OFFCURVE",
"576 112 OFFCURVE",
"576 145 CURVE"
);
}
);
width = 600;
}
);
note = sterling;
unicode = 00A3;
},
{
glyphname = yen;
layers = (
{
hints = (
{
horizontal = 1;
place = "{126, 95}";
type = Stem;
},
{
horizontal = 1;
place = "{272, 95}";
type = Stem;
},
{
place = "{247, 143}";
type = Stem;
}
);
layerId = "3B5F2A21-9AC0-43BD-916B-7DC2040966BF";
paths = (
{
closed = 1;
nodes = (
"544 272 LINE",
"544 367 LINE",
"422 367 LINE",
"638 644 LINE",
"525 725 LINE",
"312 451 LINE",
"99 725 LINE",
"-14 644 LINE",
"202 367 LINE",
"80 367 LINE",
"80 272 LINE",
"247 272 LINE",
"247 221 LINE",
"80 221 LINE",
"80 126 LINE",
"247 126 LINE",
"247 1 LINE",
"390 1 LINE",
"390 126 LINE",
"544 126 LINE",
"544 221 LINE",
"390 221 LINE",
"390 272 LINE"
);
}
);
width = 600;
}
);
note = yen;
unicode = 00A5;
},
{
glyphname = approxequal;
layers = (
{
hints = (
{
horizontal = 1;
place = "{152, 119}";
type = Stem;
},
{
horizontal = 1;
place = "{345, 119}";
type = Stem;
},
{
place = "{113.49, 104.66}";
type = Stem;
},
{
horizontal = 1;
place = "{407, 118}";
type = Stem;
},
{
horizontal = 1;
place = "{214, 117}";
type = Stem;
}
);
layerId = "3B5F2A21-9AC0-43BD-916B-7DC2040966BF";
paths = (
{
closed = 1;
nodes = (
"432 509 LINE",
"437 483 OFFCURVE",
"424 464 OFFCURVE",
"395 464 CURVE SMOOTH",
"343 464 OFFCURVE",
"322 525 OFFCURVE",
"248 525 CURVE SMOOTH",
"156 525 OFFCURVE",
"96 446 OFFCURVE",
"118 353 CURVE",
"221 353 LINE",
"213 381 OFFCURVE",
"222 407 OFFCURVE",
"246 407 CURVE SMOOTH",
"291 407 OFFCURVE",
"306 345 OFFCURVE",
"392 345 CURVE SMOOTH",
"459 345 OFFCURVE",
"550 382 OFFCURVE",
"527 509 CURVE"
);
},
{
closed = 1;
nodes = (
"432 316 LINE",
"437 290 OFFCURVE",
"424 271 OFFCURVE",
"395 271 CURVE SMOOTH",
"343 271 OFFCURVE",
"322 331 OFFCURVE",
"248 331 CURVE SMOOTH",
"156 331 OFFCURVE",
"96 253 OFFCURVE",
"118 160 CURVE",
"221 160 LINE",
"213 188 OFFCURVE",
"222 214 OFFCURVE",
"246 214 CURVE SMOOTH",
"291 214 OFFCURVE",
"306 152 OFFCURVE",
"392 152 CURVE SMOOTH",
"459 152 OFFCURVE",
"550 189 OFFCURVE",
"527 316 CURVE"
);
}
);
width = 600;
}
);
note = approxequal;
unicode = 2248;
},
{
glyphname = asciitilde;
layers = (
{
hints = (
{
horizontal = 1;
place = "{230, 127}";
type = Stem;
},
{
horizontal = 1;
place = "{367, 126}";
type = Stem;
},
{
place = "{44, 133}";
type = Stem;
},
{
place = "{417, 134}";
type = Stem;
}
);
layerId = "3B5F2A21-9AC0-43BD-916B-7DC2040966BF";
paths = (
{
closed = 1;
nodes = (
"189 311 LINE",
"183 320 OFFCURVE",
"177 331 OFFCURVE",
"177 341 CURVE SMOOTH",
"177 359 OFFCURVE",
"186 367 OFFCURVE",
"198 367 CURVE SMOOTH",
"249 367 OFFCURVE",
"269 230 OFFCURVE",
"403 230 CURVE SMOOTH",
"482 230 OFFCURVE",
"551 276 OFFCURVE",
"551 376 CURVE SMOOTH",
"551 416 OFFCURVE",
"532 466 OFFCURVE",
"503 489 CURVE",
"388 430 LINE",
"411 408 OFFCURVE",
"417 390 OFFCURVE",
"417 378 CURVE SMOOTH",
"417 361 OFFCURVE",
"404 357 OFFCURVE",
"396 357 CURVE SMOOTH",
"332 357 OFFCURVE",
"323 493 OFFCURVE",
"192 493 CURVE SMOOTH",
"107 493 OFFCURVE",
"44 435 OFFCURVE",
"44 340 CURVE SMOOTH",
"44 321 OFFCURVE",
"52 286 OFFCURVE",
"67 271 CURVE"
);
}
);
width = 600;
}
);
note = asciitilde;
unicode = 007E;
},
{
glyphname = divide;
layers = (
{
hints = (
{
horizontal = 1;
place = "{-31, 187}";
type = Stem;
},
{
horizontal = 1;
place = "{241, 132}";
type = Stem;
},
{
horizontal = 1;
place = "{427, 187}";
type = Stem;
},
{
place = "{204, 192}";
type = Stem;
}
);
layerId = "3B5F2A21-9AC0-43BD-916B-7DC2040966BF";
paths = (
{
closed = 1;
nodes = (
"354 427 OFFCURVE",
"396 469 OFFCURVE",
"396 520 CURVE SMOOTH",
"396 572 OFFCURVE",
"354 614 OFFCURVE",
"300 614 CURVE SMOOTH",
"246 614 OFFCURVE",
"204 572 OFFCURVE",
"204 520 CURVE SMOOTH",
"204 469 OFFCURVE",
"246 427 OFFCURVE",
"300 427 CURVE SMOOTH"
);
},
{
closed = 1;
nodes = (
"587 241 LINE",
"587 373 LINE",
"25 373 LINE",
"25 241 LINE"
);
},
{
closed = 1;
nodes = (
"354 -31 OFFCURVE",
"396 11 OFFCURVE",
"396 63 CURVE SMOOTH",
"396 114 OFFCURVE",
"354 156 OFFCURVE",
"300 156 CURVE SMOOTH",
"246 156 OFFCURVE",
"204 114 OFFCURVE",
"204 63 CURVE SMOOTH",
"204 11 OFFCURVE",
"246 -31 OFFCURVE",
"300 -31 CURVE SMOOTH"
);
}
);
width = 600;
}
);
note = divide;
unicode = 00F7;
},
{
glyphname = equal;
layers = (
{
hints = (
{
horizontal = 1;
place = "{108, 132}";
type = Stem;
},
{
horizontal = 1;
place = "{340, 132}";
type = Stem;
},
{
place = "{71, 466}";
type = Stem;
}
);
layerId = "3B5F2A21-9AC0-43BD-916B-7DC2040966BF";
paths = (
{
closed = 1;
nodes = (
"71 472 LINE",
"71 340 LINE",
"537 340 LINE",
"537 472 LINE"
);
},
{
closed = 1;
nodes = (
"71 240 LINE",
"71 108 LINE",
"537 108 LINE",
"537 240 LINE"
);
}
);
width = 600;
}
);
note = equal;
unicode = 003D;
},
{
glyphname = greater;
layers = (
{
hints = (
{
horizontal = 1;
place = "{28, 564}";
type = Stem;
},
{
place = "{48, 474}";
type = Stem;
}
);
layerId = "3B5F2A21-9AC0-43BD-916B-7DC2040966BF";
paths = (
{
closed = 1;
nodes = (
"363 310 LINE",
"49 160 LINE",
"109 28 LINE",
"522 240 LINE",
"522 379 LINE",
"108 592 LINE",
"48 460 LINE"
);
}
);
width = 651;
}
);
note = greater;
unicode = 003E;
},
{
glyphname = greaterequal;
layers = (
{
hints = (
{
horizontal = 1;
place = "{-10, 118}";
type = Stem;
},
{
place = "{54, 539}";
type = Stem;
}
);
layerId = "3B5F2A21-9AC0-43BD-916B-7DC2040966BF";
paths = (
{
closed = 1;
nodes = (
"78 522 LINE",
"360 388 LINE",
"79 254 LINE",
"133 136 LINE",
"502 326 LINE",
"502 450 LINE",
"132 640 LINE"
);
},
{
closed = 1;
nodes = (
"54 108 LINE",
"54 -10 LINE",
"593 -10 LINE",
"593 108 LINE"
);
}
);
width = 631;
}
);
note = greaterequal;
unicode = 2265;
},
{
glyphname = infinity;
layers = (
{
hints = (
{
horizontal = 1;
place = "{41, 132}";
type = Stem;
},
{
horizontal = 1;
place = "{311, 132}";
type = Stem;
},
{
place = "{15, 142}";
type = Stem;
},
{
place = "{582, 143}";
type = Stem;
}
);
layerId = "3B5F2A21-9AC0-43BD-916B-7DC2040966BF";
paths = (
{
closed = 1;
nodes = (
"481 443 OFFCURVE",
"416 391 OFFCURVE",
"369 344 CURVE",
"322 392 OFFCURVE",
"258 443 OFFCURVE",
"182 443 CURVE SMOOTH",
"42 443 OFFCURVE",
"15 305 OFFCURVE",
"15 242 CURVE SMOOTH",
"15 179 OFFCURVE",
"42 41 OFFCURVE",
"182 41 CURVE SMOOTH",
"257 41 OFFCURVE",
"322 92 OFFCURVE",
"369 140 CURVE",
"415 94 OFFCURVE",
"482 41 OFFCURVE",
"557 41 CURVE SMOOTH",
"697 41 OFFCURVE",
"725 179 OFFCURVE",
"725 242 CURVE SMOOTH",
"725 352 OFFCURVE",
"667 443 OFFCURVE",
"557 443 CURVE SMOOTH"
);
},
{
closed = 1;
nodes = (
"168 173 OFFCURVE",
"157 203 OFFCURVE",
"157 242 CURVE SMOOTH",
"157 280 OFFCURVE",
"168 311 OFFCURVE",
"182 311 CURVE SMOOTH",
"208 311 OFFCURVE",
"241 280 OFFCURVE",
"276 242 CURVE",
"242 205 OFFCURVE",
"208 173 OFFCURVE",
"182 173 CURVE SMOOTH"
);
},
{
closed = 1;
nodes = (
"530 173 OFFCURVE",
"493 208 OFFCURVE",
"462 242 CURVE",
"497 279 OFFCURVE",
"530 311 OFFCURVE",
"557 311 CURVE SMOOTH",
"568 311 OFFCURVE",
"582 292 OFFCURVE",
"582 242 CURVE SMOOTH",
"582 203 OFFCURVE",
"571 173 OFFCURVE",
"557 173 CURVE SMOOTH"
);
}
);
width = 732;
}
);
note = infinity;
unicode = 221E;
},
{
glyphname = integral;
layers = (
{
hints = (
{
horizontal = 1;
place = "{-144, 139}";
type = Stem;
},
{
horizontal = 1;
place = "{641, 130}";
type = Stem;
},
{
place = "{13, 548}";
type = Stem;
}
);
layerId = "3B5F2A21-9AC0-43BD-916B-7DC2040966BF";
paths = (
{
closed = 1;
nodes = (
"561 739 LINE",
"537 753 OFFCURVE",
"485 771 OFFCURVE",
"440 771 CURVE SMOOTH",
"377 771 OFFCURVE",
"300 739 OFFCURVE",
"279 622 CURVE SMOOTH",
"259 509 OFFCURVE",
"182 75 OFFCURVE",
"170 15 CURVE SMOOTH",
"169 9 OFFCURVE",
"165 -5 OFFCURVE",
"152 -5 CURVE SMOOTH",
"137 -5 OFFCURVE",
"131 -1 OFFCURVE",
"90 25 CURVE",
"13 -83 LINE",
"50 -123 OFFCURVE",
"111 -144 OFFCURVE",
"156 -144 CURVE SMOOTH",
"225 -144 OFFCURVE",
"290 -108 OFFCURVE",
"302 -45 CURVE SMOOTH",
"311 9 OFFCURVE",
"400 488 OFFCURVE",
"419 599 CURVE SMOOTH",
"425 632 OFFCURVE",
"440 641 OFFCURVE",
"452 641 CURVE SMOOTH",
"464 641 OFFCURVE",
"479 636 OFFCURVE",
"500 620 CURVE"
);
}
);
width = 600;
}
);
note = integral;
unicode = 222B;
},
{
glyphname = less;
layers = (
{
hints = (
{
horizontal = 1;
place = "{28, 564}";
type = Stem;
},
{
place = "{128, 475}";
type = Stem;
}
);
layerId = "3B5F2A21-9AC0-43BD-916B-7DC2040966BF";
paths = (
{
closed = 1;
nodes = (
"603 460 LINE",
"288 310 LINE",
"602 160 LINE",
"542 28 LINE",
"128 240 LINE",
"128 379 LINE",
"543 592 LINE"
);
}
);
width = 651;
}
);
note = less;
unicode = 003C;
},
{
glyphname = lessequal;
layers = (
{
hints = (
{
horizontal = 1;
place = "{108, 28}";
type = Stem;
},
{
place = "{46, 539}";
type = Stem;
}
);
layerId = "3B5F2A21-9AC0-43BD-916B-7DC2040966BF";
paths = (
{
closed = 1;
nodes = (
"507 640 LINE",
"561 522 LINE",
"279 388 LINE",
"560 254 LINE",
"506 136 LINE",
"137 326 LINE",
"137 450 LINE"
);
},
{
closed = 1;
nodes = (
"46 108 LINE",
"585 108 LINE",
"585 -10 LINE",
"46 -10 LINE"
);
}
);
width = 600;
}
);
note = lessequal;
unicode = 2264;
},
{
glyphname = logicalnot;
layers = (
{
hints = (
{
horizontal = 1;
place = "{333, 132}";
type = Stem;
},
{
place = "{561, 143}";
type = Stem;
}
);
layerId = "3B5F2A21-9AC0-43BD-916B-7DC2040966BF";
paths = (
{
closed = 1;
nodes = (
"704 135 LINE",
"704 465 LINE",
"43 465 LINE",
"43 333 LINE",
"561 333 LINE",
"561 135 LINE"
);
}
);
width = 744;
}
);
note = logicalnot;
unicode = 00AC;
},
{
glyphname = minus;
layers = (
{
hints = (
{
horizontal = 1;
place = "{241, 132}";
type = Stem;
},
{
place = "{25, 562}";
type = Stem;
}
);
layerId = "3B5F2A21-9AC0-43BD-916B-7DC2040966BF";
paths = (
{
closed = 1;
nodes = (
"587 241 LINE",
"587 373 LINE",
"25 373 LINE",
"25 241 LINE"
);
}
);
width = 600;
}
);
note = minus;
unicode = 2212;
},
{
glyphname = multiply;
layers = (
{
hints = (
{
horizontal = 1;
place = "{-46, 621}";
type = Stem;
},
{
place = "{11, 629}";
type = Stem;
}
);
layerId = "3B5F2A21-9AC0-43BD-916B-7DC2040966BF";
paths = (
{
closed = 1;
nodes = (
"113 575 LINE",
"11 482 LINE",
"539 -46 LINE",
"640 47 LINE"
);
}
);
width = 651;
}
);
note = multiply;
unicode = 00D7;
},
{
glyphname = notequal;
layers = (
{
hints = (
{
horizontal = 1;
place = "{108, 132}";
type = Stem;
},
{
horizontal = 1;
place = "{340, 132}";
type = Stem;
},
{
place = "{71, 466}";
type = Stem;
}
);
layerId = "3B5F2A21-9AC0-43BD-916B-7DC2040966BF";
paths = (
{
closed = 1;
nodes = (
"537 240 LINE",
"346 240 LINE",
"376 340 LINE",
"537 340 LINE",
"537 472 LINE",
"416 472 LINE",
"485 702 LINE",
"374 738 LINE",
"294 472 LINE",
"71 472 LINE",
"71 340 LINE",
"255 340 LINE",
"225 240 LINE",
"71 240 LINE",
"71 108 LINE",
"185 108 LINE",
"125 -92 LINE",
"236 -126 LINE",
"307 108 LINE",
"537 108 LINE"
);
}
);
width = 600;
}
);
note = notequal;
unicode = 2260;
},
{
glyphname = partialdiff;
layers = (
{
hints = (
{
horizontal = 1;
place = "{-23, 132}";
type = Stem;
},
{
horizontal = 1;
place = "{435, 132}";
type = Stem;
},
{
place = "{19, 142}";
type = Stem;
},
{
place = "{405, 143}";
type = Stem;
}
);
layerId = "3B5F2A21-9AC0-43BD-916B-7DC2040966BF";
paths = (
{
closed = 1;
nodes = (
"47 692 LINE",
"167 707 OFFCURVE",
"263 655 OFFCURVE",
"326 563 CURVE",
"312 566 OFFCURVE",
"298 567 OFFCURVE",
"283 567 CURVE SMOOTH",
"213 567 OFFCURVE",
"137 528 OFFCURVE",
"95 480 CURVE SMOOTH",
"50 428 OFFCURVE",
"19 348 OFFCURVE",
"19 272 CURVE SMOOTH",
"19 114 OFFCURVE",
"133 -23 OFFCURVE",
"283 -23 CURVE SMOOTH",
"357 -23 OFFCURVE",
"435 19 OFFCURVE",
"477 71 CURVE SMOOTH",
"520 122 OFFCURVE",
"548 199 OFFCURVE",
"548 272 CURVE SMOOTH",
"548 576 OFFCURVE",
"377 851 OFFCURVE",
"47 825 CURVE"
);
},
{
closed = 1;
nodes = (
"220 109 OFFCURVE",
"161 177 OFFCURVE",
"161 272 CURVE SMOOTH",
"161 322 OFFCURVE",
"178 365 OFFCURVE",
"203 393 CURVE SMOOTH",
"228 422 OFFCURVE",
"253 435 OFFCURVE",
"283 435 CURVE SMOOTH",
"347 435 OFFCURVE",
"405 367 OFFCURVE",
"405 272 CURVE SMOOTH",
"405 223 OFFCURVE",
"391 184 OFFCURVE",
"367 154 CURVE SMOOTH",
"341 123 OFFCURVE",
"315 109 OFFCURVE",
"283 109 CURVE SMOOTH"
);
}
);
width = 600;
}
);
note = partialdiff;
unicode = 2202;
},
{
glyphname = percent;
layers = (
{
hints = (
{
horizontal = 1;
place = "{-3, 95}";
type = Stem;
},
{
horizontal = 1;
place = "{318, 96}";
type = Stem;
},
{
horizontal = 1;
place = "{615, 95}";
type = Stem;
},
{
place = "{41, 130}";
type = Stem;
},
{
place = "{214, 130}";
type = Stem;
},
{
place = "{447, 130}";
type = Stem;
},
{
place = "{620, 130}";
type = Stem;
},
{
horizontal = 1;
place = "{293, 96}";
type = Stem;
}
);
layerId = "3B5F2A21-9AC0-43BD-916B-7DC2040966BF";
paths = (
{
closed = 1;
nodes = (
"277 318 OFFCURVE",
"344 392 OFFCURVE",
"344 516 CURVE SMOOTH",
"344 640 OFFCURVE",
"277 710 OFFCURVE",
"192 710 CURVE SMOOTH",
"108 710 OFFCURVE",
"41 640 OFFCURVE",
"41 516 CURVE SMOOTH",
"41 392 OFFCURVE",
"107 318 OFFCURVE",
"192 318 CURVE SMOOTH"
);
},
{
closed = 1;
nodes = (
"717 710 LINE",
"550 710 LINE",
"75 0 LINE",
"243 0 LINE"
);
},
{
closed = 1;
nodes = (
"183 414 OFFCURVE",
"171 422 OFFCURVE",
"171 516 CURVE SMOOTH",
"171 609 OFFCURVE",
"180 615 OFFCURVE",
"192 615 CURVE SMOOTH",
"205 615 OFFCURVE",
"214 609 OFFCURVE",
"214 516 CURVE SMOOTH",
"214 422 OFFCURVE",
"202 414 OFFCURVE",
"192 414 CURVE SMOOTH"
);
},
{
closed = 1;
nodes = (
"683 -3 OFFCURVE",
"750 70 OFFCURVE",
"750 194 CURVE SMOOTH",
"750 318 OFFCURVE",
"682 389 OFFCURVE",
"598 389 CURVE SMOOTH",
"514 389 OFFCURVE",
"447 318 OFFCURVE",
"447 194 CURVE SMOOTH",
"447 70 OFFCURVE",
"513 -3 OFFCURVE",
"598 -3 CURVE SMOOTH"
);
},
{
closed = 1;
nodes = (
"588 92 OFFCURVE",
"577 100 OFFCURVE",
"577 194 CURVE SMOOTH",
"577 287 OFFCURVE",
"585 293 OFFCURVE",
"598 293 CURVE SMOOTH",
"611 293 OFFCURVE",
"620 287 OFFCURVE",
"620 194 CURVE SMOOTH",
"620 100 OFFCURVE",
"608 92 OFFCURVE",
"598 92 CURVE SMOOTH"
);
}
);
width = 805;
}
);
note = percent;
unicode = 0025;
},
{
glyphname = perthousand;
layers = (
{
hints = (
{
horizontal = 1;
place = "{-3, 95}";
type = Stem;
},
{
horizontal = 1;
place = "{318, 96}";
type = Stem;
},
{
horizontal = 1;
place = "{615, 95}";
type = Stem;
},
{
place = "{31, 130}";
type = Stem;
},
{
place = "{204, 130}";
type = Stem;
},
{
place = "{437, 130}";
type = Stem;
},
{
place = "{610, 130}";
type = Stem;
},
{
horizontal = 1;
place = "{293, 96}";
type = Stem;
},
{
place = "{757, 130}";
type = Stem;
},
{
place = "{930, 130}";
type = Stem;
}
);
layerId = "3B5F2A21-9AC0-43BD-916B-7DC2040966BF";
paths = (
{
closed = 1;
nodes = (
"267 318 OFFCURVE",
"334 392 OFFCURVE",
"334 516 CURVE SMOOTH",
"334 640 OFFCURVE",
"267 710 OFFCURVE",
"182 710 CURVE SMOOTH",
"98 710 OFFCURVE",
"31 640 OFFCURVE",
"31 516 CURVE SMOOTH",
"31 392 OFFCURVE",
"97 318 OFFCURVE",
"182 318 CURVE SMOOTH"
);
},
{
closed = 1;
nodes = (
"707 710 LINE",
"540 710 LINE",
"65 0 LINE",
"233 0 LINE"
);
},
{
closed = 1;
nodes = (
"173 414 OFFCURVE",
"161 422 OFFCURVE",
"161 516 CURVE SMOOTH",
"161 609 OFFCURVE",
"170 615 OFFCURVE",
"182 615 CURVE SMOOTH",
"195 615 OFFCURVE",
"204 609 OFFCURVE",
"204 516 CURVE SMOOTH",
"204 422 OFFCURVE",
"192 414 OFFCURVE",
"182 414 CURVE SMOOTH"
);
},
{
closed = 1;
nodes = (
"673 -3 OFFCURVE",
"740 70 OFFCURVE",
"740 194 CURVE SMOOTH",
"740 318 OFFCURVE",
"672 389 OFFCURVE",
"588 389 CURVE SMOOTH",
"504 389 OFFCURVE",
"437 318 OFFCURVE",
"437 194 CURVE SMOOTH",
"437 70 OFFCURVE",
"503 -3 OFFCURVE",
"588 -3 CURVE SMOOTH"
);
},
{
closed = 1;
nodes = (
"993 -3 OFFCURVE",
"1060 70 OFFCURVE",
"1060 194 CURVE SMOOTH",
"1060 318 OFFCURVE",
"993 389 OFFCURVE",
"908 389 CURVE SMOOTH",
"824 389 OFFCURVE",
"757 318 OFFCURVE",
"757 194 CURVE SMOOTH",
"757 70 OFFCURVE",
"823 -3 OFFCURVE",
"908 -3 CURVE SMOOTH"
);
},
{
closed = 1;
nodes = (
"578 92 OFFCURVE",
"567 100 OFFCURVE",
"567 194 CURVE SMOOTH",
"567 287 OFFCURVE",
"575 293 OFFCURVE",
"588 293 CURVE SMOOTH",
"601 293 OFFCURVE",
"610 287 OFFCURVE",
"610 194 CURVE SMOOTH",
"610 100 OFFCURVE",
"598 92 OFFCURVE",
"588 92 CURVE SMOOTH"
);
},
{
closed = 1;
nodes = (
"898 92 OFFCURVE",
"887 100 OFFCURVE",
"887 194 CURVE SMOOTH",
"887 287 OFFCURVE",
"896 293 OFFCURVE",
"908 293 CURVE SMOOTH",
"921 293 OFFCURVE",
"930 287 OFFCURVE",
"930 194 CURVE SMOOTH",
"930 100 OFFCURVE",
"918 92 OFFCURVE",
"908 92 CURVE SMOOTH"
);
}
);
width = 1144;
}
);
note = perthousand;
unicode = 2030;
},
{
glyphname = plus;
layers = (
{
hints = (
{
horizontal = 1;
place = "{204, 133}";
type = Stem;
},
{
place = "{219, 143}";
type = Stem;
}
);
layerId = "3B5F2A21-9AC0-43BD-916B-7DC2040966BF";
paths = (
{
closed = 1;
nodes = (
"362 -9 LINE",
"362 204 LINE",
"572 204 LINE",
"572 337 LINE",
"362 337 LINE",
"362 550 LINE",
"219 550 LINE",
"219 337 LINE",
"9 337 LINE",
"9 204 LINE",
"219 204 LINE",
"219 -9 LINE"
);
}
);
width = 600;
}
);
note = plus;
unicode = 002B;
},
{
glyphname = plusminus;
layers = (
{
hints = (
{
horizontal = 1;
place = "{-37, 132}";
type = Stem;
},
{
horizontal = 1;
place = "{289, 133}";
type = Stem;
},
{
place = "{230, 143}";
type = Stem;
}
);
layerId = "3B5F2A21-9AC0-43BD-916B-7DC2040966BF";
paths = (
{
closed = 1;
nodes = (
"373 289 LINE",
"583 289 LINE",
"583 422 LINE",
"373 422 LINE",
"373 574 LINE",
"230 574 LINE",
"230 422 LINE",
"20 422 LINE",
"20 289 LINE",
"230 289 LINE",
"230 136 LINE",
"373 136 LINE"
);
},
{
closed = 1;
nodes = (
"583 -37 LINE",
"583 95 LINE",
"20 95 LINE",
"20 -37 LINE"
);
}
);
width = 600;
}
);
note = plusminus;
unicode = 00B1;
},
{
glyphname = product;
layers = (
{
hints = (
{
horizontal = 1;
place = "{593, 132}";
type = Stem;
},
{
place = "{122, 143}";
type = Stem;
},
{
place = "{561, 143}";
type = Stem;
}
);
layerId = "3B5F2A21-9AC0-43BD-916B-7DC2040966BF";
paths = (
{
closed = 1;
nodes = (
"704 1 LINE",
"704 593 LINE",
"777 593 LINE",
"777 725 LINE",
"49 725 LINE",
"49 593 LINE",
"122 593 LINE",
"122 1 LINE",
"265 1 LINE",
"265 593 LINE",
"561 593 LINE",
"561 1 LINE"
);
}
);
width = 834;
}
);
note = product;
unicode = 220F;
},
{
glyphname = radical;
layers = (
{
hints = (
{
horizontal = 1;
place = "{384, 132}";
type = Stem;
},
{
place = "{59, 579}";
type = Stem;
}
);
layerId = "3B5F2A21-9AC0-43BD-916B-7DC2040966BF";
paths = (
{
closed = 1;
nodes = (
"59 384 LINE",
"156 384 LINE",
"360 -197 LINE",
"363 -197 LINE",
"638 738 LINE",
"489 738 LINE",
"349 260 LINE",
"260 516 LINE",
"59 516 LINE"
);
}
);
width = 651;
}
);
note = radical;
unicode = 221A;
},
{
glyphname = summation;
layers = (
{
hints = (
{
horizontal = 1;
place = "{-29, 132}";
type = Stem;
},
{
horizontal = 1;
place = "{592, 132}";
type = Stem;
},
{
place = "{94, 662}";
type = Stem;
}
);
layerId = "3B5F2A21-9AC0-43BD-916B-7DC2040966BF";
paths = (
{
closed = 1;
nodes = (
"575 371 LINE",
"387 592 LINE",
"756 592 LINE",
"756 724 LINE",
"94 724 LINE",
"412 349 LINE",
"94 -29 LINE",
"756 -29 LINE",
"756 103 LINE",
"387 103 LINE",
"575 324 LINE"
);
}
);
width = 854;
}
);
note = summation;
unicode = 2211;
},
{
glyphname = ampersand;
layers = (
{
hints = (
{
horizontal = 1;
place = "{-19, 132}";
type = Stem;
},
{
horizontal = 1;
place = "{591, 132}";
type = Stem;
},
{
place = "{13.73, 142.05}";
type = Stem;
},
{
place = "{436, 148.41}";
type = Stem;
},
{
place = "{139.1, 144.9}";
type = Stem;
},
{
place = "{365, 143.74}";
type = Stem;
}
);
layerId = "3B5F2A21-9AC0-43BD-916B-7DC2040966BF";
paths = (
{
closed = 1;
nodes = (
"543 0 LINE",
"736 0 LINE",
"557 182 LINE",
"584 253 OFFCURVE",
"588 325 OFFCURVE",
"582 367 CURVE",
"427 367 LINE",
"433 348 OFFCURVE",
"436 327 OFFCURVE",
"436 306 CURVE",
"368 376 LINE",
"433 404 OFFCURVE",
"489 447 OFFCURVE",
"504 519 CURVE SMOOTH",
"533 646 OFFCURVE",
"425 723 OFFCURVE",
"335 723 CURVE SMOOTH",
"250 723 OFFCURVE",
"162 670 OFFCURVE",
"144 566 CURVE SMOOTH",
"133 508 OFFCURVE",
"141 463 OFFCURVE",
"158 424 CURVE",
"87 386 OFFCURVE",
"36 336 OFFCURVE",
"20 262 CURVE SMOOTH",
"-14 111 OFFCURVE",
"94 -19 OFFCURVE",
"258 -19 CURVE SMOOTH",
"359 -19 OFFCURVE",
"430 15 OFFCURVE",
"480 64 CURVE"
);
},
{
closed = 1;
nodes = (
"290 575 OFFCURVE",
"312 591 OFFCURVE",
"335 591 CURVE SMOOTH",
"351 591 OFFCURVE",
"371 572 OFFCURVE",
"365 547 CURVE SMOOTH",
"359 519 OFFCURVE",
"342 498 OFFCURVE",
"291 479 CURVE",
"284 498 OFFCURVE",
"280 520 OFFCURVE",
"284 543 CURVE SMOOTH"
);
},
{
closed = 1;
nodes = (
"181 113 OFFCURVE",
"144 165 OFFCURVE",
"159 234 CURVE SMOOTH",
"167 268 OFFCURVE",
"190 295 OFFCURVE",
"232 319 CURVE",
"260 288 OFFCURVE",
"322 225 OFFCURVE",
"383 162 CURVE",
"355 132 OFFCURVE",
"314 113 OFFCURVE",
"258 113 CURVE SMOOTH"
);
}
);
width = 740;
}
);
note = ampersand;
unicode = 0026;
},
{
glyphname = asciicircum;
layers = (
{
hints = (
{
horizontal = 1;
place = "{366, 480}";
type = Stem;
},
{
place = "{50, 449}";
type = Stem;
}
);
layerId = "3B5F2A21-9AC0-43BD-916B-7DC2040966BF";
paths = (
{
closed = 1;
nodes = (
"176 366 LINE",
"274 549 LINE",
"373 366 LINE",
"499 428 LINE",
"274 846 LINE",
"50 428 LINE"
);
}
);
width = 600;
}
);
note = asciicircum;
unicode = 005E;
},
{
glyphname = at;
layers = (
{
hints = (
{
horizontal = 1;
place = "{-241, 132}";
type = Stem;
},
{
horizontal = 1;
place = "{-36.2, 133.2}";
type = Stem;
},
{
horizontal = 1;
place = "{204, 99}";
type = Stem;
},
{
horizontal = 1;
place = "{376, 117}";
type = Stem;
},
{
horizontal = 1;
place = "{596, 132}";
type = Stem;
},
{
place = "{80, 143}";
type = Stem;
},
{
place = "{365, 123}";
type = Stem;
},
{
place = "{652, 137}";
type = Stem;
},
{
place = "{898, 143}";
type = Stem;
},
{
horizontal = 1;
place = "{-21, 126}";
type = Stem;
}
);
layerId = "3B5F2A21-9AC0-43BD-916B-7DC2040966BF";
paths = (
{
closed = 1;
nodes = (
"751 -57 LINE",
"693 -92 OFFCURVE",
"638 -109 OFFCURVE",
"569 -109 CURVE SMOOTH",
"378 -109 OFFCURVE",
"223 47 OFFCURVE",
"223 244 CURVE SMOOTH",
"223 440 OFFCURVE",
"378 596 OFFCURVE",
"569 596 CURVE SMOOTH",
"759 596 OFFCURVE",
"898 452 OFFCURVE",
"898 254 CURVE SMOOTH",
"898 159 OFFCURVE",
"861 101 OFFCURVE",
"831 97 CURVE SMOOTH",
"796 92 OFFCURVE",
"789 99 OFFCURVE",
"789 159 CURVE SMOOTH",
"789 301 LINE",
"789 303 LINE SMOOTH",
"789 418 OFFCURVE",
"699 493 OFFCURVE",
"590 493 CURVE SMOOTH",
"493 493 OFFCURVE",
"431 443 OFFCURVE",
"394 391 CURVE",
"487 307 LINE",
"516 349 OFFCURVE",
"545 376 OFFCURVE",
"590 376 CURVE SMOOTH",
"629 376 OFFCURVE",
"652 345 OFFCURVE",
"652 303 CURVE SMOOTH",
"652 292 LINE",
"630 298 OFFCURVE",
"598 303 OFFCURVE",
"567 303 CURVE SMOOTH",
"461 303 OFFCURVE",
"365 263 OFFCURVE",
"365 137 CURVE SMOOTH",
"365 66 OFFCURVE",
"419 -21 OFFCURVE",
"541 -21 CURVE SMOOTH",
"581 -21 OFFCURVE",
"623 -15 OFFCURVE",
"680 32 CURVE",
"713 -21 OFFCURVE",
"772 -44 OFFCURVE",
"849 -34 CURVE SMOOTH",
"971 -19 OFFCURVE",
"1041 106 OFFCURVE",
"1041 254 CURVE SMOOTH",
"1041 519 OFFCURVE",
"841 728 OFFCURVE",
"569 728 CURVE SMOOTH",
"298 728 OFFCURVE",
"80 509 OFFCURVE",
"80 244 CURVE SMOOTH",
"80 -22 OFFCURVE",
"298 -241 OFFCURVE",
"569 -241 CURVE SMOOTH",
"655 -241 OFFCURVE",
"744 -215 OFFCURVE",
"812 -177 CURVE"
);
},
{
closed = 1;
nodes = (
"504 105 OFFCURVE",
"488 125 OFFCURVE",
"488 145 CURVE SMOOTH",
"488 188 OFFCURVE",
"525 204 OFFCURVE",
"586 204 CURVE SMOOTH",
"606 204 OFFCURVE",
"630 201 OFFCURVE",
"648 196 CURVE",
"644 142 OFFCURVE",
"605 105 OFFCURVE",
"541 105 CURVE SMOOTH"
);
}
);
width = 1110;
}
);
note = at;
unicode = 0040;
},
{
glyphname = bar;
layers = (
{
hints = (
{
horizontal = 1;
place = "{-152, 909}";
type = Stem;
},
{
place = "{256, 143}";
type = Stem;
}
);
layerId = "3B5F2A21-9AC0-43BD-916B-7DC2040966BF";
paths = (
{
closed = 1;
nodes = (
"256 -152 LINE",
"399 -152 LINE",
"399 757 LINE",
"256 757 LINE"
);
}
);
width = 600;
}
);
note = bar;
unicode = 007C;
},
{
glyphname = brokenbar;
layers = (
{
hints = (
{
horizontal = 1;
place = "{-63, 807}";
type = Stem;
},
{
place = "{127, 142}";
type = Stem;
}
);
layerId = "3B5F2A21-9AC0-43BD-916B-7DC2040966BF";
paths = (
{
closed = 1;
nodes = (
"127 377 LINE",
"269 377 LINE",
"269 744 LINE",
"127 744 LINE"
);
},
{
closed = 1;
nodes = (
"127 -63 LINE",
"269 -63 LINE",
"269 305 LINE",
"127 305 LINE"
);
}
);
width = 600;
}
);
note = brokenbar;
unicode = 00A6;
},
{
glyphname = copyright;
layers = (
{
hints = (
{
horizontal = 1;
place = "{-17, 132}";
type = Stem;
},
{
horizontal = 1;
place = "{198, 94}";
type = Stem;
},
{
horizontal = 1;
place = "{420, 94}";
type = Stem;
},
{
horizontal = 1;
place = "{585, 132}";
type = Stem;
},
{
place = "{37, 142}";
type = Stem;
},
{
place = "{255, 101}";
type = Stem;
},
{
place = "{637, 143}";
type = Stem;
}
);
layerId = "3B5F2A21-9AC0-43BD-916B-7DC2040966BF";
paths = (
{
closed = 1;
nodes = (
"155 55 OFFCURVE",
"275 -17 OFFCURVE",
"408 -17 CURVE SMOOTH",
"612 -17 OFFCURVE",
"780 151 OFFCURVE",
"780 350 CURVE SMOOTH",
"780 411 OFFCURVE",
"762 475 OFFCURVE",
"734 526 CURVE SMOOTH",
"674 637 OFFCURVE",
"548 717 OFFCURVE",
"408 717 CURVE SMOOTH",
"204 717 OFFCURVE",
"37 550 OFFCURVE",
"37 350 CURVE SMOOTH",
"37 283 OFFCURVE",
"58 213 OFFCURVE",
"92 157 CURVE SMOOTH"
);
},
{
closed = 1;
nodes = (
"191 264 OFFCURVE",
"179 301 OFFCURVE",
"179 350 CURVE SMOOTH",
"179 482 OFFCURVE",
"283 585 OFFCURVE",
"408 585 CURVE SMOOTH",
"493 585 OFFCURVE",
"568 538 OFFCURVE",
"609 463 CURVE SMOOTH",
"628 428 OFFCURVE",
"637 395 OFFCURVE",
"637 350 CURVE SMOOTH",
"637 218 OFFCURVE",
"533 115 OFFCURVE",
"408 115 CURVE SMOOTH",
"328 115 OFFCURVE",
"256 158 OFFCURVE",
"213 227 CURVE SMOOTH"
);
},
{
closed = 1;
nodes = (
"464 340 LINE",
"455 306 OFFCURVE",
"431 292 OFFCURVE",
"409 292 CURVE SMOOTH",
"381 292 OFFCURVE",
"356 318 OFFCURVE",
"356 356 CURVE SMOOTH",
"356 392 OFFCURVE",
"380 420 OFFCURVE",
"409 420 CURVE SMOOTH",
"431 420 OFFCURVE",
"450 410 OFFCURVE",
"464 376 CURVE",
"541 434 LINE",
"527 474 OFFCURVE",
"466 514 OFFCURVE",
"409 514 CURVE SMOOTH",
"317 514 OFFCURVE",
"255 434 OFFCURVE",
"255 356 CURVE SMOOTH",
"255 272 OFFCURVE",
"324 198 OFFCURVE",
"409 198 CURVE SMOOTH",
"469 198 OFFCURVE",
"531 242 OFFCURVE",
"546 286 CURVE"
);
}
);
width = 817;
}
);
note = copyright;
unicode = 00A9;
},
{
glyphname = dagger;
layers = (
{
hints = (
{
horizontal = 1;
place = "{413, 132}";
type = Stem;
},
{
place = "{205, 143}";
type = Stem;
}
);
layerId = "3B5F2A21-9AC0-43BD-916B-7DC2040966BF";
paths = (
{
closed = 1;
nodes = (
"348 -129 LINE",
"348 413 LINE",
"484 413 LINE",
"484 545 LINE",
"348 545 LINE",
"348 730 LINE",
"205 730 LINE",
"205 545 LINE",
"70 545 LINE",
"70 413 LINE",
"205 413 LINE",
"205 -129 LINE"
);
}
);
width = 600;
}
);
note = dagger;
unicode = 2020;
},
